<svg xmlns="http://www.w3.org/2000/svg" xmlns:xlink="http://www.w3.org/1999/xlink" xmlns:lucid="lucid" width="1140" height="340"><g transform="translate(-340 -160)" lucid:page-tab-id="XHF7o3Rh6PGl"><path d="M360 180h1100v300H360z" stroke="#5e5e5e" stroke-width="3" fill="#fff"/><path d="M360 180h1100v60H360z" stroke="#5e5e5e" stroke-width="3" fill="#fff"/><path d="M820 194.25h180v31.5H820z" stroke="#000" stroke-opacity="0" stroke-width="3" fill="#e5e5e5"/><use xlink:href="#a" transform="matrix(1,0,0,1,825,199.25) translate(28.9908854166667 21.32812499999999)"/><path d="M377 320h330v29.25H377z" stroke="#000" stroke-opacity="0" stroke-width="3" fill="#e5e5e5"/><use xlink:href="#b" transform="matrix(1,0,0,1,382,325) translate(9.975585937500085 15.996093749999982)"/><path d="M377 362.75h330V392H377z" stroke="#000" stroke-opacity="0" stroke-width="3" fill="#e5e5e5"/><use xlink:href="#c" transform="matrix(1,0,0,1,382,367.75) translate(9.975585937500085 15.996093749999982)"/><path d="M377 414.63h330v29.25H377z" stroke="#000" stroke-opacity="0" stroke-width="3" fill="#e5e5e5"/><use xlink:href="#d" transform="matrix(1,0,0,1,382,419.625) translate(9.975585937500085 15.996093749999982)"/><path d="M800 320h240v29.25H800z" stroke="#000" stroke-opacity="0" stroke-width="3" fill="#e5e5e5"/><use xlink:href="#e" transform="matrix(1,0,0,1,805,325) translate(0 15.996093749999982)"/><path d="M800 362.75h280V392H800z" stroke="#000" stroke-opacity="0" stroke-width="3" fill="#e5e5e5"/><use xlink:href="#f" transform="matrix(1,0,0,1,805,367.75) translate(0 15.996093749999982)"/><path d="M800 404h540v50H800z" stroke="#000" stroke-opacity="0" stroke-width="3" fill="#e5e5e5"/><use xlink:href="#g" transform="matrix(1,0,0,1,805,409) translate(0 15.996093749999982)"/><use xlink:href="#h" transform="matrix(1,0,0,1,805,409) translate(240.03906249999986 15.996093749999982)"/><use xlink:href="#i" transform="matrix(1,0,0,1,805,409) translate(0 35.99609374999996)"/><path d="M377 245h343v70H377z" stroke="#000" stroke-opacity="0" stroke-width="3" fill="#fff"/><use xlink:href="#j" transform="matrix(1,0,0,1,382,250.00000000000003) translate(142.49609375000003 27.246093749999986)"/><use xlink:href="#k" transform="matrix(1,0,0,1,382,250.00000000000003) translate(4.4736328125001705 47.24609374999997)"/><use xlink:href="#l" transform="matrix(1,0,0,1,382,250.00000000000003) translate(100.48925781250007 47.24609374999997)"/><use xlink:href="#m" transform="matrix(1,0,0,1,382,250.00000000000003) translate(160.4990234375 47.24609374999997)"/><path d="M760 254.1h680v50H760z" stroke="#000" stroke-opacity="0" stroke-width="3" fill="#fff"/><use xlink:href="#n" transform="matrix(1,0,0,1,765,259.1111111111111) translate(298.99414062500006 15.996093749999986)"/><use xlink:href="#o" transform="matrix(1,0,0,1,765,259.1111111111111) translate(4.946289062500284 35.99609374999997)"/><use xlink:href="#p" transform="matrix(1,0,0,1,765,259.1111111111111) translate(100.96191406250018 35.99609374999997)"/><use xlink:href="#q" transform="matrix(1,0,0,1,765,259.1111111111111) translate(136.96777343750017 35.99609374999997)"/><use xlink:href="#r" transform="matrix(1,0,0,1,765,259.1111111111111) translate(220.98144531250009 35.99609374999997)"/><use xlink:href="#s" transform="matrix(1,0,0,1,765,259.1111111111111) translate(280.99121093750006 35.99609374999997)"/><use xlink:href="#t" transform="matrix(1,0,0,1,765,259.1111111111111) translate(365.00488281249994 35.99609374999997)"/><use xlink:href="#u" transform="matrix(1,0,0,1,765,259.1111111111111) translate(389.00878906249994 35.99609374999997)"/><use xlink:href="#q" transform="matrix(1,0,0,1,765,259.1111111111111) translate(437.0166015624999 35.99609374999997)"/><use xlink:href="#r" transform="matrix(1,0,0,1,765,259.1111111111111) translate(521.0302734374998 35.99609374999997)"/><use xlink:href="#v" transform="matrix(1,0,0,1,765,259.1111111111111) translate(581.0400390624998 35.99609374999997)"/><path d="M708 334.54h73.5" stroke="#5e5e5e" stroke-width="2" fill="none"/><path d="M708.03 335.54H707v-2h1.03z" fill="#5e5e5e"/><path d="M796.76 334.54l-14.26 4.64v-9.27z" stroke="#5e5e5e" stroke-width="2" fill="#5e5e5e"/><path d="M708 377.38h73.5" stroke="#5e5e5e" stroke-width="2" fill="none"/><path d="M708.03 378.38H707v-2h1.03z" fill="#5e5e5e"/><path d="M796.76 377.38L782.5 382v-9.26z" stroke="#5e5e5e" stroke-width="2" fill="#5e5e5e"/><path d="M708 429.25h45.4c.06 0 .1.04.1.1 0 .04.04.08.1.08h27.9" stroke="#5e5e5e" stroke-width="2" fill="none"/><path d="M708.03 430.25H707v-2h1.03z" fill="#5e5e5e"/><path d="M796.76 429.43l-14.26 4.63v-9.27z" stroke="#5e5e5e" stroke-width="2" fill="#5e5e5e"/><path d="M735.33 242.5l.13 238" stroke="#5e5e5e" stroke-width="2" fill="none"/><path d="M736.33 242.53h-2v-1.03h2zM736.46 481.5h-2v-1.03h2z" fill="#5e5e5e"/><defs><path fill="#333" d="M1157-949c0 209-118 316-279 368L1227 0H895L605-515H432V0H137v-1349h494c317-2 526 111 526 400zM608-744c158 1 248-51 252-193 5-207-223-184-428-183v376h176" id="w"/><path fill="#333" d="M496-1349c439 0 656 222 653 664C1146-265 969 0 556 0H135v-1349h361zm36 1121c245-7 319-187 320-457 1-273-91-439-361-436h-61v893h102" id="x"/><path fill="#333" d="M796 0v-574H433V0H138v-1349h295v531h363v-531h295V0H796" id="y"/><path fill="#333" d="M1229 0H935l-92-330H387L295 0H0l443-1349h344zM615-1167c-46 213-110 412-166 615h332c-56-204-119-401-166-615" id="z"/><path fill="#333" d="M609-1161c-125 0-218 36-218 153 0 149 166 161 290 196 235 67 484 129 484 421 0 300-239 408-554 411C302 23 93-114 38-367l285-37c32 128 131 205 296 203 143-2 259-31 259-173 0-164-197-172-333-212-218-64-441-131-441-405 0-276 231-379 511-379 299 0 463 114 513 363l-286 29c-28-115-96-183-233-183" id="A"/><g id="a"><use transform="matrix(0.013020833333333327,0,0,0.013020833333333327,0,0)" xlink:href="#w"/><use transform="matrix(0.013020833333333327,0,0,0.013020833333333327,16.002604166666657,0)" xlink:href="#x"/><use transform="matrix(0.013020833333333327,0,0,0.013020833333333327,32.005208333333314,0)" xlink:href="#w"/><use transform="matrix(0.013020833333333327,0,0,0.013020833333333327,48.00781249999997,0)" xlink:href="#y"/><use transform="matrix(0.013020833333333327,0,0,0.013020833333333327,64.01041666666663,0)" xlink:href="#z"/><use transform="matrix(0.013020833333333327,0,0,0.013020833333333327,80.01302083333329,0)" xlink:href="#A"/><use transform="matrix(0.013020833333333327,0,0,0.013020833333333327,96.01562499999994,0)" xlink:href="#y"/></g><path fill="#333" d="M875-1102c70 0 148 7 206 17v237c-110-17-267-37-359 15-123 69-192 207-192 395V0H250c-10-367 32-789-52-1082h271c19 69 36 149 46 228h4c52-151 151-250 356-248" id="B"/><path fill="#333" d="M1113-274C1038-96 884 20 626 20c-352 0-526-209-526-566 0-358 185-556 530-556 358 0 496 251 499 615H395c5 180 68 319 245 319 102 0 186-45 208-129zM857-663c-6-177-128-307-315-247-94 30-141 121-145 247h460" id="C"/><path fill="#333" d="M934-1102c199 0 220 177 220 381V0H926c-2-260 10-533-4-785-4-72-14-138-83-138-34 0-61 27-81 81s-29 134-29 241V0H501c-2-260 9-533-5-785-4-72-13-138-82-138-46 0-65 47-80 93-21 67-30 155-30 248V0H75c-3-360 6-732-6-1082h209c6 50 3 123 8 175 36-100 83-195 216-195 135 0 166 79 196 196 42-105 93-196 236-196" id="D"/><path fill="#333" d="M324-409v-244h580v244H324" id="E"/><path fill="#333" d="M802-909c-3-189-2-383-2-575h281v1248c-1 83 4 168 8 236H817c-9-50-14-117-15-176h-4C735-49 651 20 482 20 191 20 97-238 97-539c0-243 66-432 221-519 50-28 108-42 175-42 162 2 253 78 309 191zm-70 658c91-113 93-462 2-584-46-61-145-100-224-53-96 56-119 190-120 349 0 123 17 214 52 275 46 82 130 115 222 74 25-12 46-33 68-61" id="F"/><path fill="#333" d="M775-193C708-75 621 20 439 20 226 20 106-93 106-306c0-251 170-341 417-346l223-4c4-143-12-264-148-264-103 0-141 58-150 153l-293-14c37-219 194-321 455-321 263 0 418 130 417 390v392c1 84 5 161 89 160 21 0 42-2 62-6v152c-57 15-108 27-180 26-145 0-202-73-217-205h-6zm-256 17c168 0 234-139 227-325-166 4-347-25-347 173 0 94 33 152 120 152" id="G"/><path fill="#333" d="M711 13c-250 0-386-99-385-349l2-556H161v-190h181l88-282h176v282h385v190H606v530c-10 130 45 186 174 184 91-2 176-11 255-27v186C933-1 833 13 711 13" id="H"/><path fill="#333" d="M1108-33c-3 314-178 467-492 467-243 0-400-94-447-291l281-33c17 79 82 141 174 141 176 0 212-155 205-347-2-40 5-80 0-115C773-85 665-12 501-12c-288 0-377-242-377-538 0-242 65-426 223-510 50-26 108-39 175-39 160 0 253 78 307 191h5c1-58 5-125 14-174h266c-12 335-3 703-6 1049zM811-384c25-82 27-259 1-342-30-99-77-180-190-180-172 0-205 171-205 356 0 116 18 202 54 258 48 76 129 107 221 70 62-25 96-86 119-162" id="I"/><path fill="#333" d="M794-190h353V0H118v-190h395v-702H223v-190h571v892zM513-1277v-207h281v207H513" id="J"/><path fill="#333" d="M622-916c-112 2-200 14-200 111 0 90 89 101 168 121 234 58 514 77 514 368C1104-4 751 54 434 5 267-21 161-112 121-270l247-37c24 111 113 145 252 141 114-3 226-12 226-124 0-101-103-113-192-134-225-54-490-76-490-351 0-247 201-328 458-328 245 0 413 88 457 292l-249 26c-16-98-92-133-208-131" id="K"/><path fill="#333" d="M616-1102c361 0 521 202 521 560 0 354-171 562-527 562C259 20 92-192 92-542c0-351 169-560 524-560zm-9 930c200-2 236-165 236-370 0-199-27-367-223-367-195 0-233 146-233 367 0 129 18 223 55 282s92 88 165 88" id="L"/><path fill="#333" d="M768-1103c247 0 336 167 336 416V0H824v-619c-3-164-24-273-171-273-164 0-229 142-229 312V0H143c-4-359 9-736-8-1082h268c7 63 12 146 13 215h4c67-145 160-236 348-236" id="M"/><path fill="#333" d="M427-171c3 195 2 397 2 596H148V-846c1-83-4-168-8-236h272c10 49 14 118 15 176h4c59-114 151-197 316-197 291 0 385 259 385 560 0 243-65 433-220 521-50 28-109 42-176 42-162-2-253-78-309-191zm69-661c-91 113-92 463-1 586 46 62 145 101 225 54 96-57 118-191 119-351 0-123-18-215-53-276-46-82-128-115-220-74-25 12-48 33-70 61" id="N"/><path fill="#333" d="M143 212c82 12 185 12 233-31 50-45 83-117 110-192L38-1082h297c100 284 211 557 291 861 72-305 176-578 270-861h294L742 57c-80 192-156 368-417 368-60 0-131-4-182-13V212" id="O"/><path fill="#333" d="M471 20c-247 0-336-169-336-415v-687h281v607c4 148 31 285 172 285 152 0 207-150 207-312v-580h281c4 359-9 736 8 1082H816c-7-63-11-146-12-215h-5C736-76 644 20 471 20" id="P"/><g id="b"><use transform="matrix(0.00976562499999999,0,0,0.00976562499999999,0,0)" xlink:href="#B"/><use transform="matrix(0.00976562499999999,0,0,0.00976562499999999,12.001953124999988,0)" xlink:href="#C"/><use transform="matrix(0.00976562499999999,0,0,0.00976562499999999,24.003906249999975,0)" xlink:href="#D"/><use transform="matrix(0.00976562499999999,0,0,0.00976562499999999,36.005859374999964,0)" xlink:href="#E"/><use transform="matrix(0.00976562499999999,0,0,0.00976562499999999,48.00781249999995,0)" xlink:href="#F"/><use transform="matrix(0.00976562499999999,0,0,0.00976562499999999,60.009765624999936,0)" xlink:href="#G"/><use transform="matrix(0.00976562499999999,0,0,0.00976562499999999,72.01171874999993,0)" xlink:href="#H"/><use transform="matrix(0.00976562499999999,0,0,0.00976562499999999,84.01367187499991,0)" xlink:href="#G"/><use transform="matrix(0.00976562499999999,0,0,0.00976562499999999,96.0156249999999,0)" xlink:href="#E"/><use transform="matrix(0.00976562499999999,0,0,0.00976562499999999,108.01757812499989,0)" xlink:href="#B"/><use transform="matrix(0.00976562499999999,0,0,0.00976562499999999,120.01953124999987,0)" xlink:href="#C"/><use transform="matrix(0.00976562499999999,0,0,0.00976562499999999,132.02148437499986,0)" xlink:href="#I"/><use transform="matrix(0.00976562499999999,0,0,0.00976562499999999,144.02343749999986,0)" xlink:href="#J"/><use transform="matrix(0.00976562499999999,0,0,0.00976562499999999,156.02539062499986,0)" xlink:href="#K"/><use transform="matrix(0.00976562499999999,0,0,0.00976562499999999,168.02734374999986,0)" xlink:href="#H"/><use transform="matrix(0.00976562499999999,0,0,0.00976562499999999,180.02929687499983,0)" xlink:href="#B"/><use transform="matrix(0.00976562499999999,0,0,0.00976562499999999,192.03124999999986,0)" xlink:href="#G"/><use transform="matrix(0.00976562499999999,0,0,0.00976562499999999,204.03320312499986,0)" xlink:href="#H"/><use transform="matrix(0.00976562499999999,0,0,0.00976562499999999,216.03515624999983,0)" xlink:href="#J"/><use transform="matrix(0.00976562499999999,0,0,0.00976562499999999,228.03710937499986,0)" xlink:href="#L"/><use transform="matrix(0.00976562499999999,0,0,0.00976562499999999,240.03906249999986,0)" xlink:href="#M"/><use transform="matrix(0.00976562499999999,0,0,0.00976562499999999,252.0410156249999,0)" xlink:href="#E"/><use transform="matrix(0.00976562499999999,0,0,0.00976562499999999,264.04296874999983,0)" xlink:href="#N"/><use transform="matrix(0.00976562499999999,0,0,0.00976562499999999,276.04492187499983,0)" xlink:href="#O"/><use transform="matrix(0.00976562499999999,0,0,0.00976562499999999,288.04687499999983,0)" xlink:href="#P"/></g><path fill="#333" d="M800 425c-1-198 1-404 0-596C746-55 645 20 483 20 183 20 97-237 97-543c0-242 74-429 227-518 49-28 105-42 168-42 163 0 248 85 306 197h4c1-59 6-126 15-176h272c-4 67-9 153-8 236V425H800zm-66-671c93-114 91-467-2-586-35-45-76-79-141-79-64 0-113 31-149 92-69 115-66 440 4 561 39 68 130 111 220 70 25-11 46-31 68-58" id="Q"/><g id="c"><use transform="matrix(0.00976562499999999,0,0,0.00976562499999999,0,0)" xlink:href="#B"/><use transform="matrix(0.00976562499999999,0,0,0.00976562499999999,12.001953124999988,0)" xlink:href="#C"/><use transform="matrix(0.00976562499999999,0,0,0.00976562499999999,24.003906249999975,0)" xlink:href="#D"/><use transform="matrix(0.00976562499999999,0,0,0.00976562499999999,36.005859374999964,0)" xlink:href="#E"/><use transform="matrix(0.00976562499999999,0,0,0.00976562499999999,48.00781249999995,0)" xlink:href="#F"/><use transform="matrix(0.00976562499999999,0,0,0.00976562499999999,60.009765624999936,0)" xlink:href="#G"/><use transform="matrix(0.00976562499999999,0,0,0.00976562499999999,72.01171874999993,0)" xlink:href="#H"/><use transform="matrix(0.00976562499999999,0,0,0.00976562499999999,84.01367187499991,0)" xlink:href="#G"/><use transform="matrix(0.00976562499999999,0,0,0.00976562499999999,96.0156249999999,0)" xlink:href="#E"/><use transform="matrix(0.00976562499999999,0,0,0.00976562499999999,108.01757812499989,0)" xlink:href="#B"/><use transform="matrix(0.00976562499999999,0,0,0.00976562499999999,120.01953124999987,0)" xlink:href="#C"/><use transform="matrix(0.00976562499999999,0,0,0.00976562499999999,132.02148437499986,0)" xlink:href="#I"/><use transform="matrix(0.00976562499999999,0,0,0.00976562499999999,144.02343749999986,0)" xlink:href="#J"/><use transform="matrix(0.00976562499999999,0,0,0.00976562499999999,156.02539062499986,0)" xlink:href="#K"/><use transform="matrix(0.00976562499999999,0,0,0.00976562499999999,168.02734374999986,0)" xlink:href="#H"/><use transform="matrix(0.00976562499999999,0,0,0.00976562499999999,180.02929687499983,0)" xlink:href="#B"/><use transform="matrix(0.00976562499999999,0,0,0.00976562499999999,192.03124999999986,0)" xlink:href="#G"/><use transform="matrix(0.00976562499999999,0,0,0.00976562499999999,204.03320312499986,0)" xlink:href="#H"/><use transform="matrix(0.00976562499999999,0,0,0.00976562499999999,216.03515624999983,0)" xlink:href="#J"/><use transform="matrix(0.00976562499999999,0,0,0.00976562499999999,228.03710937499986,0)" xlink:href="#L"/><use transform="matrix(0.00976562499999999,0,0,0.00976562499999999,240.03906249999986,0)" xlink:href="#M"/><use transform="matrix(0.00976562499999999,0,0,0.00976562499999999,252.0410156249999,0)" xlink:href="#E"/><use transform="matrix(0.00976562499999999,0,0,0.00976562499999999,264.04296874999983,0)" xlink:href="#Q"/><use transform="matrix(0.00976562499999999,0,0,0.00976562499999999,276.04492187499983,0)" xlink:href="#B"/><use transform="matrix(0.00976562499999999,0,0,0.00976562499999999,288.04687499999983,0)" xlink:href="#K"/></g><path fill="#333" d="M424-1484c-2 206 5 424-8 618h4c67-145 160-234 348-236 251-3 335 167 336 416V0H824v-621c0-150-23-276-173-270-163 7-227 142-227 312V0H143v-1484h281" id="R"/><g id="d"><use transform="matrix(0.00976562499999999,0,0,0.00976562499999999,0,0)" xlink:href="#B"/><use transform="matrix(0.00976562499999999,0,0,0.00976562499999999,12.001953124999988,0)" xlink:href="#C"/><use transform="matrix(0.00976562499999999,0,0,0.00976562499999999,24.003906249999975,0)" xlink:href="#D"/><use transform="matrix(0.00976562499999999,0,0,0.00976562499999999,36.005859374999964,0)" xlink:href="#E"/><use transform="matrix(0.00976562499999999,0,0,0.00976562499999999,48.00781249999995,0)" xlink:href="#F"/><use transform="matrix(0.00976562499999999,0,0,0.00976562499999999,60.009765624999936,0)" xlink:href="#G"/><use transform="matrix(0.00976562499999999,0,0,0.00976562499999999,72.01171874999993,0)" xlink:href="#H"/><use transform="matrix(0.00976562499999999,0,0,0.00976562499999999,84.01367187499991,0)" xlink:href="#G"/><use transform="matrix(0.00976562499999999,0,0,0.00976562499999999,96.0156249999999,0)" xlink:href="#E"/><use transform="matrix(0.00976562499999999,0,0,0.00976562499999999,108.01757812499989,0)" xlink:href="#B"/><use transform="matrix(0.00976562499999999,0,0,0.00976562499999999,120.01953124999987,0)" xlink:href="#C"/><use transform="matrix(0.00976562499999999,0,0,0.00976562499999999,132.02148437499986,0)" xlink:href="#I"/><use transform="matrix(0.00976562499999999,0,0,0.00976562499999999,144.02343749999986,0)" xlink:href="#J"/><use transform="matrix(0.00976562499999999,0,0,0.00976562499999999,156.02539062499986,0)" xlink:href="#K"/><use transform="matrix(0.00976562499999999,0,0,0.00976562499999999,168.02734374999986,0)" xlink:href="#H"/><use transform="matrix(0.00976562499999999,0,0,0.00976562499999999,180.02929687499983,0)" xlink:href="#B"/><use transform="matrix(0.00976562499999999,0,0,0.00976562499999999,192.03124999999986,0)" xlink:href="#G"/><use transform="matrix(0.00976562499999999,0,0,0.00976562499999999,204.03320312499986,0)" xlink:href="#H"/><use transform="matrix(0.00976562499999999,0,0,0.00976562499999999,216.03515624999983,0)" xlink:href="#J"/><use transform="matrix(0.00976562499999999,0,0,0.00976562499999999,228.03710937499986,0)" xlink:href="#L"/><use transform="matrix(0.00976562499999999,0,0,0.00976562499999999,240.03906249999986,0)" xlink:href="#M"/><use transform="matrix(0.00976562499999999,0,0,0.00976562499999999,252.0410156249999,0)" xlink:href="#E"/><use transform="matrix(0.00976562499999999,0,0,0.00976562499999999,264.04296874999983,0)" xlink:href="#D"/><use transform="matrix(0.00976562499999999,0,0,0.00976562499999999,276.04492187499983,0)" xlink:href="#I"/><use transform="matrix(0.00976562499999999,0,0,0.00976562499999999,288.04687499999983,0)" xlink:href="#R"/></g><path fill="#333" d="M117-675c0-408 109-695 502-695 384 0 492 295 492 695 0 326-84 561-303 658-117 51-277 52-394 1-217-95-297-335-297-659zm591 451c148-93 132-449 108-680-15-138-53-246-199-246-150 0-193 107-207 248-22 230-40 585 106 678 50 32 141 32 192 0zM506-555v-249h215v249H506" id="S"/><path fill="#333" d="M980-287V0H712v-287H71v-211l595-851h314v853h188v209H980zM712-496c2-204-7-417 9-609-118 224-277 405-414 609h405" id="T"/><path fill="#333" d="M706-877c265 0 409 163 409 431 0 299-171 466-474 466-381 0-516-302-516-692 0-236 47-410 135-526 112-147 319-207 541-154 154 36 236 149 276 306l-265 37c-22-86-75-139-170-139-76 0-135 36-178 108s-64 179-64 318c54-94 164-155 306-155zm-74 678c138 0 201-98 201-239s-67-232-208-232c-125 0-205 73-205 202 0 149 67 269 212 269" id="U"/><g id="e"><use transform="matrix(0.00976562499999999,0,0,0.00976562499999999,0,0)" xlink:href="#B"/><use transform="matrix(0.00976562499999999,0,0,0.00976562499999999,12.001953124999988,0)" xlink:href="#C"/><use transform="matrix(0.00976562499999999,0,0,0.00976562499999999,24.003906249999975,0)" xlink:href="#D"/><use transform="matrix(0.00976562499999999,0,0,0.00976562499999999,36.005859374999964,0)" xlink:href="#E"/><use transform="matrix(0.00976562499999999,0,0,0.00976562499999999,48.00781249999995,0)" xlink:href="#F"/><use transform="matrix(0.00976562499999999,0,0,0.00976562499999999,60.009765624999936,0)" xlink:href="#G"/><use transform="matrix(0.00976562499999999,0,0,0.00976562499999999,72.01171874999993,0)" xlink:href="#H"/><use transform="matrix(0.00976562499999999,0,0,0.00976562499999999,84.01367187499991,0)" xlink:href="#G"/><use transform="matrix(0.00976562499999999,0,0,0.00976562499999999,96.0156249999999,0)" xlink:href="#E"/><use transform="matrix(0.00976562499999999,0,0,0.00976562499999999,108.01757812499989,0)" xlink:href="#I"/><use transform="matrix(0.00976562499999999,0,0,0.00976562499999999,120.01953124999987,0)" xlink:href="#B"/><use transform="matrix(0.00976562499999999,0,0,0.00976562499999999,132.02148437499986,0)" xlink:href="#G"/><use transform="matrix(0.00976562499999999,0,0,0.00976562499999999,144.02343749999986,0)" xlink:href="#M"/><use transform="matrix(0.00976562499999999,0,0,0.00976562499999999,156.02539062499986,0)" xlink:href="#H"/><use transform="matrix(0.00976562499999999,0,0,0.00976562499999999,168.02734374999986,0)" xlink:href="#E"/><use transform="matrix(0.00976562499999999,0,0,0.00976562499999999,180.02929687499983,0)" xlink:href="#S"/><use transform="matrix(0.00976562499999999,0,0,0.00976562499999999,192.03124999999986,0)" xlink:href="#T"/><use transform="matrix(0.00976562499999999,0,0,0.00976562499999999,204.03320312499986,0)" xlink:href="#U"/></g><path fill="#333" d="M844-1321c-130 0-195 53-191 182v57h443v190H653V0H373v-892H117v-190h256v-83c5-247 162-348 422-349 120-1 232 13 327 28v184c-84-10-183-19-278-19" id="V"/><path fill="#333" d="M829-709c170 32 291 130 291 327 0 285-207 402-505 402-296 0-506-116-506-400 0-194 122-293 287-327v-4c-145-37-254-130-254-301 0-257 201-358 469-358 275 0 474 97 474 360 0 168-110 262-256 297v4zm-216-99c126 0 184-66 183-187-1-119-62-179-185-178-121 0-182 60-182 178 0 119 60 187 184 187zm4 630c149 0 213-80 212-227-2-138-77-206-220-206-139 1-209 76-211 210-2 147 70 223 219 223" id="W"/><g id="f"><use transform="matrix(0.00976562499999999,0,0,0.00976562499999999,0,0)" xlink:href="#B"/><use transform="matrix(0.00976562499999999,0,0,0.00976562499999999,12.001953124999988,0)" xlink:href="#C"/><use transform="matrix(0.00976562499999999,0,0,0.00976562499999999,24.003906249999975,0)" xlink:href="#V"/><use transform="matrix(0.00976562499999999,0,0,0.00976562499999999,36.005859374999964,0)" xlink:href="#E"/><use transform="matrix(0.00976562499999999,0,0,0.00976562499999999,48.00781249999995,0)" xlink:href="#B"/><use transform="matrix(0.00976562499999999,0,0,0.00976562499999999,60.009765624999936,0)" xlink:href="#C"/><use transform="matrix(0.00976562499999999,0,0,0.00976562499999999,72.01171874999993,0)" xlink:href="#D"/><use transform="matrix(0.00976562499999999,0,0,0.00976562499999999,84.01367187499991,0)" xlink:href="#E"/><use transform="matrix(0.00976562499999999,0,0,0.00976562499999999,96.0156249999999,0)" xlink:href="#F"/><use transform="matrix(0.00976562499999999,0,0,0.00976562499999999,108.01757812499989,0)" xlink:href="#G"/><use transform="matrix(0.00976562499999999,0,0,0.00976562499999999,120.01953124999987,0)" xlink:href="#H"/><use transform="matrix(0.00976562499999999,0,0,0.00976562499999999,132.02148437499986,0)" xlink:href="#G"/><use transform="matrix(0.00976562499999999,0,0,0.00976562499999999,144.02343749999986,0)" xlink:href="#E"/><use transform="matrix(0.00976562499999999,0,0,0.00976562499999999,156.02539062499986,0)" xlink:href="#I"/><use transform="matrix(0.00976562499999999,0,0,0.00976562499999999,168.02734374999986,0)" xlink:href="#B"/><use transform="matrix(0.00976562499999999,0,0,0.00976562499999999,180.02929687499983,0)" xlink:href="#G"/><use transform="matrix(0.00976562499999999,0,0,0.00976562499999999,192.03124999999986,0)" xlink:href="#M"/><use transform="matrix(0.00976562499999999,0,0,0.00976562499999999,204.03320312499986,0)" xlink:href="#H"/><use transform="matrix(0.00976562499999999,0,0,0.00976562499999999,216.03515624999983,0)" xlink:href="#E"/><use transform="matrix(0.00976562499999999,0,0,0.00976562499999999,228.03710937499986,0)" xlink:href="#W"/><use transform="matrix(0.00976562499999999,0,0,0.00976562499999999,240.03906249999986,0)" xlink:href="#W"/><use transform="matrix(0.00976562499999999,0,0,0.00976562499999999,252.0410156249999,0)" xlink:href="#W"/></g><path fill="#333" d="M788-691c191 26 337 112 337 315 0 286-214 399-510 399-306 0-483-128-522-391l286-25c18 124 91 190 235 188 132-2 223-58 223-188 0-176-191-182-378-179v-227c176 5 345-9 345-176 0-115-82-171-200-171s-198 55-206 169l-281-20c34-252 213-373 492-373 224 0 381 74 451 224 20 43 29 89 29 136 0 195-130 279-301 315v4" id="X"/><path fill="#333" d="M138-1120c207-4 339-93 415-229h266v1140h323V0H149v-209h389v-891c-70 121-216 187-400 194v-214" id="Y"/><path fill="#333" d="M258 363l169-662h315L431 363H258" id="Z"/><g id="g"><use transform="matrix(0.00976562499999999,0,0,0.00976562499999999,0,0)" xlink:href="#B"/><use transform="matrix(0.00976562499999999,0,0,0.00976562499999999,12.001953124999988,0)" xlink:href="#C"/><use transform="matrix(0.00976562499999999,0,0,0.00976562499999999,24.003906249999975,0)" xlink:href="#D"/><use transform="matrix(0.00976562499999999,0,0,0.00976562499999999,36.005859374999964,0)" xlink:href="#E"/><use transform="matrix(0.00976562499999999,0,0,0.00976562499999999,48.00781249999995,0)" xlink:href="#F"/><use transform="matrix(0.00976562499999999,0,0,0.00976562499999999,60.009765624999936,0)" xlink:href="#G"/><use transform="matrix(0.00976562499999999,0,0,0.00976562499999999,72.01171874999993,0)" xlink:href="#H"/><use transform="matrix(0.00976562499999999,0,0,0.00976562499999999,84.01367187499991,0)" xlink:href="#G"/><use transform="matrix(0.00976562499999999,0,0,0.00976562499999999,96.0156249999999,0)" xlink:href="#E"/><use transform="matrix(0.00976562499999999,0,0,0.00976562499999999,108.01757812499989,0)" xlink:href="#I"/><use transform="matrix(0.00976562499999999,0,0,0.00976562499999999,120.01953124999987,0)" xlink:href="#B"/><use transform="matrix(0.00976562499999999,0,0,0.00976562499999999,132.02148437499986,0)" xlink:href="#G"/><use transform="matrix(0.00976562499999999,0,0,0.00976562499999999,144.02343749999986,0)" xlink:href="#M"/><use transform="matrix(0.00976562499999999,0,0,0.00976562499999999,156.02539062499986,0)" xlink:href="#H"/><use transform="matrix(0.00976562499999999,0,0,0.00976562499999999,168.02734374999986,0)" xlink:href="#E"/><use transform="matrix(0.00976562499999999,0,0,0.00976562499999999,180.02929687499983,0)" xlink:href="#T"/><use transform="matrix(0.00976562499999999,0,0,0.00976562499999999,192.03124999999986,0)" xlink:href="#X"/><use transform="matrix(0.00976562499999999,0,0,0.00976562499999999,204.03320312499986,0)" xlink:href="#Y"/><use transform="matrix(0.00976562499999999,0,0,0.00976562499999999,216.03515624999983,0)" xlink:href="#Z"/></g><path fill="#333" d="M135-968c34-256 187-402 480-402 217 0 371 75 441 220 45 93 40 219-8 308-114 212-348 323-508 488-38 39-66 80-85 123h654V0H123v-195c112-245 321-399 515-560 57-48 107-96 142-157 14-26 22-53 22-80-1-104-73-156-185-154-131 2-181 74-199 194" id="aa"/><g id="h"><use transform="matrix(0.00976562499999999,0,0,0.00976562499999999,0,0)" xlink:href="#B"/><use transform="matrix(0.00976562499999999,0,0,0.00976562499999999,12.001953124999988,0)" xlink:href="#C"/><use transform="matrix(0.00976562499999999,0,0,0.00976562499999999,24.003906249999975,0)" xlink:href="#V"/><use transform="matrix(0.00976562499999999,0,0,0.00976562499999999,36.005859374999964,0)" xlink:href="#E"/><use transform="matrix(0.00976562499999999,0,0,0.00976562499999999,48.00781249999995,0)" xlink:href="#B"/><use transform="matrix(0.00976562499999999,0,0,0.00976562499999999,60.009765624999936,0)" xlink:href="#C"/><use transform="matrix(0.00976562499999999,0,0,0.00976562499999999,72.01171874999993,0)" xlink:href="#D"/><use transform="matrix(0.00976562499999999,0,0,0.00976562499999999,84.01367187499991,0)" xlink:href="#E"/><use transform="matrix(0.00976562499999999,0,0,0.00976562499999999,96.0156249999999,0)" xlink:href="#F"/><use transform="matrix(0.00976562499999999,0,0,0.00976562499999999,108.01757812499989,0)" xlink:href="#G"/><use transform="matrix(0.00976562499999999,0,0,0.00976562499999999,120.01953124999987,0)" xlink:href="#H"/><use transform="matrix(0.00976562499999999,0,0,0.00976562499999999,132.02148437499986,0)" xlink:href="#G"/><use transform="matrix(0.00976562499999999,0,0,0.00976562499999999,144.02343749999986,0)" xlink:href="#E"/><use transform="matrix(0.00976562499999999,0,0,0.00976562499999999,156.02539062499986,0)" xlink:href="#I"/><use transform="matrix(0.00976562499999999,0,0,0.00976562499999999,168.02734374999986,0)" xlink:href="#B"/><use transform="matrix(0.00976562499999999,0,0,0.00976562499999999,180.02929687499983,0)" xlink:href="#G"/><use transform="matrix(0.00976562499999999,0,0,0.00976562499999999,192.03124999999986,0)" xlink:href="#M"/><use transform="matrix(0.00976562499999999,0,0,0.00976562499999999,204.03320312499986,0)" xlink:href="#H"/><use transform="matrix(0.00976562499999999,0,0,0.00976562499999999,216.03515624999983,0)" xlink:href="#E"/><use transform="matrix(0.00976562499999999,0,0,0.00976562499999999,228.03710937499986,0)" xlink:href="#aa"/><use transform="matrix(0.00976562499999999,0,0,0.00976562499999999,240.03906249999986,0)" xlink:href="#aa"/><use transform="matrix(0.00976562499999999,0,0,0.00976562499999999,252.0410156249999,0)" xlink:href="#X"/><use transform="matrix(0.00976562499999999,0,0,0.00976562499999999,264.04296874999983,0)" xlink:href="#Z"/></g><g id="i"><use transform="matrix(0.00976562499999999,0,0,0.00976562499999999,0,0)" xlink:href="#B"/><use transform="matrix(0.00976562499999999,0,0,0.00976562499999999,12.001953124999988,0)" xlink:href="#C"/><use transform="matrix(0.00976562499999999,0,0,0.00976562499999999,24.003906249999975,0)" xlink:href="#D"/><use transform="matrix(0.00976562499999999,0,0,0.00976562499999999,36.005859374999964,0)" xlink:href="#E"/><use transform="matrix(0.00976562499999999,0,0,0.00976562499999999,48.00781249999995,0)" xlink:href="#F"/><use transform="matrix(0.00976562499999999,0,0,0.00976562499999999,60.009765624999936,0)" xlink:href="#G"/><use transform="matrix(0.00976562499999999,0,0,0.00976562499999999,72.01171874999993,0)" xlink:href="#H"/><use transform="matrix(0.00976562499999999,0,0,0.00976562499999999,84.01367187499991,0)" xlink:href="#G"/><use transform="matrix(0.00976562499999999,0,0,0.00976562499999999,96.0156249999999,0)" xlink:href="#E"/><use transform="matrix(0.00976562499999999,0,0,0.00976562499999999,108.01757812499989,0)" xlink:href="#I"/><use transform="matrix(0.00976562499999999,0,0,0.00976562499999999,120.01953124999987,0)" xlink:href="#B"/><use transform="matrix(0.00976562499999999,0,0,0.00976562499999999,132.02148437499986,0)" xlink:href="#G"/><use transform="matrix(0.00976562499999999,0,0,0.00976562499999999,144.02343749999986,0)" xlink:href="#M"/><use transform="matrix(0.00976562499999999,0,0,0.00976562499999999,156.02539062499986,0)" xlink:href="#H"/><use transform="matrix(0.00976562499999999,0,0,0.00976562499999999,168.02734374999986,0)" xlink:href="#E"/><use transform="matrix(0.00976562499999999,0,0,0.00976562499999999,180.02929687499983,0)" xlink:href="#W"/><use transform="matrix(0.00976562499999999,0,0,0.00976562499999999,192.03124999999986,0)" xlink:href="#Y"/><use transform="matrix(0.00976562499999999,0,0,0.00976562499999999,204.03320312499986,0)" xlink:href="#X"/></g><path fill="#333" d="M864 0L575-490l-121 84V0H173v-1484h281v850l386-448h302L762-660 1171 0H864" id="ab"/><g id="j"><use transform="matrix(0.009765624999999991,0,0,0.009765624999999991,0,0)" xlink:href="#ab"/><use transform="matrix(0.009765624999999991,0,0,0.009765624999999991,12.00195312499999,0)" xlink:href="#C"/><use transform="matrix(0.009765624999999991,0,0,0.009765624999999991,24.00390624999998,0)" xlink:href="#O"/><use transform="matrix(0.009765624999999991,0,0,0.009765624999999991,36.00585937499997,0)" xlink:href="#K"/></g><path fill="#333" d="M621-530c0 421 127 700 301 955H641C466 173 344-110 344-531s122-702 297-953h281c-174 254-301 534-301 954" id="ac"/><g id="k"><use transform="matrix(0.009765624999999991,0,0,0.009765624999999991,0,0)" xlink:href="#ac"/><use transform="matrix(0.009765624999999991,0,0,0.009765624999999991,12.00195312499999,0)" xlink:href="#B"/><use transform="matrix(0.009765624999999991,0,0,0.009765624999999991,24.00390624999998,0)" xlink:href="#C"/><use transform="matrix(0.009765624999999991,0,0,0.009765624999999991,36.00585937499997,0)" xlink:href="#D"/><use transform="matrix(0.009765624999999991,0,0,0.009765624999999991,48.00781249999996,0)" xlink:href="#L"/><use transform="matrix(0.009765624999999991,0,0,0.009765624999999991,60.00976562499994,0)" xlink:href="#H"/><use transform="matrix(0.009765624999999991,0,0,0.009765624999999991,72.01171874999993,0)" xlink:href="#C"/></g><g id="l"><use transform="matrix(0.009765624999999991,0,0,0.009765624999999991,0,0)" xlink:href="#F"/><use transform="matrix(0.009765624999999991,0,0,0.009765624999999991,12.00195312499999,0)" xlink:href="#G"/><use transform="matrix(0.009765624999999991,0,0,0.009765624999999991,24.00390624999998,0)" xlink:href="#H"/><use transform="matrix(0.009765624999999991,0,0,0.009765624999999991,36.00585937499997,0)" xlink:href="#G"/></g><path fill="#333" d="M885-531c0 421-122 704-297 956H307c174-255 301-534 301-955 0-420-127-700-301-954h281c175 251 297 532 297 953" id="ad"/><g id="m"><use transform="matrix(0.009765624999999991,0,0,0.009765624999999991,0,0)" xlink:href="#B"/><use transform="matrix(0.009765624999999991,0,0,0.009765624999999991,12.00195312499999,0)" xlink:href="#C"/><use transform="matrix(0.009765624999999991,0,0,0.009765624999999991,24.00390624999998,0)" xlink:href="#I"/><use transform="matrix(0.009765624999999991,0,0,0.009765624999999991,36.00585937499997,0)" xlink:href="#J"/><use transform="matrix(0.009765624999999991,0,0,0.009765624999999991,48.00781249999996,0)" xlink:href="#K"/><use transform="matrix(0.009765624999999991,0,0,0.009765624999999991,60.00976562499994,0)" xlink:href="#H"/><use transform="matrix(0.009765624999999991,0,0,0.009765624999999991,72.01171874999993,0)" xlink:href="#B"/><use transform="matrix(0.009765624999999991,0,0,0.009765624999999991,84.0136718749999,0)" xlink:href="#G"/><use transform="matrix(0.009765624999999991,0,0,0.009765624999999991,96.0156249999999,0)" xlink:href="#H"/><use transform="matrix(0.009765624999999991,0,0,0.009765624999999991,108.01757812499989,0)" xlink:href="#J"/><use transform="matrix(0.009765624999999991,0,0,0.009765624999999991,120.01953124999987,0)" xlink:href="#L"/><use transform="matrix(0.009765624999999991,0,0,0.009765624999999991,132.02148437499986,0)" xlink:href="#M"/><use transform="matrix(0.009765624999999991,0,0,0.009765624999999991,144.02343749999986,0)" xlink:href="#K"/><use transform="matrix(0.009765624999999991,0,0,0.009765624999999991,156.02539062499986,0)" xlink:href="#ad"/></g><path fill="#333" d="M774 0H438L31-1082h297c94 290 200 568 280 872 83-304 194-581 291-872h294" id="ae"/><path fill="#333" d="M794-190h353V0H118v-190h395v-1104H223v-190h571v1294" id="af"/><g id="n"><use transform="matrix(0.009765624999999991,0,0,0.009765624999999991,0,0)" xlink:href="#ae"/><use transform="matrix(0.009765624999999991,0,0,0.009765624999999991,12.00195312499999,0)" xlink:href="#G"/><use transform="matrix(0.009765624999999991,0,0,0.009765624999999991,24.00390624999998,0)" xlink:href="#af"/><use transform="matrix(0.009765624999999991,0,0,0.009765624999999991,36.00585937499997,0)" xlink:href="#P"/><use transform="matrix(0.009765624999999991,0,0,0.009765624999999991,48.00781249999996,0)" xlink:href="#C"/><use transform="matrix(0.009765624999999991,0,0,0.009765624999999991,60.00976562499994,0)" xlink:href="#K"/></g><g id="o"><use transform="matrix(0.009765624999999991,0,0,0.009765624999999991,0,0)" xlink:href="#ac"/><use transform="matrix(0.009765624999999991,0,0,0.009765624999999991,12.00195312499999,0)" xlink:href="#G"/><use transform="matrix(0.009765624999999991,0,0,0.009765624999999991,24.00390624999998,0)" xlink:href="#B"/><use transform="matrix(0.009765624999999991,0,0,0.009765624999999991,36.00585937499997,0)" xlink:href="#B"/><use transform="matrix(0.009765624999999991,0,0,0.009765624999999991,48.00781249999996,0)" xlink:href="#G"/><use transform="matrix(0.009765624999999991,0,0,0.009765624999999991,60.00976562499994,0)" xlink:href="#O"/><use transform="matrix(0.009765624999999991,0,0,0.009765624999999991,72.01171874999993,0)" xlink:href="#K"/></g><g id="p"><use transform="matrix(0.009765624999999991,0,0,0.009765624999999991,0,0)" xlink:href="#L"/><use transform="matrix(0.009765624999999991,0,0,0.009765624999999991,12.00195312499999,0)" xlink:href="#V"/></g><g id="q"><use transform="matrix(0.009765624999999991,0,0,0.009765624999999991,0,0)" xlink:href="#B"/><use transform="matrix(0.009765624999999991,0,0,0.009765624999999991,12.00195312499999,0)" xlink:href="#C"/><use transform="matrix(0.009765624999999991,0,0,0.009765624999999991,24.00390624999998,0)" xlink:href="#D"/><use transform="matrix(0.009765624999999991,0,0,0.009765624999999991,36.00585937499997,0)" xlink:href="#L"/><use transform="matrix(0.009765624999999991,0,0,0.009765624999999991,48.00781249999996,0)" xlink:href="#H"/><use transform="matrix(0.009765624999999991,0,0,0.009765624999999991,60.00976562499994,0)" xlink:href="#C"/></g><g id="r"><use transform="matrix(0.009765624999999991,0,0,0.009765624999999991,0,0)" xlink:href="#F"/><use transform="matrix(0.009765624999999991,0,0,0.009765624999999991,12.00195312499999,0)" xlink:href="#G"/><use transform="matrix(0.009765624999999991,0,0,0.009765624999999991,24.00390624999998,0)" xlink:href="#H"/><use transform="matrix(0.009765624999999991,0,0,0.009765624999999991,36.00585937499997,0)" xlink:href="#G"/></g><g id="s"><use transform="matrix(0.009765624999999991,0,0,0.009765624999999991,0,0)" xlink:href="#I"/><use transform="matrix(0.009765624999999991,0,0,0.009765624999999991,12.00195312499999,0)" xlink:href="#B"/><use transform="matrix(0.009765624999999991,0,0,0.009765624999999991,24.00390624999998,0)" xlink:href="#G"/><use transform="matrix(0.009765624999999991,0,0,0.009765624999999991,36.00585937499997,0)" xlink:href="#M"/><use transform="matrix(0.009765624999999991,0,0,0.009765624999999991,48.00781249999996,0)" xlink:href="#H"/><use transform="matrix(0.009765624999999991,0,0,0.009765624999999991,60.00976562499994,0)" xlink:href="#K"/></g><path fill="#333" d="M89 20l821-1504h228L321 20H89" id="ag"/><use transform="matrix(0.009765624999999991,0,0,0.009765624999999991,0,0)" xlink:href="#ag" id="t"/><g id="u"><use transform="matrix(0.009765624999999991,0,0,0.009765624999999991,0,0)" xlink:href="#B"/><use transform="matrix(0.009765624999999991,0,0,0.009765624999999991,12.00195312499999,0)" xlink:href="#C"/><use transform="matrix(0.009765624999999991,0,0,0.009765624999999991,24.00390624999998,0)" xlink:href="#V"/></g><g id="v"><use transform="matrix(0.009765624999999991,0,0,0.009765624999999991,0,0)" xlink:href="#I"/><use transform="matrix(0.009765624999999991,0,0,0.009765624999999991,12.00195312499999,0)" xlink:href="#B"/><use transform="matrix(0.009765624999999991,0,0,0.009765624999999991,24.00390624999998,0)" xlink:href="#G"/><use transform="matrix(0.009765624999999991,0,0,0.009765624999999991,36.00585937499997,0)" xlink:href="#M"/><use transform="matrix(0.009765624999999991,0,0,0.009765624999999991,48.00781249999996,0)" xlink:href="#H"/><use transform="matrix(0.009765624999999991,0,0,0.009765624999999991,60.00976562499994,0)" xlink:href="#K"/><use transform="matrix(0.009765624999999991,0,0,0.009765624999999991,72.01171874999993,0)" xlink:href="#ad"/></g></defs></g></svg>