<svg xmlns="http://www.w3.org/2000/svg" xmlns:xlink="http://www.w3.org/1999/xlink" xmlns:lucid="lucid" width="1320" height="600"><g transform="translate(-340 -160)" lucid:page-tab-id="dIF7-0yngIqL"><path d="M360 240h1280v500H360zM360 180h1280v60H360z" stroke="#5e5e5e" stroke-width="3" fill="#fff"/><path d="M910 194.25h180v31.5H910z" stroke="#000" stroke-opacity="0" stroke-width="3" fill="#e5e5e5"/><use xlink:href="#a" transform="matrix(1,0,0,1,915,199.25) translate(12.988281250000043 21.32812499999999)"/><path d="M380 320h382.63v29.25H380z" stroke="#000" stroke-opacity="0" stroke-width="3" fill="#e5e5e5"/><use xlink:href="#b" transform="matrix(1,0,0,1,385,325) translate(84.48339843750007 15.996093749999982)"/><path d="M380 368.75h382.63V398H380z" stroke="#000" stroke-opacity="0" stroke-width="3" fill="#e5e5e5"/><use xlink:href="#c" transform="matrix(1,0,0,1,385,373.75) translate(90.48437500000007 15.996093749999982)"/><path d="M380 475h382.63v30.48H380z" stroke="#000" stroke-opacity="0" stroke-width="3" fill="#e5e5e5"/><use xlink:href="#d" transform="matrix(1,0,0,1,385,480) translate(30.474609375000085 15.996093749999982)"/><path d="M860 320h140v29.25H860z" stroke="#000" stroke-opacity="0" stroke-width="3" fill="#e5e5e5"/><use xlink:href="#e" transform="matrix(1,0,0,1,865,325) translate(0 15.996093749999982)"/><path d="M860 368.75h80V398h-80z" stroke="#000" stroke-opacity="0" stroke-width="3" fill="#e5e5e5"/><use xlink:href="#f" transform="matrix(1,0,0,1,865,373.74999999999994) translate(0 15.996093749999982)"/><path d="M379 245h350v70H379z" stroke="#000" stroke-opacity="0" stroke-width="3" fill="#fff"/><use xlink:href="#g" transform="matrix(1,0,0,1,384,250.00000000000003) translate(145.99609375000003 27.246093749999986)"/><use xlink:href="#h" transform="matrix(1,0,0,1,384,250.00000000000003) translate(7.973632812500142 47.24609374999997)"/><use xlink:href="#i" transform="matrix(1,0,0,1,384,250.00000000000003) translate(176.0009765625 47.24609374999997)"/><use xlink:href="#j" transform="matrix(1,0,0,1,384,250.00000000000003) translate(260.0146484374999 47.24609374999997)"/><path d="M800 244.1h760v70H800z" stroke="#000" stroke-opacity="0" stroke-width="3" fill="#fff"/><use xlink:href="#k" transform="matrix(1,0,0,1,805,249.11111111111111) translate(338.99414062500006 27.246093749999986)"/><use xlink:href="#l" transform="matrix(1,0,0,1,805,249.11111111111111) translate(44.946289062500284 47.24609374999997)"/><use xlink:href="#m" transform="matrix(1,0,0,1,805,249.11111111111111) translate(140.96191406250017 47.24609374999997)"/><use xlink:href="#n" transform="matrix(1,0,0,1,805,249.11111111111111) translate(176.96777343750017 47.24609374999997)"/><use xlink:href="#o" transform="matrix(1,0,0,1,805,249.11111111111111) translate(260.9814453125001 47.24609374999997)"/><use xlink:href="#p" transform="matrix(1,0,0,1,805,249.11111111111111) translate(320.99121093750006 47.24609374999997)"/><use xlink:href="#q" transform="matrix(1,0,0,1,805,249.11111111111111) translate(405.00488281249994 47.24609374999997)"/><use xlink:href="#r" transform="matrix(1,0,0,1,805,249.11111111111111) translate(429.00878906249994 47.24609374999997)"/><use xlink:href="#n" transform="matrix(1,0,0,1,805,249.11111111111111) translate(477.0166015624999 47.24609374999997)"/><use xlink:href="#o" transform="matrix(1,0,0,1,805,249.11111111111111) translate(561.0302734374998 47.24609374999997)"/><use xlink:href="#s" transform="matrix(1,0,0,1,805,249.11111111111111) translate(621.0400390624998 47.24609374999997)"/><path d="M763.63 334.54h77.87" stroke="#5e5e5e" stroke-width="2" fill="none"/><path d="M763.66 335.54h-1.03v-2h1.03z" fill="#5e5e5e"/><path d="M856.76 334.54l-14.26 4.64v-9.27z" stroke="#5e5e5e" stroke-width="2" fill="#5e5e5e"/><path d="M763.63 383.38h77.87" stroke="#5e5e5e" stroke-width="2" fill="none"/><path d="M763.66 384.38h-1.03v-2h1.03z" fill="#5e5e5e"/><path d="M856.76 383.37L842.5 388v-9.26z" stroke="#5e5e5e" stroke-width="2" fill="#5e5e5e"/><path d="M796.75 242.5l.95 498" stroke="#5e5e5e" stroke-width="2" fill="none"/><path d="M797.75 242.52h-2v-1.02h2zM798.7 741.5h-2v-1.02h2z" fill="#5e5e5e"/><path d="M381.37 620H764v30.48H381.37z" stroke="#000" stroke-opacity="0" stroke-width="3" fill="#e5e5e5"/><use xlink:href="#t" transform="matrix(1,0,0,1,386.3665480427046,625) translate(54.478515625000085 15.996093749999982)"/><path d="M860 427.5h740v125H860zM860 572.74h740v125H860z" stroke="#5e5e5e" stroke-width="3" fill="#fff"/><path d="M763.63 490.24H840" stroke="#5e5e5e" stroke-width="2" fill="none"/><path d="M763.66 491.24h-1.03v-2h1.03z" fill="#5e5e5e"/><path d="M855.26 490.24L841 494.88v-9.27z" stroke="#5e5e5e" stroke-width="2" fill="#5e5e5e"/><path d="M765 635.24h75" stroke="#5e5e5e" stroke-width="2" fill="none"/><path d="M765.03 636.24H764v-2h1.03z" fill="#5e5e5e"/><path d="M855.26 635.24L841 639.88v-9.27z" stroke="#5e5e5e" stroke-width="2" fill="#5e5e5e"/><path d="M882.98 440H1200v28.36H882.98z" stroke="#000" stroke-opacity="0" stroke-width="3" fill="#e5e5e5"/><use xlink:href="#u" transform="matrix(1,0,0,1,887.9848484848485,445) translate(0 15.996093749999982)"/><path d="M882.98 477.12H1200v25.76H882.98z" stroke="#000" stroke-opacity="0" stroke-width="3" fill="#e5e5e5"/><use xlink:href="#v" transform="matrix(1,0,0,1,887.9848484848485,482.1203947368422) translate(0 15.996093749999982)"/><path d="M882.98 514.24H1200V540H882.98z" stroke="#000" stroke-opacity="0" stroke-width="3" fill="#e5e5e5"/><use xlink:href="#w" transform="matrix(1,0,0,1,887.9848484848485,519.2407894736843) translate(0 15.996093749999982)"/><path d="M881.5 585.24H1260v28.36H881.5z" stroke="#000" stroke-opacity="0" stroke-width="3" fill="#e5e5e5"/><use xlink:href="#x" transform="matrix(1,0,0,1,886.5,590.2407894736842) translate(0 15.996093749999982)"/><path d="M881.5 622.36H1260v25.76H881.5z" stroke="#000" stroke-opacity="0" stroke-width="3" fill="#e5e5e5"/><use xlink:href="#y" transform="matrix(1,0,0,1,886.5,627.3611842105264) translate(0 15.996093749999982)"/><path d="M881.5 659.48H1260v25.76H881.5z" stroke="#000" stroke-opacity="0" stroke-width="3" fill="#e5e5e5"/><use xlink:href="#z" transform="matrix(1,0,0,1,886.5,664.4815789473686) translate(0 15.996093749999982)"/><path d="M1309 440h60v28.36h-60z" stroke="#000" stroke-opacity="0" stroke-width="3" fill="#e5e5e5"/><use xlink:href="#A" transform="matrix(1,0,0,1,1314,445) translate(0 15.996093749999982)"/><path d="M1308 477h172v28.36h-172z" stroke="#000" stroke-opacity="0" stroke-width="3" fill="#e5e5e5"/><use xlink:href="#B" transform="matrix(1,0,0,1,1313,482) translate(0 15.996093749999982)"/><use xlink:href="#C" transform="matrix(1,0,0,1,1313,482) translate(72.01171874999993 15.996093749999982)"/><path d="M1308 512.5h144v29.25h-144z" stroke="#000" stroke-opacity="0" stroke-width="3" fill="#e5e5e5"/><use xlink:href="#B" transform="matrix(1,0,0,1,1313,517.4953947368422) translate(0 15.996093749999982)"/><use xlink:href="#D" transform="matrix(1,0,0,1,1313,517.4953947368422) translate(72.01171874999993 15.996093749999982)"/><path d="M1328 585.24h144v29.25h-144z" stroke="#000" stroke-opacity="0" stroke-width="3" fill="#e5e5e5"/><use xlink:href="#B" transform="matrix(1,0,0,1,1333,590.2407894736842) translate(0 15.996093749999982)"/><use xlink:href="#D" transform="matrix(1,0,0,1,1333,590.2407894736842) translate(72.01171874999993 15.996093749999982)"/><path d="M1328 621.23h60V647h-60z" stroke="#000" stroke-opacity="0" stroke-width="3" fill="#e5e5e5"/><use xlink:href="#A" transform="matrix(1,0,0,1,1333,626.2315789473685) translate(0 15.996093749999982)"/><path d="M1328 659.48h260v25.76h-260z" stroke="#000" stroke-opacity="0" stroke-width="3" fill="#e5e5e5"/><use xlink:href="#B" transform="matrix(1,0,0,1,1333,664.4815789473685) translate(0 15.996093749999982)"/><use xlink:href="#E" transform="matrix(1,0,0,1,1333,664.4815789473685) translate(72.01171874999993 15.996093749999982)"/><use xlink:href="#F" transform="matrix(1,0,0,1,1333,664.4815789473685) translate(156.02539062499983 15.996093749999982)"/><path d="M1201 454.18h89.5" stroke="#5e5e5e" stroke-width="2" fill="none"/><path d="M1201.03 455.18H1200v-2h1.03z" fill="#5e5e5e"/><path d="M1305.76 454.18l-14.26 4.64v-9.27z" stroke="#5e5e5e" stroke-width="2" fill="#5e5e5e"/><path d="M1201 490h52.74c.15 0 .26-.1.26-.26 0-.14.1-.25.26-.25h35.24" stroke="#5e5e5e" stroke-width="2" fill="none"/><path d="M1201.03 491H1200v-2h1.03z" fill="#5e5e5e"/><path d="M1304.76 489.5l-14.26 4.62v-9.27z" stroke="#5e5e5e" stroke-width="2" fill="#5e5e5e"/><path d="M1201 527.12h88.5" stroke="#5e5e5e" stroke-width="2" fill="none"/><path d="M1201.03 528.12H1200v-2h1.03z" fill="#5e5e5e"/><path d="M1304.76 527.12l-14.26 4.64v-9.27z" stroke="#5e5e5e" stroke-width="2" fill="#5e5e5e"/><path d="M1261 599.42h48.5" stroke="#5e5e5e" stroke-width="2" fill="none"/><path d="M1261.03 600.42H1260v-2h1.03z" fill="#5e5e5e"/><path d="M1324.76 599.42l-14.26 4.64v-9.27z" stroke="#5e5e5e" stroke-width="2" fill="#5e5e5e"/><path d="M1261 635.24h48.5" stroke="#5e5e5e" stroke-width="2" fill="none"/><path d="M1261.03 636.24H1260v-2h1.03z" fill="#5e5e5e"/><path d="M1324.76 635.24l-14.26 4.64v-9.27z" stroke="#5e5e5e" stroke-width="2" fill="#5e5e5e"/><path d="M1261 672.36h48.5" stroke="#5e5e5e" stroke-width="2" fill="none"/><path d="M1261.03 673.36H1260v-2h1.03z" fill="#5e5e5e"/><path d="M1324.76 672.36L1310.5 677v-9.27z" stroke="#5e5e5e" stroke-width="2" fill="#5e5e5e"/><defs><path fill="#333" d="M609-1161c-125 0-218 36-218 153 0 149 166 161 290 196 235 67 484 129 484 421 0 300-239 408-554 411C302 23 93-114 38-367l285-37c32 128 131 205 296 203 143-2 259-31 259-173 0-164-197-172-333-212-218-64-441-131-441-405 0-276 231-379 511-379 299 0 463 114 513 363l-286 29c-28-115-96-183-233-183" id="G"/><path fill="#333" d="M872-915c-35-112-84-223-220-223-91 0-156 41-204 116-89 137-87 550 2 688 51 79 116 122 209 122 150 0 197-126 240-244l273 52C1094-168 961 20 656 20 239 20 80-262 80-681c0-418 154-689 568-689 289 0 425 167 496 389" id="H"/><path fill="#333" d="M615-1370c385 0 542 273 542 691 0 230-47 404-140 522S790 20 615 20C231 20 72-262 72-679c0-419 158-691 543-691zM797-330c77-133 78-564 0-695-44-73-101-113-182-113s-139 40-183 114c-79 133-78 560 0 694 45 77 102 118 183 118s138-41 182-118" id="I"/><path fill="#333" d="M616-1349c316 3 526 118 526 426 0 301-201 442-514 447H431V0H136v-1349h480zm-25 646c164 1 254-62 254-215 0-157-99-200-262-202H431v417h160" id="J"/><path fill="#333" d="M137 0v-1349h968v228H432v324h612v228H432v341h714V0H137" id="K"/><path fill="#333" d="M796 0v-574H433V0H138v-1349h295v531h363v-531h295V0H796" id="L"/><path fill="#333" d="M1229 0H935l-92-330H387L295 0H0l443-1349h344zM615-1167c-46 213-110 412-166 615h332c-56-204-119-401-166-615" id="M"/><g id="a"><use transform="matrix(0.013020833333333327,0,0,0.013020833333333327,0,0)" xlink:href="#G"/><use transform="matrix(0.013020833333333327,0,0,0.013020833333333327,16.002604166666657,0)" xlink:href="#H"/><use transform="matrix(0.013020833333333327,0,0,0.013020833333333327,32.005208333333314,0)" xlink:href="#I"/><use transform="matrix(0.013020833333333327,0,0,0.013020833333333327,48.00781249999997,0)" xlink:href="#J"/><use transform="matrix(0.013020833333333327,0,0,0.013020833333333327,64.01041666666663,0)" xlink:href="#K"/><use transform="matrix(0.013020833333333327,0,0,0.013020833333333327,80.01302083333329,0)" xlink:href="#L"/><use transform="matrix(0.013020833333333327,0,0,0.013020833333333327,96.01562499999994,0)" xlink:href="#M"/><use transform="matrix(0.013020833333333327,0,0,0.013020833333333327,112.01822916666661,0)" xlink:href="#G"/><use transform="matrix(0.013020833333333327,0,0,0.013020833333333327,128.02083333333326,0)" xlink:href="#L"/></g><path fill="#333" d="M794-190h353V0H118v-190h395v-702H223v-190h571v892zM513-1277v-207h281v207H513" id="N"/><path fill="#333" d="M768-1103c247 0 336 167 336 416V0H824v-619c-3-164-24-273-171-273-164 0-229 142-229 312V0H143c-4-359 9-736-8-1082h268c7 63 12 146 13 215h4c67-145 160-236 348-236" id="O"/><path fill="#333" d="M711 13c-250 0-386-99-385-349l2-556H161v-190h181l88-282h176v282h385v190H606v530c-10 130 45 186 174 184 91-2 176-11 255-27v186C933-1 833 13 711 13" id="P"/><path fill="#333" d="M1113-274C1038-96 884 20 626 20c-352 0-526-209-526-566 0-358 185-556 530-556 358 0 496 251 499 615H395c5 180 68 319 245 319 102 0 186-45 208-129zM857-663c-6-177-128-307-315-247-94 30-141 121-145 247h460" id="Q"/><path fill="#333" d="M875-1102c70 0 148 7 206 17v237c-110-17-267-37-359 15-123 69-192 207-192 395V0H250c-10-367 32-789-52-1082h271c19 69 36 149 46 228h4c52-151 151-250 356-248" id="R"/><path fill="#333" d="M616-1102c361 0 521 202 521 560 0 354-171 562-527 562C259 20 92-192 92-542c0-351 169-560 524-560zm-9 930c200-2 236-165 236-370 0-199-27-367-223-367-195 0-233 146-233 367 0 129 18 223 55 282s92 88 165 88" id="S"/><path fill="#333" d="M427-171c3 195 2 397 2 596H148V-846c1-83-4-168-8-236h272c10 49 14 118 15 176h4c59-114 151-197 316-197 291 0 385 259 385 560 0 243-65 433-220 521-50 28-109 42-176 42-162-2-253-78-309-191zm69-661c-91 113-92 463-1 586 46 62 145 101 225 54 96-57 118-191 119-351 0-123-18-215-53-276-46-82-128-115-220-74-25 12-48 33-70 61" id="T"/><path fill="#333" d="M470 0v-305h289V0H470zm0-780v-305h289v305H470" id="U"/><path fill="#333" d="M794-190h353V0H118v-190h395v-1104H223v-190h571v1294" id="V"/><path fill="#333" d="M1157-949c0 209-118 316-279 368L1227 0H895L605-515H432V0H137v-1349h494c317-2 526 111 526 400zM608-744c158 1 248-51 252-193 5-207-223-184-428-183v376h176" id="W"/><path fill="#333" d="M934-1102c199 0 220 177 220 381V0H926c-2-260 10-533-4-785-4-72-14-138-83-138-34 0-61 27-81 81s-29 134-29 241V0H501c-2-260 9-533-5-785-4-72-13-138-82-138-46 0-65 47-80 93-21 67-30 155-30 248V0H75c-3-360 6-732-6-1082h209c6 50 3 123 8 175 36-100 83-195 216-195 135 0 166 79 196 196 42-105 93-196 236-196" id="X"/><g id="b"><use transform="matrix(0.00976562499999999,0,0,0.00976562499999999,0,0)" xlink:href="#N"/><use transform="matrix(0.00976562499999999,0,0,0.00976562499999999,12.001953124999988,0)" xlink:href="#O"/><use transform="matrix(0.00976562499999999,0,0,0.00976562499999999,24.003906249999975,0)" xlink:href="#P"/><use transform="matrix(0.00976562499999999,0,0,0.00976562499999999,36.005859374999964,0)" xlink:href="#Q"/><use transform="matrix(0.00976562499999999,0,0,0.00976562499999999,48.00781249999995,0)" xlink:href="#R"/><use transform="matrix(0.00976562499999999,0,0,0.00976562499999999,60.009765624999936,0)" xlink:href="#S"/><use transform="matrix(0.00976562499999999,0,0,0.00976562499999999,72.01171874999993,0)" xlink:href="#T"/><use transform="matrix(0.00976562499999999,0,0,0.00976562499999999,84.01367187499991,0)" xlink:href="#U"/><use transform="matrix(0.00976562499999999,0,0,0.00976562499999999,96.0156249999999,0)" xlink:href="#M"/><use transform="matrix(0.00976562499999999,0,0,0.00976562499999999,108.01757812499989,0)" xlink:href="#V"/><use transform="matrix(0.00976562499999999,0,0,0.00976562499999999,120.01953124999987,0)" xlink:href="#V"/><use transform="matrix(0.00976562499999999,0,0,0.00976562499999999,132.02148437499986,0)" xlink:href="#W"/><use transform="matrix(0.00976562499999999,0,0,0.00976562499999999,144.02343749999986,0)" xlink:href="#Q"/><use transform="matrix(0.00976562499999999,0,0,0.00976562499999999,156.02539062499986,0)" xlink:href="#X"/><use transform="matrix(0.00976562499999999,0,0,0.00976562499999999,168.02734374999986,0)" xlink:href="#S"/><use transform="matrix(0.00976562499999999,0,0,0.00976562499999999,180.02929687499983,0)" xlink:href="#P"/><use transform="matrix(0.00976562499999999,0,0,0.00976562499999999,192.03124999999986,0)" xlink:href="#Q"/></g><path fill="#333" d="M865-312c-44-312-23-686-28-1037h257V0H748L364-1010c44 304 24 668 28 1010H135v-1349h337" id="Y"/><path fill="#333" d="M1109-360C1066-122 902 20 624 20c-347 0-514-209-514-555 0-353 168-567 518-567 270 0 425 136 473 361l-283 14c-16-106-75-183-196-182-75 0-130 31-165 93s-52 152-52 270c0 249 74 374 221 374 120 0 188-82 201-201" id="Z"/><path fill="#333" d="M622-916c-112 2-200 14-200 111 0 90 89 101 168 121 234 58 514 77 514 368C1104-4 751 54 434 5 267-21 161-112 121-270l247-37c24 111 113 145 252 141 114-3 226-12 226-124 0-101-103-113-192-134-225-54-490-76-490-351 0-247 201-328 458-328 245 0 413 88 457 292l-249 26c-16-98-92-133-208-131" id="aa"/><g id="c"><use transform="matrix(0.00976562499999999,0,0,0.00976562499999999,0,0)" xlink:href="#N"/><use transform="matrix(0.00976562499999999,0,0,0.00976562499999999,12.001953124999988,0)" xlink:href="#O"/><use transform="matrix(0.00976562499999999,0,0,0.00976562499999999,24.003906249999975,0)" xlink:href="#P"/><use transform="matrix(0.00976562499999999,0,0,0.00976562499999999,36.005859374999964,0)" xlink:href="#Q"/><use transform="matrix(0.00976562499999999,0,0,0.00976562499999999,48.00781249999995,0)" xlink:href="#R"/><use transform="matrix(0.00976562499999999,0,0,0.00976562499999999,60.009765624999936,0)" xlink:href="#S"/><use transform="matrix(0.00976562499999999,0,0,0.00976562499999999,72.01171874999993,0)" xlink:href="#T"/><use transform="matrix(0.00976562499999999,0,0,0.00976562499999999,84.01367187499991,0)" xlink:href="#U"/><use transform="matrix(0.00976562499999999,0,0,0.00976562499999999,96.0156249999999,0)" xlink:href="#Y"/><use transform="matrix(0.00976562499999999,0,0,0.00976562499999999,108.01757812499989,0)" xlink:href="#S"/><use transform="matrix(0.00976562499999999,0,0,0.00976562499999999,120.01953124999987,0)" xlink:href="#M"/><use transform="matrix(0.00976562499999999,0,0,0.00976562499999999,132.02148437499986,0)" xlink:href="#Z"/><use transform="matrix(0.00976562499999999,0,0,0.00976562499999999,144.02343749999986,0)" xlink:href="#Z"/><use transform="matrix(0.00976562499999999,0,0,0.00976562499999999,156.02539062499986,0)" xlink:href="#Q"/><use transform="matrix(0.00976562499999999,0,0,0.00976562499999999,168.02734374999986,0)" xlink:href="#aa"/><use transform="matrix(0.00976562499999999,0,0,0.00976562499999999,180.02929687499983,0)" xlink:href="#aa"/></g><path fill="#333" d="M462-1121v384h621v228H462V0H167v-1349h939v228H462" id="ab"/><path fill="#333" d="M1108-33c-3 314-178 467-492 467-243 0-400-94-447-291l281-33c17 79 82 141 174 141 176 0 212-155 205-347-2-40 5-80 0-115C773-85 665-12 501-12c-288 0-377-242-377-538 0-242 65-426 223-510 50-26 108-39 175-39 160 0 253 78 307 191h5c1-58 5-125 14-174h266c-12 335-3 703-6 1049zM811-384c25-82 27-259 1-342-30-99-77-180-190-180-172 0-205 171-205 356 0 116 18 202 54 258 48 76 129 107 221 70 62-25 96-86 119-162" id="ac"/><g id="d"><use transform="matrix(0.00976562499999999,0,0,0.00976562499999999,0,0)" xlink:href="#N"/><use transform="matrix(0.00976562499999999,0,0,0.00976562499999999,12.001953124999988,0)" xlink:href="#O"/><use transform="matrix(0.00976562499999999,0,0,0.00976562499999999,24.003906249999975,0)" xlink:href="#P"/><use transform="matrix(0.00976562499999999,0,0,0.00976562499999999,36.005859374999964,0)" xlink:href="#Q"/><use transform="matrix(0.00976562499999999,0,0,0.00976562499999999,48.00781249999995,0)" xlink:href="#R"/><use transform="matrix(0.00976562499999999,0,0,0.00976562499999999,60.009765624999936,0)" xlink:href="#S"/><use transform="matrix(0.00976562499999999,0,0,0.00976562499999999,72.01171874999993,0)" xlink:href="#T"/><use transform="matrix(0.00976562499999999,0,0,0.00976562499999999,84.01367187499991,0)" xlink:href="#U"/><use transform="matrix(0.00976562499999999,0,0,0.00976562499999999,96.0156249999999,0)" xlink:href="#M"/><use transform="matrix(0.00976562499999999,0,0,0.00976562499999999,108.01757812499989,0)" xlink:href="#V"/><use transform="matrix(0.00976562499999999,0,0,0.00976562499999999,120.01953124999987,0)" xlink:href="#V"/><use transform="matrix(0.00976562499999999,0,0,0.00976562499999999,132.02148437499986,0)" xlink:href="#W"/><use transform="matrix(0.00976562499999999,0,0,0.00976562499999999,144.02343749999986,0)" xlink:href="#Q"/><use transform="matrix(0.00976562499999999,0,0,0.00976562499999999,156.02539062499986,0)" xlink:href="#X"/><use transform="matrix(0.00976562499999999,0,0,0.00976562499999999,168.02734374999986,0)" xlink:href="#S"/><use transform="matrix(0.00976562499999999,0,0,0.00976562499999999,180.02929687499983,0)" xlink:href="#P"/><use transform="matrix(0.00976562499999999,0,0,0.00976562499999999,192.03124999999986,0)" xlink:href="#Q"/><use transform="matrix(0.00976562499999999,0,0,0.00976562499999999,204.03320312499986,0)" xlink:href="#ab"/><use transform="matrix(0.00976562499999999,0,0,0.00976562499999999,216.03515624999983,0)" xlink:href="#R"/><use transform="matrix(0.00976562499999999,0,0,0.00976562499999999,228.03710937499986,0)" xlink:href="#S"/><use transform="matrix(0.00976562499999999,0,0,0.00976562499999999,240.03906249999986,0)" xlink:href="#X"/><use transform="matrix(0.00976562499999999,0,0,0.00976562499999999,252.0410156249999,0)" xlink:href="#M"/><use transform="matrix(0.00976562499999999,0,0,0.00976562499999999,264.04296874999983,0)" xlink:href="#ac"/><use transform="matrix(0.00976562499999999,0,0,0.00976562499999999,276.04492187499983,0)" xlink:href="#Q"/><use transform="matrix(0.00976562499999999,0,0,0.00976562499999999,288.04687499999983,0)" xlink:href="#O"/><use transform="matrix(0.00976562499999999,0,0,0.00976562499999999,300.04882812499983,0)" xlink:href="#P"/></g><path fill="#333" d="M775-193C708-75 621 20 439 20 226 20 106-93 106-306c0-251 170-341 417-346l223-4c4-143-12-264-148-264-103 0-141 58-150 153l-293-14c37-219 194-321 455-321 263 0 418 130 417 390v392c1 84 5 161 89 160 21 0 42-2 62-6v152c-57 15-108 27-180 26-145 0-202-73-217-205h-6zm-256 17c168 0 234-139 227-325-166 4-347-25-347 173 0 94 33 152 120 152" id="ad"/><path fill="#333" d="M802-909c-3-189-2-383-2-575h281v1248c-1 83 4 168 8 236H817c-9-50-14-117-15-176h-4C735-49 651 20 482 20 191 20 97-238 97-539c0-243 66-432 221-519 50-28 108-42 175-42 162 2 253 78 309 191zm-70 658c91-113 93-462 2-584-46-61-145-100-224-53-96 56-119 190-120 349 0 123 17 214 52 275 46 82 130 115 222 74 25-12 46-33 68-61" id="ae"/><path fill="#333" d="M258 363l169-662h315L431 363H258" id="af"/><path fill="#333" d="M1028 0H784c-56-191-119-378-170-573C562-377 495-191 437 0H194L11-1082h228c32 239 67 472 95 714 4 40 7 80 7 119 53-195 119-378 177-568h193c56 190 120 371 169 568-1-79 11-158 21-226l91-607h226" id="ag"/><g id="e"><use transform="matrix(0.00976562499999999,0,0,0.00976562499999999,0,0)" xlink:href="#R"/><use transform="matrix(0.00976562499999999,0,0,0.00976562499999999,12.001953124999988,0)" xlink:href="#Q"/><use transform="matrix(0.00976562499999999,0,0,0.00976562499999999,24.003906249999975,0)" xlink:href="#ad"/><use transform="matrix(0.00976562499999999,0,0,0.00976562499999999,36.005859374999964,0)" xlink:href="#ae"/><use transform="matrix(0.00976562499999999,0,0,0.00976562499999999,48.00781249999995,0)" xlink:href="#af"/><use transform="matrix(0.00976562499999999,0,0,0.00976562499999999,60.009765624999936,0)" xlink:href="#ag"/><use transform="matrix(0.00976562499999999,0,0,0.00976562499999999,72.01171874999993,0)" xlink:href="#R"/><use transform="matrix(0.00976562499999999,0,0,0.00976562499999999,84.01367187499991,0)" xlink:href="#N"/><use transform="matrix(0.00976562499999999,0,0,0.00976562499999999,96.0156249999999,0)" xlink:href="#P"/><use transform="matrix(0.00976562499999999,0,0,0.00976562499999999,108.01757812499989,0)" xlink:href="#Q"/></g><path fill="#333" d="M844-1321c-130 0-195 53-191 182v57h443v190H653V0H373v-892H117v-190h256v-83c5-247 162-348 422-349 120-1 232 13 327 28v184c-84-10-183-19-278-19" id="ah"/><g id="f"><use transform="matrix(0.00976562499999999,0,0,0.00976562499999999,0,0)" xlink:href="#ah"/><use transform="matrix(0.00976562499999999,0,0,0.00976562499999999,12.001953124999988,0)" xlink:href="#ad"/><use transform="matrix(0.00976562499999999,0,0,0.00976562499999999,24.003906249999975,0)" xlink:href="#V"/><use transform="matrix(0.00976562499999999,0,0,0.00976562499999999,36.005859374999964,0)" xlink:href="#aa"/><use transform="matrix(0.00976562499999999,0,0,0.00976562499999999,48.00781249999995,0)" xlink:href="#Q"/></g><path fill="#333" d="M864 0L575-490l-121 84V0H173v-1484h281v850l386-448h302L762-660 1171 0H864" id="ai"/><path fill="#333" d="M143 212c82 12 185 12 233-31 50-45 83-117 110-192L38-1082h297c100 284 211 557 291 861 72-305 176-578 270-861h294L742 57c-80 192-156 368-417 368-60 0-131-4-182-13V212" id="aj"/><g id="g"><use transform="matrix(0.009765624999999991,0,0,0.009765624999999991,0,0)" xlink:href="#ai"/><use transform="matrix(0.009765624999999991,0,0,0.009765624999999991,12.00195312499999,0)" xlink:href="#Q"/><use transform="matrix(0.009765624999999991,0,0,0.009765624999999991,24.00390624999998,0)" xlink:href="#aj"/><use transform="matrix(0.009765624999999991,0,0,0.009765624999999991,36.00585937499997,0)" xlink:href="#aa"/></g><path fill="#333" d="M621-530c0 421 127 700 301 955H641C466 173 344-110 344-531s122-702 297-953h281c-174 254-301 534-301 954" id="ak"/><path fill="#333" d="M650-216c90 0 157-35 208-74v-235H584v-218h544v558C1004-84 858 20 635 20 235 20 80-276 80-681c0-416 146-689 558-689 277 0 398 160 462 375l-274 54c-31-108-73-197-185-197-231 0-262 217-262 457 0 149 22 263 67 344s113 121 204 121" id="al"/><g id="h"><use transform="matrix(0.009765624999999991,0,0,0.009765624999999991,0,0)" xlink:href="#ak"/><use transform="matrix(0.009765624999999991,0,0,0.009765624999999991,12.00195312499999,0)" xlink:href="#aa"/><use transform="matrix(0.009765624999999991,0,0,0.009765624999999991,24.00390624999998,0)" xlink:href="#Z"/><use transform="matrix(0.009765624999999991,0,0,0.009765624999999991,36.00585937499997,0)" xlink:href="#S"/><use transform="matrix(0.009765624999999991,0,0,0.009765624999999991,48.00781249999996,0)" xlink:href="#T"/><use transform="matrix(0.009765624999999991,0,0,0.009765624999999991,60.00976562499994,0)" xlink:href="#Q"/><use transform="matrix(0.009765624999999991,0,0,0.009765624999999991,72.01171874999993,0)" xlink:href="#I"/><use transform="matrix(0.009765624999999991,0,0,0.009765624999999991,84.0136718749999,0)" xlink:href="#ah"/><use transform="matrix(0.009765624999999991,0,0,0.009765624999999991,96.0156249999999,0)" xlink:href="#al"/><use transform="matrix(0.009765624999999991,0,0,0.009765624999999991,108.01757812499989,0)" xlink:href="#R"/><use transform="matrix(0.009765624999999991,0,0,0.009765624999999991,120.01953124999987,0)" xlink:href="#ad"/><use transform="matrix(0.009765624999999991,0,0,0.009765624999999991,132.02148437499986,0)" xlink:href="#O"/><use transform="matrix(0.009765624999999991,0,0,0.009765624999999991,144.02343749999986,0)" xlink:href="#P"/></g><g id="i"><use transform="matrix(0.009765624999999991,0,0,0.009765624999999991,0,0)" xlink:href="#R"/><use transform="matrix(0.009765624999999991,0,0,0.009765624999999991,12.00195312499999,0)" xlink:href="#Q"/><use transform="matrix(0.009765624999999991,0,0,0.009765624999999991,24.00390624999998,0)" xlink:href="#X"/><use transform="matrix(0.009765624999999991,0,0,0.009765624999999991,36.00585937499997,0)" xlink:href="#S"/><use transform="matrix(0.009765624999999991,0,0,0.009765624999999991,48.00781249999996,0)" xlink:href="#P"/><use transform="matrix(0.009765624999999991,0,0,0.009765624999999991,60.00976562499994,0)" xlink:href="#Q"/></g><path fill="#333" d="M885-531c0 421-122 704-297 956H307c174-255 301-534 301-955 0-420-127-700-301-954h281c175 251 297 532 297 953" id="am"/><g id="j"><use transform="matrix(0.009765624999999991,0,0,0.009765624999999991,0,0)" xlink:href="#P"/><use transform="matrix(0.009765624999999991,0,0,0.009765624999999991,12.00195312499999,0)" xlink:href="#aj"/><use transform="matrix(0.009765624999999991,0,0,0.009765624999999991,24.00390624999998,0)" xlink:href="#T"/><use transform="matrix(0.009765624999999991,0,0,0.009765624999999991,36.00585937499997,0)" xlink:href="#Q"/><use transform="matrix(0.009765624999999991,0,0,0.009765624999999991,48.00781249999996,0)" xlink:href="#aa"/><use transform="matrix(0.009765624999999991,0,0,0.009765624999999991,60.00976562499994,0)" xlink:href="#am"/></g><path fill="#333" d="M774 0H438L31-1082h297c94 290 200 568 280 872 83-304 194-581 291-872h294" id="an"/><path fill="#333" d="M471 20c-247 0-336-169-336-415v-687h281v607c4 148 31 285 172 285 152 0 207-150 207-312v-580h281c4 359-9 736 8 1082H816c-7-63-11-146-12-215h-5C736-76 644 20 471 20" id="ao"/><g id="k"><use transform="matrix(0.009765624999999991,0,0,0.009765624999999991,0,0)" xlink:href="#an"/><use transform="matrix(0.009765624999999991,0,0,0.009765624999999991,12.00195312499999,0)" xlink:href="#ad"/><use transform="matrix(0.009765624999999991,0,0,0.009765624999999991,24.00390624999998,0)" xlink:href="#V"/><use transform="matrix(0.009765624999999991,0,0,0.009765624999999991,36.00585937499997,0)" xlink:href="#ao"/><use transform="matrix(0.009765624999999991,0,0,0.009765624999999991,48.00781249999996,0)" xlink:href="#Q"/><use transform="matrix(0.009765624999999991,0,0,0.009765624999999991,60.00976562499994,0)" xlink:href="#aa"/></g><g id="l"><use transform="matrix(0.009765624999999991,0,0,0.009765624999999991,0,0)" xlink:href="#ak"/><use transform="matrix(0.009765624999999991,0,0,0.009765624999999991,12.00195312499999,0)" xlink:href="#ad"/><use transform="matrix(0.009765624999999991,0,0,0.009765624999999991,24.00390624999998,0)" xlink:href="#R"/><use transform="matrix(0.009765624999999991,0,0,0.009765624999999991,36.00585937499997,0)" xlink:href="#R"/><use transform="matrix(0.009765624999999991,0,0,0.009765624999999991,48.00781249999996,0)" xlink:href="#ad"/><use transform="matrix(0.009765624999999991,0,0,0.009765624999999991,60.00976562499994,0)" xlink:href="#aj"/><use transform="matrix(0.009765624999999991,0,0,0.009765624999999991,72.01171874999993,0)" xlink:href="#aa"/></g><g id="m"><use transform="matrix(0.009765624999999991,0,0,0.009765624999999991,0,0)" xlink:href="#S"/><use transform="matrix(0.009765624999999991,0,0,0.009765624999999991,12.00195312499999,0)" xlink:href="#ah"/></g><g id="n"><use transform="matrix(0.009765624999999991,0,0,0.009765624999999991,0,0)" xlink:href="#R"/><use transform="matrix(0.009765624999999991,0,0,0.009765624999999991,12.00195312499999,0)" xlink:href="#Q"/><use transform="matrix(0.009765624999999991,0,0,0.009765624999999991,24.00390624999998,0)" xlink:href="#X"/><use transform="matrix(0.009765624999999991,0,0,0.009765624999999991,36.00585937499997,0)" xlink:href="#S"/><use transform="matrix(0.009765624999999991,0,0,0.009765624999999991,48.00781249999996,0)" xlink:href="#P"/><use transform="matrix(0.009765624999999991,0,0,0.009765624999999991,60.00976562499994,0)" xlink:href="#Q"/></g><g id="o"><use transform="matrix(0.009765624999999991,0,0,0.009765624999999991,0,0)" xlink:href="#ae"/><use transform="matrix(0.009765624999999991,0,0,0.009765624999999991,12.00195312499999,0)" xlink:href="#ad"/><use transform="matrix(0.009765624999999991,0,0,0.009765624999999991,24.00390624999998,0)" xlink:href="#P"/><use transform="matrix(0.009765624999999991,0,0,0.009765624999999991,36.00585937499997,0)" xlink:href="#ad"/></g><g id="p"><use transform="matrix(0.009765624999999991,0,0,0.009765624999999991,0,0)" xlink:href="#ac"/><use transform="matrix(0.009765624999999991,0,0,0.009765624999999991,12.00195312499999,0)" xlink:href="#R"/><use transform="matrix(0.009765624999999991,0,0,0.009765624999999991,24.00390624999998,0)" xlink:href="#ad"/><use transform="matrix(0.009765624999999991,0,0,0.009765624999999991,36.00585937499997,0)" xlink:href="#O"/><use transform="matrix(0.009765624999999991,0,0,0.009765624999999991,48.00781249999996,0)" xlink:href="#P"/><use transform="matrix(0.009765624999999991,0,0,0.009765624999999991,60.00976562499994,0)" xlink:href="#aa"/></g><path fill="#333" d="M89 20l821-1504h228L321 20H89" id="ap"/><use transform="matrix(0.009765624999999991,0,0,0.009765624999999991,0,0)" xlink:href="#ap" id="q"/><g id="r"><use transform="matrix(0.009765624999999991,0,0,0.009765624999999991,0,0)" xlink:href="#R"/><use transform="matrix(0.009765624999999991,0,0,0.009765624999999991,12.00195312499999,0)" xlink:href="#Q"/><use transform="matrix(0.009765624999999991,0,0,0.009765624999999991,24.00390624999998,0)" xlink:href="#ah"/></g><g id="s"><use transform="matrix(0.009765624999999991,0,0,0.009765624999999991,0,0)" xlink:href="#ac"/><use transform="matrix(0.009765624999999991,0,0,0.009765624999999991,12.00195312499999,0)" xlink:href="#R"/><use transform="matrix(0.009765624999999991,0,0,0.009765624999999991,24.00390624999998,0)" xlink:href="#ad"/><use transform="matrix(0.009765624999999991,0,0,0.009765624999999991,36.00585937499997,0)" xlink:href="#O"/><use transform="matrix(0.009765624999999991,0,0,0.009765624999999991,48.00781249999996,0)" xlink:href="#P"/><use transform="matrix(0.009765624999999991,0,0,0.009765624999999991,60.00976562499994,0)" xlink:href="#aa"/><use transform="matrix(0.009765624999999991,0,0,0.009765624999999991,72.01171874999993,0)" xlink:href="#am"/></g><g id="t"><use transform="matrix(0.00976562499999999,0,0,0.00976562499999999,0,0)" xlink:href="#N"/><use transform="matrix(0.00976562499999999,0,0,0.00976562499999999,12.001953124999988,0)" xlink:href="#O"/><use transform="matrix(0.00976562499999999,0,0,0.00976562499999999,24.003906249999975,0)" xlink:href="#P"/><use transform="matrix(0.00976562499999999,0,0,0.00976562499999999,36.005859374999964,0)" xlink:href="#Q"/><use transform="matrix(0.00976562499999999,0,0,0.00976562499999999,48.00781249999995,0)" xlink:href="#R"/><use transform="matrix(0.00976562499999999,0,0,0.00976562499999999,60.009765624999936,0)" xlink:href="#S"/><use transform="matrix(0.00976562499999999,0,0,0.00976562499999999,72.01171874999993,0)" xlink:href="#T"/><use transform="matrix(0.00976562499999999,0,0,0.00976562499999999,84.01367187499991,0)" xlink:href="#U"/><use transform="matrix(0.00976562499999999,0,0,0.00976562499999999,96.0156249999999,0)" xlink:href="#G"/><use transform="matrix(0.00976562499999999,0,0,0.00976562499999999,108.01757812499989,0)" xlink:href="#Q"/><use transform="matrix(0.00976562499999999,0,0,0.00976562499999999,120.01953124999987,0)" xlink:href="#V"/><use transform="matrix(0.00976562499999999,0,0,0.00976562499999999,132.02148437499986,0)" xlink:href="#Q"/><use transform="matrix(0.00976562499999999,0,0,0.00976562499999999,144.02343749999986,0)" xlink:href="#Z"/><use transform="matrix(0.00976562499999999,0,0,0.00976562499999999,156.02539062499986,0)" xlink:href="#P"/><use transform="matrix(0.00976562499999999,0,0,0.00976562499999999,168.02734374999986,0)" xlink:href="#Q"/><use transform="matrix(0.00976562499999999,0,0,0.00976562499999999,180.02929687499983,0)" xlink:href="#ae"/><use transform="matrix(0.00976562499999999,0,0,0.00976562499999999,192.03124999999986,0)" xlink:href="#W"/><use transform="matrix(0.00976562499999999,0,0,0.00976562499999999,204.03320312499986,0)" xlink:href="#Q"/><use transform="matrix(0.00976562499999999,0,0,0.00976562499999999,216.03515624999983,0)" xlink:href="#X"/><use transform="matrix(0.00976562499999999,0,0,0.00976562499999999,228.03710937499986,0)" xlink:href="#S"/><use transform="matrix(0.00976562499999999,0,0,0.00976562499999999,240.03906249999986,0)" xlink:href="#P"/><use transform="matrix(0.00976562499999999,0,0,0.00976562499999999,252.0410156249999,0)" xlink:href="#Q"/></g><path fill="#333" d="M324-409v-244h580v244H324" id="aq"/><path fill="#333" d="M117-675c0-408 109-695 502-695 384 0 492 295 492 695 0 326-84 561-303 658-117 51-277 52-394 1-217-95-297-335-297-659zm591 451c148-93 132-449 108-680-15-138-53-246-199-246-150 0-193 107-207 248-22 230-40 585 106 678 50 32 141 32 192 0zM506-555v-249h215v249H506" id="ar"/><path fill="#333" d="M138-1120c207-4 339-93 415-229h266v1140h323V0H149v-209h389v-891c-70 121-216 187-400 194v-214" id="as"/><path fill="#333" d="M114-913c0-304 185-457 492-457 163 0 287 55 372 166s128 280 128 507c-1 325-87 566-302 671-146 73-404 55-514-32-75-59-123-143-151-253l264-37c24 90 76 147 180 147 76 0 135-35 179-105s67-174 68-313c-55 100-162 160-311 160-269 0-405-180-405-454zm486 245c129 0 209-78 209-211 0-151-63-271-210-271-137 0-200 99-200 239 0 139 63 243 201 243" id="at"/><g id="u"><use transform="matrix(0.00976562499999999,0,0,0.00976562499999999,0,0)" xlink:href="#R"/><use transform="matrix(0.00976562499999999,0,0,0.00976562499999999,12.001953124999988,0)" xlink:href="#Q"/><use transform="matrix(0.00976562499999999,0,0,0.00976562499999999,24.003906249999975,0)" xlink:href="#X"/><use transform="matrix(0.00976562499999999,0,0,0.00976562499999999,36.005859374999964,0)" xlink:href="#S"/><use transform="matrix(0.00976562499999999,0,0,0.00976562499999999,48.00781249999995,0)" xlink:href="#P"/><use transform="matrix(0.00976562499999999,0,0,0.00976562499999999,60.009765624999936,0)" xlink:href="#Q"/><use transform="matrix(0.00976562499999999,0,0,0.00976562499999999,72.01171874999993,0)" xlink:href="#aq"/><use transform="matrix(0.00976562499999999,0,0,0.00976562499999999,84.01367187499991,0)" xlink:href="#ad"/><use transform="matrix(0.00976562499999999,0,0,0.00976562499999999,96.0156249999999,0)" xlink:href="#ac"/><use transform="matrix(0.00976562499999999,0,0,0.00976562499999999,108.01757812499989,0)" xlink:href="#Q"/><use transform="matrix(0.00976562499999999,0,0,0.00976562499999999,120.01953124999987,0)" xlink:href="#O"/><use transform="matrix(0.00976562499999999,0,0,0.00976562499999999,132.02148437499986,0)" xlink:href="#P"/><use transform="matrix(0.00976562499999999,0,0,0.00976562499999999,144.02343749999986,0)" xlink:href="#aq"/><use transform="matrix(0.00976562499999999,0,0,0.00976562499999999,156.02539062499986,0)" xlink:href="#ae"/><use transform="matrix(0.00976562499999999,0,0,0.00976562499999999,168.02734374999986,0)" xlink:href="#ad"/><use transform="matrix(0.00976562499999999,0,0,0.00976562499999999,180.02929687499983,0)" xlink:href="#P"/><use transform="matrix(0.00976562499999999,0,0,0.00976562499999999,192.03124999999986,0)" xlink:href="#ad"/><use transform="matrix(0.00976562499999999,0,0,0.00976562499999999,204.03320312499986,0)" xlink:href="#aq"/><use transform="matrix(0.00976562499999999,0,0,0.00976562499999999,216.03515624999983,0)" xlink:href="#R"/><use transform="matrix(0.00976562499999999,0,0,0.00976562499999999,228.03710937499986,0)" xlink:href="#Q"/><use transform="matrix(0.00976562499999999,0,0,0.00976562499999999,240.03906249999986,0)" xlink:href="#ac"/><use transform="matrix(0.00976562499999999,0,0,0.00976562499999999,252.0410156249999,0)" xlink:href="#aq"/><use transform="matrix(0.00976562499999999,0,0,0.00976562499999999,264.04296874999983,0)" xlink:href="#ar"/><use transform="matrix(0.00976562499999999,0,0,0.00976562499999999,276.04492187499983,0)" xlink:href="#as"/><use transform="matrix(0.00976562499999999,0,0,0.00976562499999999,288.04687499999983,0)" xlink:href="#at"/></g><path fill="#333" d="M980-287V0H712v-287H71v-211l595-851h314v853h188v209H980zM712-496c2-204-7-417 9-609-118 224-277 405-414 609h405" id="au"/><path fill="#333" d="M788-691c191 26 337 112 337 315 0 286-214 399-510 399-306 0-483-128-522-391l286-25c18 124 91 190 235 188 132-2 223-58 223-188 0-176-191-182-378-179v-227c176 5 345-9 345-176 0-115-82-171-200-171s-198 55-206 169l-281-20c34-252 213-373 492-373 224 0 381 74 451 224 20 43 29 89 29 136 0 195-130 279-301 315v4" id="av"/><path fill="#333" d="M135-968c34-256 187-402 480-402 217 0 371 75 441 220 45 93 40 219-8 308-114 212-348 323-508 488-38 39-66 80-85 123h654V0H123v-195c112-245 321-399 515-560 57-48 107-96 142-157 14-26 22-53 22-80-1-104-73-156-185-154-131 2-181 74-199 194" id="aw"/><g id="v"><use transform="matrix(0.00976562499999999,0,0,0.00976562499999999,0,0)" xlink:href="#R"/><use transform="matrix(0.00976562499999999,0,0,0.00976562499999999,12.001953124999988,0)" xlink:href="#Q"/><use transform="matrix(0.00976562499999999,0,0,0.00976562499999999,24.003906249999975,0)" xlink:href="#X"/><use transform="matrix(0.00976562499999999,0,0,0.00976562499999999,36.005859374999964,0)" xlink:href="#S"/><use transform="matrix(0.00976562499999999,0,0,0.00976562499999999,48.00781249999995,0)" xlink:href="#P"/><use transform="matrix(0.00976562499999999,0,0,0.00976562499999999,60.009765624999936,0)" xlink:href="#Q"/><use transform="matrix(0.00976562499999999,0,0,0.00976562499999999,72.01171874999993,0)" xlink:href="#aq"/><use transform="matrix(0.00976562499999999,0,0,0.00976562499999999,84.01367187499991,0)" xlink:href="#ad"/><use transform="matrix(0.00976562499999999,0,0,0.00976562499999999,96.0156249999999,0)" xlink:href="#ac"/><use transform="matrix(0.00976562499999999,0,0,0.00976562499999999,108.01757812499989,0)" xlink:href="#Q"/><use transform="matrix(0.00976562499999999,0,0,0.00976562499999999,120.01953124999987,0)" xlink:href="#O"/><use transform="matrix(0.00976562499999999,0,0,0.00976562499999999,132.02148437499986,0)" xlink:href="#P"/><use transform="matrix(0.00976562499999999,0,0,0.00976562499999999,144.02343749999986,0)" xlink:href="#aq"/><use transform="matrix(0.00976562499999999,0,0,0.00976562499999999,156.02539062499986,0)" xlink:href="#ae"/><use transform="matrix(0.00976562499999999,0,0,0.00976562499999999,168.02734374999986,0)" xlink:href="#ad"/><use transform="matrix(0.00976562499999999,0,0,0.00976562499999999,180.02929687499983,0)" xlink:href="#P"/><use transform="matrix(0.00976562499999999,0,0,0.00976562499999999,192.03124999999986,0)" xlink:href="#ad"/><use transform="matrix(0.00976562499999999,0,0,0.00976562499999999,204.03320312499986,0)" xlink:href="#aq"/><use transform="matrix(0.00976562499999999,0,0,0.00976562499999999,216.03515624999983,0)" xlink:href="#R"/><use transform="matrix(0.00976562499999999,0,0,0.00976562499999999,228.03710937499986,0)" xlink:href="#Q"/><use transform="matrix(0.00976562499999999,0,0,0.00976562499999999,240.03906249999986,0)" xlink:href="#ac"/><use transform="matrix(0.00976562499999999,0,0,0.00976562499999999,252.0410156249999,0)" xlink:href="#aq"/><use transform="matrix(0.00976562499999999,0,0,0.00976562499999999,264.04296874999983,0)" xlink:href="#au"/><use transform="matrix(0.00976562499999999,0,0,0.00976562499999999,276.04492187499983,0)" xlink:href="#av"/><use transform="matrix(0.00976562499999999,0,0,0.00976562499999999,288.04687499999983,0)" xlink:href="#aw"/></g><path fill="#333" d="M1092-1126C914-878 744-630 663-296c-23 96-34 194-34 296H336c7-366 145-620 298-854 59-90 126-177 197-264H131v-231h961v223" id="ax"/><g id="w"><use transform="matrix(0.00976562499999999,0,0,0.00976562499999999,0,0)" xlink:href="#R"/><use transform="matrix(0.00976562499999999,0,0,0.00976562499999999,12.001953124999988,0)" xlink:href="#Q"/><use transform="matrix(0.00976562499999999,0,0,0.00976562499999999,24.003906249999975,0)" xlink:href="#X"/><use transform="matrix(0.00976562499999999,0,0,0.00976562499999999,36.005859374999964,0)" xlink:href="#S"/><use transform="matrix(0.00976562499999999,0,0,0.00976562499999999,48.00781249999995,0)" xlink:href="#P"/><use transform="matrix(0.00976562499999999,0,0,0.00976562499999999,60.009765624999936,0)" xlink:href="#Q"/><use transform="matrix(0.00976562499999999,0,0,0.00976562499999999,72.01171874999993,0)" xlink:href="#aq"/><use transform="matrix(0.00976562499999999,0,0,0.00976562499999999,84.01367187499991,0)" xlink:href="#ad"/><use transform="matrix(0.00976562499999999,0,0,0.00976562499999999,96.0156249999999,0)" xlink:href="#ac"/><use transform="matrix(0.00976562499999999,0,0,0.00976562499999999,108.01757812499989,0)" xlink:href="#Q"/><use transform="matrix(0.00976562499999999,0,0,0.00976562499999999,120.01953124999987,0)" xlink:href="#O"/><use transform="matrix(0.00976562499999999,0,0,0.00976562499999999,132.02148437499986,0)" xlink:href="#P"/><use transform="matrix(0.00976562499999999,0,0,0.00976562499999999,144.02343749999986,0)" xlink:href="#aq"/><use transform="matrix(0.00976562499999999,0,0,0.00976562499999999,156.02539062499986,0)" xlink:href="#ae"/><use transform="matrix(0.00976562499999999,0,0,0.00976562499999999,168.02734374999986,0)" xlink:href="#ad"/><use transform="matrix(0.00976562499999999,0,0,0.00976562499999999,180.02929687499983,0)" xlink:href="#P"/><use transform="matrix(0.00976562499999999,0,0,0.00976562499999999,192.03124999999986,0)" xlink:href="#ad"/><use transform="matrix(0.00976562499999999,0,0,0.00976562499999999,204.03320312499986,0)" xlink:href="#aq"/><use transform="matrix(0.00976562499999999,0,0,0.00976562499999999,216.03515624999983,0)" xlink:href="#R"/><use transform="matrix(0.00976562499999999,0,0,0.00976562499999999,228.03710937499986,0)" xlink:href="#Q"/><use transform="matrix(0.00976562499999999,0,0,0.00976562499999999,240.03906249999986,0)" xlink:href="#ac"/><use transform="matrix(0.00976562499999999,0,0,0.00976562499999999,252.0410156249999,0)" xlink:href="#aq"/><use transform="matrix(0.00976562499999999,0,0,0.00976562499999999,264.04296874999983,0)" xlink:href="#ax"/><use transform="matrix(0.00976562499999999,0,0,0.00976562499999999,276.04492187499983,0)" xlink:href="#av"/><use transform="matrix(0.00976562499999999,0,0,0.00976562499999999,288.04687499999983,0)" xlink:href="#ar"/></g><g id="x"><use transform="matrix(0.00976562499999999,0,0,0.00976562499999999,0,0)" xlink:href="#ae"/><use transform="matrix(0.00976562499999999,0,0,0.00976562499999999,12.001953124999988,0)" xlink:href="#ad"/><use transform="matrix(0.00976562499999999,0,0,0.00976562499999999,24.003906249999975,0)" xlink:href="#P"/><use transform="matrix(0.00976562499999999,0,0,0.00976562499999999,36.005859374999964,0)" xlink:href="#ad"/><use transform="matrix(0.00976562499999999,0,0,0.00976562499999999,48.00781249999995,0)" xlink:href="#aq"/><use transform="matrix(0.00976562499999999,0,0,0.00976562499999999,60.009765624999936,0)" xlink:href="#ac"/><use transform="matrix(0.00976562499999999,0,0,0.00976562499999999,72.01171874999993,0)" xlink:href="#R"/><use transform="matrix(0.00976562499999999,0,0,0.00976562499999999,84.01367187499991,0)" xlink:href="#ad"/><use transform="matrix(0.00976562499999999,0,0,0.00976562499999999,96.0156249999999,0)" xlink:href="#O"/><use transform="matrix(0.00976562499999999,0,0,0.00976562499999999,108.01757812499989,0)" xlink:href="#P"/><use transform="matrix(0.00976562499999999,0,0,0.00976562499999999,120.01953124999987,0)" xlink:href="#aq"/><use transform="matrix(0.00976562499999999,0,0,0.00976562499999999,132.02148437499986,0)" xlink:href="#as"/><use transform="matrix(0.00976562499999999,0,0,0.00976562499999999,144.02343749999986,0)" xlink:href="#as"/><use transform="matrix(0.00976562499999999,0,0,0.00976562499999999,156.02539062499986,0)" xlink:href="#ar"/></g><g id="y"><use transform="matrix(0.00976562499999999,0,0,0.00976562499999999,0,0)" xlink:href="#ae"/><use transform="matrix(0.00976562499999999,0,0,0.00976562499999999,12.001953124999988,0)" xlink:href="#ad"/><use transform="matrix(0.00976562499999999,0,0,0.00976562499999999,24.003906249999975,0)" xlink:href="#P"/><use transform="matrix(0.00976562499999999,0,0,0.00976562499999999,36.005859374999964,0)" xlink:href="#ad"/><use transform="matrix(0.00976562499999999,0,0,0.00976562499999999,48.00781249999995,0)" xlink:href="#aq"/><use transform="matrix(0.00976562499999999,0,0,0.00976562499999999,60.009765624999936,0)" xlink:href="#ac"/><use transform="matrix(0.00976562499999999,0,0,0.00976562499999999,72.01171874999993,0)" xlink:href="#R"/><use transform="matrix(0.00976562499999999,0,0,0.00976562499999999,84.01367187499991,0)" xlink:href="#ad"/><use transform="matrix(0.00976562499999999,0,0,0.00976562499999999,96.0156249999999,0)" xlink:href="#O"/><use transform="matrix(0.00976562499999999,0,0,0.00976562499999999,108.01757812499989,0)" xlink:href="#P"/><use transform="matrix(0.00976562499999999,0,0,0.00976562499999999,120.01953124999987,0)" xlink:href="#aq"/><use transform="matrix(0.00976562499999999,0,0,0.00976562499999999,132.02148437499986,0)" xlink:href="#as"/><use transform="matrix(0.00976562499999999,0,0,0.00976562499999999,144.02343749999986,0)" xlink:href="#aw"/><use transform="matrix(0.00976562499999999,0,0,0.00976562499999999,156.02539062499986,0)" xlink:href="#ar"/></g><path fill="#333" d="M829-709c170 32 291 130 291 327 0 285-207 402-505 402-296 0-506-116-506-400 0-194 122-293 287-327v-4c-145-37-254-130-254-301 0-257 201-358 469-358 275 0 474 97 474 360 0 168-110 262-256 297v4zm-216-99c126 0 184-66 183-187-1-119-62-179-185-178-121 0-182 60-182 178 0 119 60 187 184 187zm4 630c149 0 213-80 212-227-2-138-77-206-220-206-139 1-209 76-211 210-2 147 70 223 219 223" id="ay"/><path fill="#333" d="M706-877c265 0 409 163 409 431 0 299-171 466-474 466-381 0-516-302-516-692 0-236 47-410 135-526 112-147 319-207 541-154 154 36 236 149 276 306l-265 37c-22-86-75-139-170-139-76 0-135 36-178 108s-64 179-64 318c54-94 164-155 306-155zm-74 678c138 0 201-98 201-239s-67-232-208-232c-125 0-205 73-205 202 0 149 67 269 212 269" id="az"/><path fill="#333" d="M426-814c58-49 145-93 255-90 282 8 442 169 442 450 0 312-203 474-522 474-288 0-453-130-497-372l281-23c24 104 89 172 219 172 153 0 230-91 230-245 0-144-78-226-224-229-94-2-148 42-191 91H145l49-763h847v209H449" id="aA"/><g id="z"><use transform="matrix(0.00976562499999999,0,0,0.00976562499999999,0,0)" xlink:href="#R"/><use transform="matrix(0.00976562499999999,0,0,0.00976562499999999,12.001953124999988,0)" xlink:href="#Q"/><use transform="matrix(0.00976562499999999,0,0,0.00976562499999999,24.003906249999975,0)" xlink:href="#ah"/><use transform="matrix(0.00976562499999999,0,0,0.00976562499999999,36.005859374999964,0)" xlink:href="#Q"/><use transform="matrix(0.00976562499999999,0,0,0.00976562499999999,48.00781249999995,0)" xlink:href="#R"/><use transform="matrix(0.00976562499999999,0,0,0.00976562499999999,60.009765624999936,0)" xlink:href="#Q"/><use transform="matrix(0.00976562499999999,0,0,0.00976562499999999,72.01171874999993,0)" xlink:href="#O"/><use transform="matrix(0.00976562499999999,0,0,0.00976562499999999,84.01367187499991,0)" xlink:href="#Z"/><use transform="matrix(0.00976562499999999,0,0,0.00976562499999999,96.0156249999999,0)" xlink:href="#Q"/><use transform="matrix(0.00976562499999999,0,0,0.00976562499999999,108.01757812499989,0)" xlink:href="#ae"/><use transform="matrix(0.00976562499999999,0,0,0.00976562499999999,120.01953124999987,0)" xlink:href="#aq"/><use transform="matrix(0.00976562499999999,0,0,0.00976562499999999,132.02148437499986,0)" xlink:href="#ae"/><use transform="matrix(0.00976562499999999,0,0,0.00976562499999999,144.02343749999986,0)" xlink:href="#ad"/><use transform="matrix(0.00976562499999999,0,0,0.00976562499999999,156.02539062499986,0)" xlink:href="#P"/><use transform="matrix(0.00976562499999999,0,0,0.00976562499999999,168.02734374999986,0)" xlink:href="#ad"/><use transform="matrix(0.00976562499999999,0,0,0.00976562499999999,180.02929687499983,0)" xlink:href="#aq"/><use transform="matrix(0.00976562499999999,0,0,0.00976562499999999,192.03124999999986,0)" xlink:href="#ac"/><use transform="matrix(0.00976562499999999,0,0,0.00976562499999999,204.03320312499986,0)" xlink:href="#R"/><use transform="matrix(0.00976562499999999,0,0,0.00976562499999999,216.03515624999983,0)" xlink:href="#ad"/><use transform="matrix(0.00976562499999999,0,0,0.00976562499999999,228.03710937499986,0)" xlink:href="#O"/><use transform="matrix(0.00976562499999999,0,0,0.00976562499999999,240.03906249999986,0)" xlink:href="#P"/><use transform="matrix(0.00976562499999999,0,0,0.00976562499999999,252.0410156249999,0)" xlink:href="#aq"/><use transform="matrix(0.00976562499999999,0,0,0.00976562499999999,264.04296874999983,0)" xlink:href="#ay"/><use transform="matrix(0.00976562499999999,0,0,0.00976562499999999,276.04492187499983,0)" xlink:href="#az"/><use transform="matrix(0.00976562499999999,0,0,0.00976562499999999,288.04687499999983,0)" xlink:href="#aA"/></g><g id="A"><use transform="matrix(0.00976562499999999,0,0,0.00976562499999999,0,0)" xlink:href="#R"/><use transform="matrix(0.00976562499999999,0,0,0.00976562499999999,12.001953124999988,0)" xlink:href="#Q"/><use transform="matrix(0.00976562499999999,0,0,0.00976562499999999,24.003906249999975,0)" xlink:href="#ad"/><use transform="matrix(0.00976562499999999,0,0,0.00976562499999999,36.005859374999964,0)" xlink:href="#ae"/></g><g id="B"><use transform="matrix(0.00976562499999999,0,0,0.00976562499999999,0,0)" xlink:href="#R"/><use transform="matrix(0.00976562499999999,0,0,0.00976562499999999,12.001953124999988,0)" xlink:href="#Q"/><use transform="matrix(0.00976562499999999,0,0,0.00976562499999999,24.003906249999975,0)" xlink:href="#ad"/><use transform="matrix(0.00976562499999999,0,0,0.00976562499999999,36.005859374999964,0)" xlink:href="#ae"/><use transform="matrix(0.00976562499999999,0,0,0.00976562499999999,48.00781249999995,0)" xlink:href="#af"/></g><g id="C"><use transform="matrix(0.00976562499999999,0,0,0.00976562499999999,0,0)" xlink:href="#Z"/><use transform="matrix(0.00976562499999999,0,0,0.00976562499999999,12.001953124999988,0)" xlink:href="#S"/><use transform="matrix(0.00976562499999999,0,0,0.00976562499999999,24.003906249999975,0)" xlink:href="#O"/><use transform="matrix(0.00976562499999999,0,0,0.00976562499999999,36.005859374999964,0)" xlink:href="#P"/><use transform="matrix(0.00976562499999999,0,0,0.00976562499999999,48.00781249999995,0)" xlink:href="#R"/><use transform="matrix(0.00976562499999999,0,0,0.00976562499999999,60.009765624999936,0)" xlink:href="#S"/><use transform="matrix(0.00976562499999999,0,0,0.00976562499999999,72.01171874999993,0)" xlink:href="#V"/></g><g id="D"><use transform="matrix(0.00976562499999999,0,0,0.00976562499999999,0,0)" xlink:href="#ag"/><use transform="matrix(0.00976562499999999,0,0,0.00976562499999999,12.001953124999988,0)" xlink:href="#R"/><use transform="matrix(0.00976562499999999,0,0,0.00976562499999999,24.003906249999975,0)" xlink:href="#N"/><use transform="matrix(0.00976562499999999,0,0,0.00976562499999999,36.005859374999964,0)" xlink:href="#P"/><use transform="matrix(0.00976562499999999,0,0,0.00976562499999999,48.00781249999995,0)" xlink:href="#Q"/></g><g id="E"><use transform="matrix(0.00976562499999999,0,0,0.00976562499999999,0,0)" xlink:href="#ag"/><use transform="matrix(0.00976562499999999,0,0,0.00976562499999999,12.001953124999988,0)" xlink:href="#R"/><use transform="matrix(0.00976562499999999,0,0,0.00976562499999999,24.003906249999975,0)" xlink:href="#N"/><use transform="matrix(0.00976562499999999,0,0,0.00976562499999999,36.005859374999964,0)" xlink:href="#P"/><use transform="matrix(0.00976562499999999,0,0,0.00976562499999999,48.00781249999995,0)" xlink:href="#Q"/><use transform="matrix(0.00976562499999999,0,0,0.00976562499999999,60.009765624999936,0)" xlink:href="#af"/></g><g id="F"><use transform="matrix(0.00976562499999999,0,0,0.00976562499999999,0,0)" xlink:href="#Z"/><use transform="matrix(0.00976562499999999,0,0,0.00976562499999999,12.001953124999988,0)" xlink:href="#S"/><use transform="matrix(0.00976562499999999,0,0,0.00976562499999999,24.003906249999975,0)" xlink:href="#O"/><use transform="matrix(0.00976562499999999,0,0,0.00976562499999999,36.005859374999964,0)" xlink:href="#P"/><use transform="matrix(0.00976562499999999,0,0,0.00976562499999999,48.00781249999995,0)" xlink:href="#R"/><use transform="matrix(0.00976562499999999,0,0,0.00976562499999999,60.009765624999936,0)" xlink:href="#S"/><use transform="matrix(0.00976562499999999,0,0,0.00976562499999999,72.01171874999993,0)" xlink:href="#V"/></g></defs></g></svg>