<svg xmlns="http://www.w3.org/2000/svg" xmlns:xlink="http://www.w3.org/1999/xlink" xmlns:lucid="lucid" width="1967" height="340"><g transform="translate(7 -600)" lucid:page-tab-id="Cuc_sANRM4nI"><path d="M13 680h220v47.27H13z" stroke="#000" stroke-opacity="0" stroke-width="2" fill="#fff" fill-opacity="0"/><use xlink:href="#a" transform="matrix(1,0,0,1,18,685) translate(0 20.688281249999996)"/><path d="M73 800h220v47.27H73z" stroke="#000" stroke-opacity="0" stroke-width="2" fill="#fff" fill-opacity="0"/><use xlink:href="#b" transform="matrix(1,0,0,1,78,805) translate(0 20.688281249999996)"/><path d="M73 860h180v42.27H73z" fill="#fff" fill-opacity="0"/><use xlink:href="#c" transform="matrix(1,0,0,1,78.00000000000003,865) translate(0 20.688281249999996)"/><path d="M49.37 728.77v94.86H71.5" stroke="#000" stroke-width="3" fill="none"/><path d="M50.87 728.8h-3v-1.53h3zM73 825.13h-1.54v-3H73z"/><path d="M49.37 777.87v103.26H71.5M49.37 777.9v-1.53" stroke="#000" stroke-width="3" fill="none"/><path d="M73 882.63h-1.54v-3H73z"/><path d="M720 620h240v54.9H720z" stroke="#000" stroke-opacity="0" stroke-width="2" fill="#fff" fill-opacity="0"/><use xlink:href="#d" transform="matrix(1,0,0,1,725,625) translate(0 19.72851562499999)"/><use xlink:href="#e" transform="matrix(1,0,0,1,725,625) translate(88.81445312499996 19.72851562499999)"/><path d="M1469 620h169.4v54.9H1469z" stroke="#000" stroke-opacity="0" stroke-width="2" fill="#fff" fill-opacity="0"/><use xlink:href="#f" transform="matrix(1,0,0,1,1474,625) translate(0 19.72851562499999)"/><path d="M516 680h840v108.67H516z" stroke="#000" stroke-opacity="0" stroke-width="2" fill="#fff" fill-opacity="0"/><use xlink:href="#g" transform="matrix(1,0,0,1,521,685) translate(0 19.72851562499999)"/><use xlink:href="#h" transform="matrix(1,0,0,1,521,685) translate(0 44.39518229166664)"/><use xlink:href="#i" transform="matrix(1,0,0,1,521,685) translate(29.604817708333318 44.39518229166664)"/><use xlink:href="#j" transform="matrix(1,0,0,1,521,685) translate(59.209635416666636 44.39518229166664)"/><use xlink:href="#k" transform="matrix(1,0,0,1,521,685) translate(251.6409505208332 44.39518229166664)"/><use xlink:href="#h" transform="matrix(1,0,0,1,521,685) translate(0 69.0618489583333)"/><use xlink:href="#l" transform="matrix(1,0,0,1,521,685) translate(29.604817708333318 69.0618489583333)"/><use xlink:href="#m" transform="matrix(1,0,0,1,521,685) translate(251.6409505208332 69.0618489583333)"/><use xlink:href="#k" transform="matrix(1,0,0,1,521,685) translate(577.2939453124998 69.0618489583333)"/><use xlink:href="#h" transform="matrix(1,0,0,1,521,685) translate(0 93.72851562499994)"/><use xlink:href="#n" transform="matrix(1,0,0,1,521,685) translate(29.604817708333318 93.72851562499994)"/><use xlink:href="#o" transform="matrix(1,0,0,1,521,685) translate(251.6409505208332 93.72851562499994)"/><use xlink:href="#p" transform="matrix(1,0,0,1,521,685) translate(725.3180338541667 93.72851562499994)"/><path d="M1300 680h640v182.67h-640z" stroke="#000" stroke-opacity="0" stroke-width="2" fill="#fff" fill-opacity="0"/><g><use xlink:href="#q" transform="matrix(1,0,0,1,1305,685) translate(0 19.72851562499999)"/><use xlink:href="#r" transform="matrix(1,0,0,1,1305,685) translate(473.6770833333335 19.72851562499999)"/><use xlink:href="#s" transform="matrix(1,0,0,1,1305,685) translate(0 44.39518229166664)"/><use xlink:href="#t" transform="matrix(1,0,0,1,1305,685) translate(29.604817708333318 44.39518229166664)"/><use xlink:href="#u" transform="matrix(1,0,0,1,1305,685) translate(59.209635416666636 44.39518229166664)"/><use xlink:href="#v" transform="matrix(1,0,0,1,1305,685) translate(88.81445312499996 44.39518229166664)"/><use xlink:href="#w" transform="matrix(1,0,0,1,1305,685) translate(503.2819010416667 44.39518229166664)"/><use xlink:href="#x" transform="matrix(1,0,0,1,1305,685) translate(532.88671875 44.39518229166664)"/><use xlink:href="#s" transform="matrix(1,0,0,1,1305,685) translate(0 69.0618489583333)"/><use xlink:href="#y" transform="matrix(1,0,0,1,1305,685) translate(29.604817708333318 69.0618489583333)"/><use xlink:href="#z" transform="matrix(1,0,0,1,1305,685) translate(281.2457682291665 69.0618489583333)"/><use xlink:href="#x" transform="matrix(1,0,0,1,1305,685) translate(340.45540364583314 69.0618489583333)"/><use xlink:href="#s" transform="matrix(1,0,0,1,1305,685) translate(0 93.72851562499994)"/><use xlink:href="#A" transform="matrix(1,0,0,1,1305,685) translate(29.604817708333318 93.72851562499994)"/><use xlink:href="#z" transform="matrix(1,0,0,1,1305,685) translate(310.8505859374999 93.72851562499994)"/><use xlink:href="#x" transform="matrix(1,0,0,1,1305,685) translate(370.0602213541665 93.72851562499994)"/><use xlink:href="#s" transform="matrix(1,0,0,1,1305,685) translate(0 118.3951822916666)"/><use xlink:href="#B" transform="matrix(1,0,0,1,1305,685) translate(29.604817708333318 118.3951822916666)"/><use xlink:href="#C" transform="matrix(1,0,0,1,1305,685) translate(281.2457682291665 118.3951822916666)"/><use xlink:href="#x" transform="matrix(1,0,0,1,1305,685) translate(473.6770833333331 118.3951822916666)"/><use xlink:href="#s" transform="matrix(1,0,0,1,1305,685) translate(0 143.06184895833326)"/><use xlink:href="#D" transform="matrix(1,0,0,1,1305,685) translate(29.604817708333318 143.06184895833326)"/><use xlink:href="#E" transform="matrix(1,0,0,1,1305,685) translate(414.4674479166667 143.06184895833326)"/><use xlink:href="#F" transform="matrix(1,0,0,1,1305,685) translate(0 167.72851562499991)"/></g><path d="M73 620.67h280V680H73z" stroke="#000" stroke-opacity="0" stroke-width="2" fill="#fff" fill-opacity="0"/><g><use xlink:href="#G" transform="matrix(1,0,0,1,78,625.6666666666667) translate(0 19.72851562499999)"/><use xlink:href="#H" transform="matrix(1,0,0,1,78,625.6666666666667) translate(148.0240885416666 19.72851562499999)"/><use xlink:href="#I" transform="matrix(1,0,0,1,78,625.6666666666667) translate(192.43131510416657 19.72851562499999)"/></g><path d="M280 788.67h220V920H280z" fill="none"/><path d="M280 920c4.53 0 8.2-3.67 8.2-8.2v-49.26c0-4.53 3.68-8.2 8.22-8.2-4.54 0-8.2-3.68-8.2-8.22v-49.25c0-4.53-3.7-8.2-8.22-8.2" stroke="#000" stroke-width="2" fill="none"/><g><use xlink:href="#J" transform="matrix(1,0,0,1,309.625,793.6666666666666) translate(0 45.28450520833334)"/><use xlink:href="#K" transform="matrix(1,0,0,1,309.625,793.6666666666666) translate(0 67.72894965277777)"/><use xlink:href="#L" transform="matrix(1,0,0,1,309.625,793.6666666666666) translate(0 90.1733940972222)"/></g><defs><path fill="#0c7cba" d="M117-675c0-408 109-695 502-695 384 0 492 295 492 695 0 326-84 561-303 658-117 51-277 52-394 1-217-95-297-335-297-659zm591 451c148-93 132-449 108-680-15-138-53-246-199-246-150 0-193 107-207 248-22 230-40 585 106 678 50 32 141 32 192 0zM506-555v-249h215v249H506" id="M"/><path fill="#0c7cba" d="M135-968c34-256 187-402 480-402 217 0 371 75 441 220 45 93 40 219-8 308-114 212-348 323-508 488-38 39-66 80-85 123h654V0H123v-195c112-245 321-399 515-560 57-48 107-96 142-157 14-26 22-53 22-80-1-104-73-156-185-154-131 2-181 74-199 194" id="N"/><path fill="#0c7cba" d="M844-1321c-130 0-195 53-191 182v57h443v190H653V0H373v-892H117v-190h256v-83c5-247 162-348 422-349 120-1 232 13 327 28v184c-84-10-183-19-278-19" id="O"/><path fill="#0c7cba" d="M114-913c0-304 185-457 492-457 163 0 287 55 372 166s128 280 128 507c-1 325-87 566-302 671-146 73-404 55-514-32-75-59-123-143-151-253l264-37c24 90 76 147 180 147 76 0 135-35 179-105s67-174 68-313c-55 100-162 160-311 160-269 0-405-180-405-454zm486 245c129 0 209-78 209-211 0-151-63-271-210-271-137 0-200 99-200 239 0 139 63 243 201 243" id="P"/><path fill="#0c7cba" d="M802-909c-3-189-2-383-2-575h281v1248c-1 83 4 168 8 236H817c-9-50-14-117-15-176h-4C735-49 651 20 482 20 191 20 97-238 97-539c0-243 66-432 221-519 50-28 108-42 175-42 162 2 253 78 309 191zm-70 658c91-113 93-462 2-584-46-61-145-100-224-53-96 56-119 190-120 349 0 123 17 214 52 275 46 82 130 115 222 74 25-12 46-33 68-61" id="Q"/><path fill="#0c7cba" d="M980-287V0H712v-287H71v-211l595-851h314v853h188v209H980zM712-496c2-204-7-417 9-609-118 224-277 405-414 609h405" id="R"/><path fill="#0c7cba" d="M138-1120c207-4 339-93 415-229h266v1140h323V0H149v-209h389v-891c-70 121-216 187-400 194v-214" id="S"/><path fill="#0c7cba" d="M1113-274C1038-96 884 20 626 20c-352 0-526-209-526-566 0-358 185-556 530-556 358 0 496 251 499 615H395c5 180 68 319 245 319 102 0 186-45 208-129zM857-663c-6-177-128-307-315-247-94 30-141 121-145 247h460" id="T"/><path fill="#0c7cba" d="M426-814c58-49 145-93 255-90 282 8 442 169 442 450 0 312-203 474-522 474-288 0-453-130-497-372l281-23c24 104 89 172 219 172 153 0 230-91 230-245 0-144-78-226-224-229-94-2-148 42-191 91H145l49-763h847v209H449" id="U"/><path fill="#0c7cba" d="M1109-360C1066-122 902 20 624 20c-347 0-514-209-514-555 0-353 168-567 518-567 270 0 425 136 473 361l-283 14c-16-106-75-183-196-182-75 0-130 31-165 93s-52 152-52 270c0 249 74 374 221 374 120 0 188-82 201-201" id="V"/><path fill="#0c7cba" d="M775-193C708-75 621 20 439 20 226 20 106-93 106-306c0-251 170-341 417-346l223-4c4-143-12-264-148-264-103 0-141 58-150 153l-293-14c37-219 194-321 455-321 263 0 418 130 417 390v392c1 84 5 161 89 160 21 0 42-2 62-6v152c-57 15-108 27-180 26-145 0-202-73-217-205h-6zm-256 17c168 0 234-139 227-325-166 4-347-25-347 173 0 94 33 152 120 152" id="W"/><path fill="#0c7cba" d="M89 20l821-1504h228L321 20H89" id="X"/><path fill="#0c7cba" d="M951-835l-69 324h237v149H849L771 0H616l79-362H386L308 0H155l78-362H59v-149h206l70-324H108v-148h259l79-366h153l-78 366h308l79-366h153l-78 366h185v148H951zm-463 0l-70 324h309l70-324H488" id="Y"/><path fill="#0c7cba" d="M875-1102c70 0 148 7 206 17v237c-110-17-267-37-359 15-123 69-192 207-192 395V0H250c-10-367 32-789-52-1082h271c19 69 36 149 46 228h4c52-151 151-250 356-248" id="Z"/><path fill="#0c7cba" d="M1108-33c-3 314-178 467-492 467-243 0-400-94-447-291l281-33c17 79 82 141 174 141 176 0 212-155 205-347-2-40 5-80 0-115C773-85 665-12 501-12c-288 0-377-242-377-538 0-242 65-426 223-510 50-26 108-39 175-39 160 0 253 78 307 191h5c1-58 5-125 14-174h266c-12 335-3 703-6 1049zM811-384c25-82 27-259 1-342-30-99-77-180-190-180-172 0-205 171-205 356 0 116 18 202 54 258 48 76 129 107 221 70 62-25 96-86 119-162" id="aa"/><path fill="#0c7cba" d="M794-190h353V0H118v-190h395v-702H223v-190h571v892zM513-1277v-207h281v207H513" id="ab"/><path fill="#0c7cba" d="M622-916c-112 2-200 14-200 111 0 90 89 101 168 121 234 58 514 77 514 368C1104-4 751 54 434 5 267-21 161-112 121-270l247-37c24 111 113 145 252 141 114-3 226-12 226-124 0-101-103-113-192-134-225-54-490-76-490-351 0-247 201-328 458-328 245 0 413 88 457 292l-249 26c-16-98-92-133-208-131" id="ac"/><path fill="#0c7cba" d="M711 13c-250 0-386-99-385-349l2-556H161v-190h181l88-282h176v282h385v190H606v530c-10 130 45 186 174 184 91-2 176-11 255-27v186C933-1 833 13 711 13" id="ad"/><path fill="#0c7cba" d="M616-1102c361 0 521 202 521 560 0 354-171 562-527 562C259 20 92-192 92-542c0-351 169-560 524-560zm-9 930c200-2 236-165 236-370 0-199-27-367-223-367-195 0-233 146-233 367 0 129 18 223 55 282s92 88 165 88" id="ae"/><path fill="#0c7cba" d="M768-1103c247 0 336 167 336 416V0H824v-619c-3-164-24-273-171-273-164 0-229 142-229 312V0H143c-4-359 9-736-8-1082h268c7 63 12 146 13 215h4c67-145 160-236 348-236" id="af"/><g id="a"><use transform="matrix(0.01263020833333333,0,0,0.01263020833333333,0,0)" xlink:href="#M"/><use transform="matrix(0.01263020833333333,0,0,0.01263020833333333,15.522526041666662,0)" xlink:href="#N"/><use transform="matrix(0.01263020833333333,0,0,0.01263020833333333,31.045052083333324,0)" xlink:href="#O"/><use transform="matrix(0.01263020833333333,0,0,0.01263020833333333,46.56757812499998,0)" xlink:href="#P"/><use transform="matrix(0.01263020833333333,0,0,0.01263020833333333,62.09010416666665,0)" xlink:href="#Q"/><use transform="matrix(0.01263020833333333,0,0,0.01263020833333333,77.61263020833331,0)" xlink:href="#R"/><use transform="matrix(0.01263020833333333,0,0,0.01263020833333333,93.13515624999998,0)" xlink:href="#N"/><use transform="matrix(0.01263020833333333,0,0,0.01263020833333333,108.65768229166665,0)" xlink:href="#N"/><use transform="matrix(0.01263020833333333,0,0,0.01263020833333333,124.1802083333333,0)" xlink:href="#S"/><use transform="matrix(0.01263020833333333,0,0,0.01263020833333333,139.70273437499998,0)" xlink:href="#Q"/><use transform="matrix(0.01263020833333333,0,0,0.01263020833333333,155.22526041666663,0)" xlink:href="#P"/><use transform="matrix(0.01263020833333333,0,0,0.01263020833333333,170.74778645833328,0)" xlink:href="#T"/><use transform="matrix(0.01263020833333333,0,0,0.01263020833333333,186.27031249999993,0)" xlink:href="#U"/><use transform="matrix(0.01263020833333333,0,0,0.01263020833333333,201.79283854166658,0)" xlink:href="#V"/><use transform="matrix(0.01263020833333333,0,0,0.01263020833333333,217.31536458333323,0)" xlink:href="#M"/><use transform="matrix(0.01263020833333333,0,0,0.01263020833333333,232.8378906249999,0)" xlink:href="#W"/><use transform="matrix(0.01263020833333333,0,0,0.01263020833333333,248.36041666666657,0)" xlink:href="#T"/><use transform="matrix(0.01263020833333333,0,0,0.01263020833333333,263.8829427083332,0)" xlink:href="#X"/><use transform="matrix(0.01263020833333333,0,0,0.01263020833333333,279.40546874999984,0)" xlink:href="#Y"/><use transform="matrix(0.01263020833333333,0,0,0.01263020833333333,294.9279947916665,0)" xlink:href="#Z"/><use transform="matrix(0.01263020833333333,0,0,0.01263020833333333,310.45052083333314,0)" xlink:href="#T"/><use transform="matrix(0.01263020833333333,0,0,0.01263020833333333,325.9730468749998,0)" xlink:href="#aa"/><use transform="matrix(0.01263020833333333,0,0,0.01263020833333333,341.49557291666645,0)" xlink:href="#ab"/><use transform="matrix(0.01263020833333333,0,0,0.01263020833333333,357.0180989583331,0)" xlink:href="#ac"/><use transform="matrix(0.01263020833333333,0,0,0.01263020833333333,372.54062499999975,0)" xlink:href="#ad"/><use transform="matrix(0.01263020833333333,0,0,0.01263020833333333,388.0631510416664,0)" xlink:href="#Z"/><use transform="matrix(0.01263020833333333,0,0,0.01263020833333333,403.58567708333305,0)" xlink:href="#W"/><use transform="matrix(0.01263020833333333,0,0,0.01263020833333333,419.1082031249997,0)" xlink:href="#ad"/><use transform="matrix(0.01263020833333333,0,0,0.01263020833333333,434.63072916666636,0)" xlink:href="#ab"/><use transform="matrix(0.01263020833333333,0,0,0.01263020833333333,450.153255208333,0)" xlink:href="#ae"/><use transform="matrix(0.01263020833333333,0,0,0.01263020833333333,465.6757812499997,0)" xlink:href="#af"/></g><path fill="#834187" d="M1109-360C1066-122 902 20 624 20c-347 0-514-209-514-555 0-353 168-567 518-567 270 0 425 136 473 361l-283 14c-16-106-75-183-196-182-75 0-130 31-165 93s-52 152-52 270c0 249 74 374 221 374 120 0 188-82 201-201" id="ag"/><path fill="#834187" d="M616-1102c361 0 521 202 521 560 0 354-171 562-527 562C259 20 92-192 92-542c0-351 169-560 524-560zm-9 930c200-2 236-165 236-370 0-199-27-367-223-367-195 0-233 146-233 367 0 129 18 223 55 282s92 88 165 88" id="ah"/><path fill="#834187" d="M768-1103c247 0 336 167 336 416V0H824v-619c-3-164-24-273-171-273-164 0-229 142-229 312V0H143c-4-359 9-736-8-1082h268c7 63 12 146 13 215h4c67-145 160-236 348-236" id="ai"/><path fill="#834187" d="M844-1321c-130 0-195 53-191 182v57h443v190H653V0H373v-892H117v-190h256v-83c5-247 162-348 422-349 120-1 232 13 327 28v184c-84-10-183-19-278-19" id="aj"/><path fill="#834187" d="M794-190h353V0H118v-190h395v-702H223v-190h571v892zM513-1277v-207h281v207H513" id="ak"/><path fill="#834187" d="M1108-33c-3 314-178 467-492 467-243 0-400-94-447-291l281-33c17 79 82 141 174 141 176 0 212-155 205-347-2-40 5-80 0-115C773-85 665-12 501-12c-288 0-377-242-377-538 0-242 65-426 223-510 50-26 108-39 175-39 160 0 253 78 307 191h5c1-58 5-125 14-174h266c-12 335-3 703-6 1049zM811-384c25-82 27-259 1-342-30-99-77-180-190-180-172 0-205 171-205 356 0 116 18 202 54 258 48 76 129 107 221 70 62-25 96-86 119-162" id="al"/><path fill="#834187" d="M470 0v-305h289V0H470" id="am"/><path fill="#834187" d="M711 13c-250 0-386-99-385-349l2-556H161v-190h181l88-282h176v282h385v190H606v530c-10 130 45 186 174 184 91-2 176-11 255-27v186C933-1 833 13 711 13" id="an"/><path fill="#834187" d="M794-190h353V0H118v-190h395v-1104H223v-190h571v1294" id="ao"/><g id="b"><use transform="matrix(0.01263020833333333,0,0,0.01263020833333333,0,0)" xlink:href="#ag"/><use transform="matrix(0.01263020833333333,0,0,0.01263020833333333,15.522526041666662,0)" xlink:href="#ah"/><use transform="matrix(0.01263020833333333,0,0,0.01263020833333333,31.045052083333324,0)" xlink:href="#ai"/><use transform="matrix(0.01263020833333333,0,0,0.01263020833333333,46.56757812499998,0)" xlink:href="#aj"/><use transform="matrix(0.01263020833333333,0,0,0.01263020833333333,62.09010416666665,0)" xlink:href="#ak"/><use transform="matrix(0.01263020833333333,0,0,0.01263020833333333,77.61263020833331,0)" xlink:href="#al"/><use transform="matrix(0.01263020833333333,0,0,0.01263020833333333,93.13515624999998,0)" xlink:href="#am"/><use transform="matrix(0.01263020833333333,0,0,0.01263020833333333,108.65768229166665,0)" xlink:href="#an"/><use transform="matrix(0.01263020833333333,0,0,0.01263020833333333,124.1802083333333,0)" xlink:href="#an"/><use transform="matrix(0.01263020833333333,0,0,0.01263020833333333,139.70273437499998,0)" xlink:href="#ao"/></g><path fill="#834187" d="M622-916c-112 2-200 14-200 111 0 90 89 101 168 121 234 58 514 77 514 368C1104-4 751 54 434 5 267-21 161-112 121-270l247-37c24 111 113 145 252 141 114-3 226-12 226-124 0-101-103-113-192-134-225-54-490-76-490-351 0-247 201-328 458-328 245 0 413 88 457 292l-249 26c-16-98-92-133-208-131" id="ap"/><path fill="#834187" d="M471 20c-247 0-336-169-336-415v-687h281v607c4 148 31 285 172 285 152 0 207-150 207-312v-580h281c4 359-9 736 8 1082H816c-7-63-11-146-12-215h-5C736-76 644 20 471 20" id="aq"/><path fill="#834187" d="M934-1102c199 0 220 177 220 381V0H926c-2-260 10-533-4-785-4-72-14-138-83-138-34 0-61 27-81 81s-29 134-29 241V0H501c-2-260 9-533-5-785-4-72-13-138-82-138-46 0-65 47-80 93-21 67-30 155-30 248V0H75c-3-360 6-732-6-1082h209c6 50 3 123 8 175 36-100 83-195 216-195 135 0 166 79 196 196 42-105 93-196 236-196" id="ar"/><path fill="#834187" d="M775-193C708-75 621 20 439 20 226 20 106-93 106-306c0-251 170-341 417-346l223-4c4-143-12-264-148-264-103 0-141 58-150 153l-293-14c37-219 194-321 455-321 263 0 418 130 417 390v392c1 84 5 161 89 160 21 0 42-2 62-6v152c-57 15-108 27-180 26-145 0-202-73-217-205h-6zm-256 17c168 0 234-139 227-325-166 4-347-25-347 173 0 94 33 152 120 152" id="as"/><path fill="#834187" d="M875-1102c70 0 148 7 206 17v237c-110-17-267-37-359 15-123 69-192 207-192 395V0H250c-10-367 32-789-52-1082h271c19 69 36 149 46 228h4c52-151 151-250 356-248" id="at"/><path fill="#834187" d="M143 212c82 12 185 12 233-31 50-45 83-117 110-192L38-1082h297c100 284 211 557 291 861 72-305 176-578 270-861h294L742 57c-80 192-156 368-417 368-60 0-131-4-182-13V212" id="au"/><path fill="#834187" d="M802-909c-3-189-2-383-2-575h281v1248c-1 83 4 168 8 236H817c-9-50-14-117-15-176h-4C735-49 651 20 482 20 191 20 97-238 97-539c0-243 66-432 221-519 50-28 108-42 175-42 162 2 253 78 309 191zm-70 658c91-113 93-462 2-584-46-61-145-100-224-53-96 56-119 190-120 349 0 123 17 214 52 275 46 82 130 115 222 74 25-12 46-33 68-61" id="av"/><path fill="#834187" d="M874 0L612-392 348 0H49l406-559-387-523h303l241 354 240-354h305L770-562 1179 0H874" id="aw"/><g id="c"><use transform="matrix(0.01263020833333333,0,0,0.01263020833333333,0,0)" xlink:href="#ap"/><use transform="matrix(0.01263020833333333,0,0,0.01263020833333333,15.522526041666662,0)" xlink:href="#aq"/><use transform="matrix(0.01263020833333333,0,0,0.01263020833333333,31.045052083333324,0)" xlink:href="#ar"/><use transform="matrix(0.01263020833333333,0,0,0.01263020833333333,46.56757812499998,0)" xlink:href="#ar"/><use transform="matrix(0.01263020833333333,0,0,0.01263020833333333,62.09010416666665,0)" xlink:href="#as"/><use transform="matrix(0.01263020833333333,0,0,0.01263020833333333,77.61263020833331,0)" xlink:href="#at"/><use transform="matrix(0.01263020833333333,0,0,0.01263020833333333,93.13515624999998,0)" xlink:href="#au"/><use transform="matrix(0.01263020833333333,0,0,0.01263020833333333,108.65768229166665,0)" xlink:href="#am"/><use transform="matrix(0.01263020833333333,0,0,0.01263020833333333,124.1802083333333,0)" xlink:href="#ak"/><use transform="matrix(0.01263020833333333,0,0,0.01263020833333333,139.70273437499998,0)" xlink:href="#av"/><use transform="matrix(0.01263020833333333,0,0,0.01263020833333333,155.22526041666663,0)" xlink:href="#aw"/></g><path d="M609-1161c-125 0-218 36-218 153 0 149 166 161 290 196 235 67 484 129 484 421 0 300-239 408-554 411C302 23 93-114 38-367l285-37c32 128 131 205 296 203 143-2 259-31 259-173 0-164-197-172-333-212-218-64-441-131-441-405 0-276 231-379 511-379 299 0 463 114 513 363l-286 29c-28-115-96-183-233-183" id="ax"/><path d="M424-1484c-2 206 5 424-8 618h4c67-145 160-234 348-236 251-3 335 167 336 416V0H824v-621c0-150-23-276-173-270-163 7-227 142-227 312V0H143v-1484h281" id="ay"/><path d="M775-193C708-75 621 20 439 20 226 20 106-93 106-306c0-251 170-341 417-346l223-4c4-143-12-264-148-264-103 0-141 58-150 153l-293-14c37-219 194-321 455-321 263 0 418 130 417 390v392c1 84 5 161 89 160 21 0 42-2 62-6v152c-57 15-108 27-180 26-145 0-202-73-217-205h-6zm-256 17c168 0 234-139 227-325-166 4-347-25-347 173 0 94 33 152 120 152" id="az"/><path d="M427-171c3 195 2 397 2 596H148V-846c1-83-4-168-8-236h272c10 49 14 118 15 176h4c59-114 151-197 316-197 291 0 385 259 385 560 0 243-65 433-220 521-50 28-109 42-176 42-162-2-253-78-309-191zm69-661c-91 113-92 463-1 586 46 62 145 101 225 54 96-57 118-191 119-351 0-123-18-215-53-276-46-82-128-115-220-74-25 12-48 33-70 61" id="aA"/><path d="M1113-274C1038-96 884 20 626 20c-352 0-526-209-526-566 0-358 185-556 530-556 358 0 496 251 499 615H395c5 180 68 319 245 319 102 0 186-45 208-129zM857-663c-6-177-128-307-315-247-94 30-141 121-145 247h460" id="aB"/><g id="d"><use transform="matrix(0.012044270833333327,0,0,0.012044270833333327,0,0)" xlink:href="#ax"/><use transform="matrix(0.012044270833333327,0,0,0.012044270833333327,14.802408854166659,0)" xlink:href="#ay"/><use transform="matrix(0.012044270833333327,0,0,0.012044270833333327,29.604817708333318,0)" xlink:href="#az"/><use transform="matrix(0.012044270833333327,0,0,0.012044270833333327,44.40722656249998,0)" xlink:href="#aA"/><use transform="matrix(0.012044270833333327,0,0,0.012044270833333327,59.209635416666636,0)" xlink:href="#aB"/></g><path d="M711 13c-250 0-386-99-385-349l2-556H161v-190h181l88-282h176v282h385v190H606v530c-10 130 45 186 174 184 91-2 176-11 255-27v186C933-1 833 13 711 13" id="aC"/><path d="M875-1102c70 0 148 7 206 17v237c-110-17-267-37-359 15-123 69-192 207-192 395V0H250c-10-367 32-789-52-1082h271c19 69 36 149 46 228h4c52-151 151-250 356-248" id="aD"/><path d="M622-916c-112 2-200 14-200 111 0 90 89 101 168 121 234 58 514 77 514 368C1104-4 751 54 434 5 267-21 161-112 121-270l247-37c24 111 113 145 252 141 114-3 226-12 226-124 0-101-103-113-192-134-225-54-490-76-490-351 0-247 201-328 458-328 245 0 413 88 457 292l-249 26c-16-98-92-133-208-131" id="aE"/><g id="e"><use transform="matrix(0.012044270833333327,0,0,0.012044270833333327,0,0)" xlink:href="#aC"/><use transform="matrix(0.012044270833333327,0,0,0.012044270833333327,14.802408854166659,0)" xlink:href="#aD"/><use transform="matrix(0.012044270833333327,0,0,0.012044270833333327,29.604817708333318,0)" xlink:href="#aB"/><use transform="matrix(0.012044270833333327,0,0,0.012044270833333327,44.40722656249998,0)" xlink:href="#aB"/><use transform="matrix(0.012044270833333327,0,0,0.012044270833333327,59.209635416666636,0)" xlink:href="#aE"/></g><g id="f"><use transform="matrix(0.012044270833333327,0,0,0.012044270833333327,0,0)" xlink:href="#ax"/><use transform="matrix(0.012044270833333327,0,0,0.012044270833333327,14.802408854166659,0)" xlink:href="#ay"/><use transform="matrix(0.012044270833333327,0,0,0.012044270833333327,29.604817708333318,0)" xlink:href="#az"/><use transform="matrix(0.012044270833333327,0,0,0.012044270833333327,44.40722656249998,0)" xlink:href="#aA"/><use transform="matrix(0.012044270833333327,0,0,0.012044270833333327,59.209635416666636,0)" xlink:href="#aB"/><use transform="matrix(0.012044270833333327,0,0,0.012044270833333327,74.0120442708333,0)" xlink:href="#aE"/></g><path fill="#0c7cba" d="M101-516v-322l1027-391v228L295-676l833 324v227" id="aF"/><path fill="#0c7cba" d="M427-171c3 195 2 397 2 596H148V-846c1-83-4-168-8-236h272c10 49 14 118 15 176h4c59-114 151-197 316-197 291 0 385 259 385 560 0 243-65 433-220 521-50 28-109 42-176 42-162-2-253-78-309-191zm69-661c-91 113-92 463-1 586 46 62 145 101 225 54 96-57 118-191 119-351 0-123-18-215-53-276-46-82-128-115-220-74-25 12-48 33-70 61" id="aG"/><path fill="#0c7cba" d="M794-190h353V0H118v-190h395v-1104H223v-190h571v1294" id="aH"/><path fill="#0c7cba" d="M324-409v-244h580v244H324" id="aI"/><path fill="#0c7cba" d="M101-125v-227l832-324-832-325v-228l1027 391v322" id="aJ"/><g id="g"><use transform="matrix(0.012044270833333327,0,0,0.012044270833333327,0,0)" xlink:href="#aF"/><use transform="matrix(0.012044270833333327,0,0,0.012044270833333327,14.802408854166659,0)" xlink:href="#Y"/><use transform="matrix(0.012044270833333327,0,0,0.012044270833333327,29.604817708333318,0)" xlink:href="#W"/><use transform="matrix(0.012044270833333327,0,0,0.012044270833333327,44.40722656249998,0)" xlink:href="#aG"/><use transform="matrix(0.012044270833333327,0,0,0.012044270833333327,59.209635416666636,0)" xlink:href="#aG"/><use transform="matrix(0.012044270833333327,0,0,0.012044270833333327,74.0120442708333,0)" xlink:href="#aH"/><use transform="matrix(0.012044270833333327,0,0,0.012044270833333327,88.81445312499996,0)" xlink:href="#ab"/><use transform="matrix(0.012044270833333327,0,0,0.012044270833333327,103.61686197916661,0)" xlink:href="#V"/><use transform="matrix(0.012044270833333327,0,0,0.012044270833333327,118.41927083333327,0)" xlink:href="#W"/><use transform="matrix(0.012044270833333327,0,0,0.012044270833333327,133.22167968749994,0)" xlink:href="#ad"/><use transform="matrix(0.012044270833333327,0,0,0.012044270833333327,148.0240885416666,0)" xlink:href="#ab"/><use transform="matrix(0.012044270833333327,0,0,0.012044270833333327,162.82649739583326,0)" xlink:href="#ae"/><use transform="matrix(0.012044270833333327,0,0,0.012044270833333327,177.62890624999991,0)" xlink:href="#af"/><use transform="matrix(0.012044270833333327,0,0,0.012044270833333327,192.43131510416657,0)" xlink:href="#aI"/><use transform="matrix(0.012044270833333327,0,0,0.012044270833333327,207.23372395833323,0)" xlink:href="#Z"/><use transform="matrix(0.012044270833333327,0,0,0.012044270833333327,222.0361328124999,0)" xlink:href="#T"/><use transform="matrix(0.012044270833333327,0,0,0.012044270833333327,236.83854166666654,0)" xlink:href="#aa"/><use transform="matrix(0.012044270833333327,0,0,0.012044270833333327,251.6409505208332,0)" xlink:href="#ab"/><use transform="matrix(0.012044270833333327,0,0,0.012044270833333327,266.4433593749999,0)" xlink:href="#ac"/><use transform="matrix(0.012044270833333327,0,0,0.012044270833333327,281.2457682291666,0)" xlink:href="#ad"/><use transform="matrix(0.012044270833333327,0,0,0.012044270833333327,296.04817708333326,0)" xlink:href="#Z"/><use transform="matrix(0.012044270833333327,0,0,0.012044270833333327,310.85058593749994,0)" xlink:href="#W"/><use transform="matrix(0.012044270833333327,0,0,0.012044270833333327,325.65299479166663,0)" xlink:href="#ad"/><use transform="matrix(0.012044270833333327,0,0,0.012044270833333327,340.4554036458333,0)" xlink:href="#ab"/><use transform="matrix(0.012044270833333327,0,0,0.012044270833333327,355.2578125,0)" xlink:href="#ae"/><use transform="matrix(0.012044270833333327,0,0,0.012044270833333327,370.0602213541667,0)" xlink:href="#af"/><use transform="matrix(0.012044270833333327,0,0,0.012044270833333327,384.86263020833337,0)" xlink:href="#aI"/><use transform="matrix(0.012044270833333327,0,0,0.012044270833333327,399.66503906250006,0)" xlink:href="#ad"/><use transform="matrix(0.012044270833333327,0,0,0.012044270833333327,414.4674479166667,0)" xlink:href="#Z"/><use transform="matrix(0.012044270833333327,0,0,0.012044270833333327,429.2698567708335,0)" xlink:href="#T"/><use transform="matrix(0.012044270833333327,0,0,0.012044270833333327,444.0722656250001,0)" xlink:href="#T"/><use transform="matrix(0.012044270833333327,0,0,0.012044270833333327,458.8746744791668,0)" xlink:href="#aJ"/></g><use transform="matrix(0.012044270833333327,0,0,0.012044270833333327,0,0)" xlink:href="#W" id="i"/><path fill="#0c7cba" d="M470 0v-305h289V0H470zm0-780v-305h289v305H470" id="aK"/><path fill="#0c7cba" d="M609-1161c-125 0-218 36-218 153 0 149 166 161 290 196 235 67 484 129 484 421 0 300-239 408-554 411C302 23 93-114 38-367l285-37c32 128 131 205 296 203 143-2 259-31 259-173 0-164-197-172-333-212-218-64-441-131-441-405 0-276 231-379 511-379 299 0 463 114 513 363l-286 29c-28-115-96-183-233-183" id="aL"/><path fill="#0c7cba" d="M424-1484c-2 206 5 424-8 618h4c67-145 160-234 348-236 251-3 335 167 336 416V0H824v-621c0-150-23-276-173-270-163 7-227 142-227 312V0H143v-1484h281" id="aM"/><path fill="#0c7cba" d="M762-1121V0H467v-1121H61v-228h1107v228H762" id="aN"/><g id="j"><use transform="matrix(0.012044270833333327,0,0,0.012044270833333327,0,0)" xlink:href="#ac"/><use transform="matrix(0.012044270833333327,0,0,0.012044270833333327,14.802408854166659,0)" xlink:href="#ad"/><use transform="matrix(0.012044270833333327,0,0,0.012044270833333327,29.604817708333318,0)" xlink:href="#aK"/><use transform="matrix(0.012044270833333327,0,0,0.012044270833333327,44.40722656249998,0)" xlink:href="#aL"/><use transform="matrix(0.012044270833333327,0,0,0.012044270833333327,59.209635416666636,0)" xlink:href="#aM"/><use transform="matrix(0.012044270833333327,0,0,0.012044270833333327,74.0120442708333,0)" xlink:href="#W"/><use transform="matrix(0.012044270833333327,0,0,0.012044270833333327,88.81445312499996,0)" xlink:href="#aG"/><use transform="matrix(0.012044270833333327,0,0,0.012044270833333327,103.61686197916661,0)" xlink:href="#T"/><use transform="matrix(0.012044270833333327,0,0,0.012044270833333327,118.41927083333327,0)" xlink:href="#aN"/><use transform="matrix(0.012044270833333327,0,0,0.012044270833333327,133.22167968749994,0)" xlink:href="#Z"/><use transform="matrix(0.012044270833333327,0,0,0.012044270833333327,148.0240885416666,0)" xlink:href="#T"/><use transform="matrix(0.012044270833333327,0,0,0.012044270833333327,162.82649739583326,0)" xlink:href="#T"/></g><path fill="#0c7cba" d="M199-751v-284h290v284H199zm290 472c6 239 0 472-108 597H193c68-80 125-182 137-319H199v-279h290" id="aO"/><use transform="matrix(0.012044270833333327,0,0,0.012044270833333327,0,0)" xlink:href="#aO" id="k"/><path fill="#0c7cba" d="M874 0L612-392 348 0H49l406-559-387-523h303l241 354 240-354h305L770-562 1179 0H874" id="aP"/><path fill="#0c7cba" d="M143 212c82 12 185 12 233-31 50-45 83-117 110-192L38-1082h297c100 284 211 557 291 861 72-305 176-578 270-861h294L742 57c-80 192-156 368-417 368-60 0-131-4-182-13V212" id="aQ"/><g id="l"><use transform="matrix(0.012044270833333327,0,0,0.012044270833333327,0,0)" xlink:href="#ac"/><use transform="matrix(0.012044270833333327,0,0,0.012044270833333327,14.802408854166659,0)" xlink:href="#ad"/><use transform="matrix(0.012044270833333327,0,0,0.012044270833333327,29.604817708333318,0)" xlink:href="#aK"/><use transform="matrix(0.012044270833333327,0,0,0.012044270833333327,44.40722656249998,0)" xlink:href="#T"/><use transform="matrix(0.012044270833333327,0,0,0.012044270833333327,59.209635416666636,0)" xlink:href="#aP"/><use transform="matrix(0.012044270833333327,0,0,0.012044270833333327,74.0120442708333,0)" xlink:href="#aG"/><use transform="matrix(0.012044270833333327,0,0,0.012044270833333327,88.81445312499996,0)" xlink:href="#T"/><use transform="matrix(0.012044270833333327,0,0,0.012044270833333327,103.61686197916661,0)" xlink:href="#V"/><use transform="matrix(0.012044270833333327,0,0,0.012044270833333327,118.41927083333327,0)" xlink:href="#ad"/><use transform="matrix(0.012044270833333327,0,0,0.012044270833333327,133.22167968749994,0)" xlink:href="#ac"/><use transform="matrix(0.012044270833333327,0,0,0.012044270833333327,148.0240885416666,0)" xlink:href="#aN"/><use transform="matrix(0.012044270833333327,0,0,0.012044270833333327,162.82649739583326,0)" xlink:href="#aQ"/><use transform="matrix(0.012044270833333327,0,0,0.012044270833333327,177.62890624999991,0)" xlink:href="#aG"/><use transform="matrix(0.012044270833333327,0,0,0.012044270833333327,192.43131510416657,0)" xlink:href="#T"/></g><path fill="#0c7cba" d="M872-915c-35-112-84-223-220-223-91 0-156 41-204 116-89 137-87 550 2 688 51 79 116 122 209 122 150 0 197-126 240-244l273 52C1094-168 961 20 656 20 239 20 80-262 80-681c0-418 154-689 568-689 289 0 425 167 496 389" id="aR"/><g id="m"><use transform="matrix(0.012044270833333327,0,0,0.012044270833333327,0,0)" xlink:href="#ac"/><use transform="matrix(0.012044270833333327,0,0,0.012044270833333327,14.802408854166659,0)" xlink:href="#ad"/><use transform="matrix(0.012044270833333327,0,0,0.012044270833333327,29.604817708333318,0)" xlink:href="#aK"/><use transform="matrix(0.012044270833333327,0,0,0.012044270833333327,44.40722656249998,0)" xlink:href="#aL"/><use transform="matrix(0.012044270833333327,0,0,0.012044270833333327,59.209635416666636,0)" xlink:href="#aM"/><use transform="matrix(0.012044270833333327,0,0,0.012044270833333327,74.0120442708333,0)" xlink:href="#W"/><use transform="matrix(0.012044270833333327,0,0,0.012044270833333327,88.81445312499996,0)" xlink:href="#aG"/><use transform="matrix(0.012044270833333327,0,0,0.012044270833333327,103.61686197916661,0)" xlink:href="#T"/><use transform="matrix(0.012044270833333327,0,0,0.012044270833333327,118.41927083333327,0)" xlink:href="#aN"/><use transform="matrix(0.012044270833333327,0,0,0.012044270833333327,133.22167968749994,0)" xlink:href="#Z"/><use transform="matrix(0.012044270833333327,0,0,0.012044270833333327,148.0240885416666,0)" xlink:href="#T"/><use transform="matrix(0.012044270833333327,0,0,0.012044270833333327,162.82649739583326,0)" xlink:href="#T"/><use transform="matrix(0.012044270833333327,0,0,0.012044270833333327,177.62890624999991,0)" xlink:href="#aR"/><use transform="matrix(0.012044270833333327,0,0,0.012044270833333327,192.43131510416657,0)" xlink:href="#ae"/><use transform="matrix(0.012044270833333327,0,0,0.012044270833333327,207.23372395833323,0)" xlink:href="#af"/><use transform="matrix(0.012044270833333327,0,0,0.012044270833333327,222.0361328124999,0)" xlink:href="#ad"/><use transform="matrix(0.012044270833333327,0,0,0.012044270833333327,236.83854166666654,0)" xlink:href="#W"/><use transform="matrix(0.012044270833333327,0,0,0.012044270833333327,251.6409505208332,0)" xlink:href="#ab"/><use transform="matrix(0.012044270833333327,0,0,0.012044270833333327,266.4433593749999,0)" xlink:href="#af"/><use transform="matrix(0.012044270833333327,0,0,0.012044270833333327,281.2457682291666,0)" xlink:href="#T"/><use transform="matrix(0.012044270833333327,0,0,0.012044270833333327,296.04817708333326,0)" xlink:href="#Z"/></g><path fill="#0c7cba" d="M774 0H438L31-1082h297c94 290 200 568 280 872 83-304 194-581 291-872h294" id="aS"/><path fill="#0c7cba" d="M836-709c204 20 350 118 350 324C1186-112 992 0 719 0H137v-1349h525c258 3 443 87 443 339 0 176-107 269-269 301zM643-811c107 0 165-53 165-159 0-113-61-160-167-160H432v319h211zm46 592c128-1 201-59 200-191-1-128-80-183-207-183H432v374h257" id="aT"/><g id="n"><use transform="matrix(0.012044270833333327,0,0,0.012044270833333327,0,0)" xlink:href="#ac"/><use transform="matrix(0.012044270833333327,0,0,0.012044270833333327,14.802408854166659,0)" xlink:href="#ad"/><use transform="matrix(0.012044270833333327,0,0,0.012044270833333327,29.604817708333318,0)" xlink:href="#aK"/><use transform="matrix(0.012044270833333327,0,0,0.012044270833333327,44.40722656249998,0)" xlink:href="#aS"/><use transform="matrix(0.012044270833333327,0,0,0.012044270833333327,59.209635416666636,0)" xlink:href="#W"/><use transform="matrix(0.012044270833333327,0,0,0.012044270833333327,74.0120442708333,0)" xlink:href="#aH"/><use transform="matrix(0.012044270833333327,0,0,0.012044270833333327,88.81445312499996,0)" xlink:href="#ab"/><use transform="matrix(0.012044270833333327,0,0,0.012044270833333327,103.61686197916661,0)" xlink:href="#Q"/><use transform="matrix(0.012044270833333327,0,0,0.012044270833333327,118.41927083333327,0)" xlink:href="#W"/><use transform="matrix(0.012044270833333327,0,0,0.012044270833333327,133.22167968749994,0)" xlink:href="#ad"/><use transform="matrix(0.012044270833333327,0,0,0.012044270833333327,148.0240885416666,0)" xlink:href="#T"/><use transform="matrix(0.012044270833333327,0,0,0.012044270833333327,162.82649739583326,0)" xlink:href="#Q"/><use transform="matrix(0.012044270833333327,0,0,0.012044270833333327,177.62890624999991,0)" xlink:href="#aT"/><use transform="matrix(0.012044270833333327,0,0,0.012044270833333327,192.43131510416657,0)" xlink:href="#aQ"/></g><path fill="#0c7cba" d="M1229 0H935l-92-330H387L295 0H0l443-1349h344zM615-1167c-46 213-110 412-166 615h332c-56-204-119-401-166-615" id="aU"/><path fill="#0c7cba" d="M1157-949c0 209-118 316-279 368L1227 0H895L605-515H432V0H137v-1349h494c317-2 526 111 526 400zM608-744c158 1 248-51 252-193 5-207-223-184-428-183v376h176" id="aV"/><g id="o"><use transform="matrix(0.012044270833333327,0,0,0.012044270833333327,0,0)" xlink:href="#aF"/><use transform="matrix(0.012044270833333327,0,0,0.012044270833333327,14.802408854166659,0)" xlink:href="#Y"/><use transform="matrix(0.012044270833333327,0,0,0.012044270833333327,29.604817708333318,0)" xlink:href="#aU"/><use transform="matrix(0.012044270833333327,0,0,0.012044270833333327,44.40722656249998,0)" xlink:href="#aG"/><use transform="matrix(0.012044270833333327,0,0,0.012044270833333327,59.209635416666636,0)" xlink:href="#aG"/><use transform="matrix(0.012044270833333327,0,0,0.012044270833333327,74.0120442708333,0)" xlink:href="#aH"/><use transform="matrix(0.012044270833333327,0,0,0.012044270833333327,88.81445312499996,0)" xlink:href="#ab"/><use transform="matrix(0.012044270833333327,0,0,0.012044270833333327,103.61686197916661,0)" xlink:href="#V"/><use transform="matrix(0.012044270833333327,0,0,0.012044270833333327,118.41927083333327,0)" xlink:href="#W"/><use transform="matrix(0.012044270833333327,0,0,0.012044270833333327,133.22167968749994,0)" xlink:href="#ad"/><use transform="matrix(0.012044270833333327,0,0,0.012044270833333327,148.0240885416666,0)" xlink:href="#ab"/><use transform="matrix(0.012044270833333327,0,0,0.012044270833333327,162.82649739583326,0)" xlink:href="#ae"/><use transform="matrix(0.012044270833333327,0,0,0.012044270833333327,177.62890624999991,0)" xlink:href="#af"/><use transform="matrix(0.012044270833333327,0,0,0.012044270833333327,192.43131510416657,0)" xlink:href="#aV"/><use transform="matrix(0.012044270833333327,0,0,0.012044270833333327,207.23372395833323,0)" xlink:href="#T"/><use transform="matrix(0.012044270833333327,0,0,0.012044270833333327,222.0361328124999,0)" xlink:href="#aa"/><use transform="matrix(0.012044270833333327,0,0,0.012044270833333327,236.83854166666654,0)" xlink:href="#ab"/><use transform="matrix(0.012044270833333327,0,0,0.012044270833333327,251.6409505208332,0)" xlink:href="#ac"/><use transform="matrix(0.012044270833333327,0,0,0.012044270833333327,266.4433593749999,0)" xlink:href="#ad"/><use transform="matrix(0.012044270833333327,0,0,0.012044270833333327,281.2457682291666,0)" xlink:href="#Z"/><use transform="matrix(0.012044270833333327,0,0,0.012044270833333327,296.04817708333326,0)" xlink:href="#W"/><use transform="matrix(0.012044270833333327,0,0,0.012044270833333327,310.85058593749994,0)" xlink:href="#ad"/><use transform="matrix(0.012044270833333327,0,0,0.012044270833333327,325.65299479166663,0)" xlink:href="#ab"/><use transform="matrix(0.012044270833333327,0,0,0.012044270833333327,340.4554036458333,0)" xlink:href="#ae"/><use transform="matrix(0.012044270833333327,0,0,0.012044270833333327,355.2578125,0)" xlink:href="#af"/><use transform="matrix(0.012044270833333327,0,0,0.012044270833333327,370.0602213541667,0)" xlink:href="#aL"/><use transform="matrix(0.012044270833333327,0,0,0.012044270833333327,384.86263020833337,0)" xlink:href="#aM"/><use transform="matrix(0.012044270833333327,0,0,0.012044270833333327,399.66503906250006,0)" xlink:href="#W"/><use transform="matrix(0.012044270833333327,0,0,0.012044270833333327,414.4674479166667,0)" xlink:href="#aG"/><use transform="matrix(0.012044270833333327,0,0,0.012044270833333327,429.2698567708335,0)" xlink:href="#T"/><use transform="matrix(0.012044270833333327,0,0,0.012044270833333327,444.0722656250001,0)" xlink:href="#aJ"/></g><path fill="#0c7cba" d="M470 0v-305h289V0H470" id="aW"/><use transform="matrix(0.012044270833333327,0,0,0.012044270833333327,0,0)" xlink:href="#aW" id="p"/><g id="q"><use transform="matrix(0.012044270833333327,0,0,0.012044270833333327,0,0)" xlink:href="#aF"/><use transform="matrix(0.012044270833333327,0,0,0.012044270833333327,14.802408854166659,0)" xlink:href="#Y"/><use transform="matrix(0.012044270833333327,0,0,0.012044270833333327,29.604817708333318,0)" xlink:href="#aU"/><use transform="matrix(0.012044270833333327,0,0,0.012044270833333327,44.40722656249998,0)" xlink:href="#aG"/><use transform="matrix(0.012044270833333327,0,0,0.012044270833333327,59.209635416666636,0)" xlink:href="#aG"/><use transform="matrix(0.012044270833333327,0,0,0.012044270833333327,74.0120442708333,0)" xlink:href="#aH"/><use transform="matrix(0.012044270833333327,0,0,0.012044270833333327,88.81445312499996,0)" xlink:href="#ab"/><use transform="matrix(0.012044270833333327,0,0,0.012044270833333327,103.61686197916661,0)" xlink:href="#V"/><use transform="matrix(0.012044270833333327,0,0,0.012044270833333327,118.41927083333327,0)" xlink:href="#W"/><use transform="matrix(0.012044270833333327,0,0,0.012044270833333327,133.22167968749994,0)" xlink:href="#ad"/><use transform="matrix(0.012044270833333327,0,0,0.012044270833333327,148.0240885416666,0)" xlink:href="#ab"/><use transform="matrix(0.012044270833333327,0,0,0.012044270833333327,162.82649739583326,0)" xlink:href="#ae"/><use transform="matrix(0.012044270833333327,0,0,0.012044270833333327,177.62890624999991,0)" xlink:href="#af"/><use transform="matrix(0.012044270833333327,0,0,0.012044270833333327,192.43131510416657,0)" xlink:href="#aV"/><use transform="matrix(0.012044270833333327,0,0,0.012044270833333327,207.23372395833323,0)" xlink:href="#T"/><use transform="matrix(0.012044270833333327,0,0,0.012044270833333327,222.0361328124999,0)" xlink:href="#aa"/><use transform="matrix(0.012044270833333327,0,0,0.012044270833333327,236.83854166666654,0)" xlink:href="#ab"/><use transform="matrix(0.012044270833333327,0,0,0.012044270833333327,251.6409505208332,0)" xlink:href="#ac"/><use transform="matrix(0.012044270833333327,0,0,0.012044270833333327,266.4433593749999,0)" xlink:href="#ad"/><use transform="matrix(0.012044270833333327,0,0,0.012044270833333327,281.2457682291666,0)" xlink:href="#Z"/><use transform="matrix(0.012044270833333327,0,0,0.012044270833333327,296.04817708333326,0)" xlink:href="#W"/><use transform="matrix(0.012044270833333327,0,0,0.012044270833333327,310.85058593749994,0)" xlink:href="#ad"/><use transform="matrix(0.012044270833333327,0,0,0.012044270833333327,325.65299479166663,0)" xlink:href="#ab"/><use transform="matrix(0.012044270833333327,0,0,0.012044270833333327,340.4554036458333,0)" xlink:href="#ae"/><use transform="matrix(0.012044270833333327,0,0,0.012044270833333327,355.2578125,0)" xlink:href="#af"/><use transform="matrix(0.012044270833333327,0,0,0.012044270833333327,370.0602213541667,0)" xlink:href="#aL"/><use transform="matrix(0.012044270833333327,0,0,0.012044270833333327,384.86263020833337,0)" xlink:href="#aM"/><use transform="matrix(0.012044270833333327,0,0,0.012044270833333327,399.66503906250006,0)" xlink:href="#W"/><use transform="matrix(0.012044270833333327,0,0,0.012044270833333327,414.4674479166667,0)" xlink:href="#aG"/><use transform="matrix(0.012044270833333327,0,0,0.012044270833333327,429.2698567708335,0)" xlink:href="#T"/><use transform="matrix(0.012044270833333327,0,0,0.012044270833333327,444.0722656250001,0)" xlink:href="#aJ"/></g><path fill="#0c7cba" d="M685 25c1 134 43 209 172 209h188v191H718c-189-5-295-108-295-299v-328c1-155-78-228-229-229v-195c150-4 229-75 229-231v-328c-2-190 109-299 295-299h327v190H857c-129 1-171 76-172 209v301c-5 144-88 222-207 252v4c118 31 207 107 207 252V25" id="aX"/><use transform="matrix(0.012044270833333327,0,0,0.012044270833333327,0,0)" xlink:href="#aX" id="r"/><use transform="matrix(0.012044270833333327,0,0,0.012044270833333327,0,0)" xlink:href="#W" id="t"/><path fill="#0c7cba" d="M373 425v-1909h602v190H639V234h336v191H373" id="aY"/><use transform="matrix(0.012044270833333327,0,0,0.012044270833333327,0,0)" xlink:href="#aY" id="u"/><g id="v"><use transform="matrix(0.012044270833333327,0,0,0.012044270833333327,0,0)" xlink:href="#T"/><use transform="matrix(0.012044270833333327,0,0,0.012044270833333327,14.802408854166659,0)" xlink:href="#V"/><use transform="matrix(0.012044270833333327,0,0,0.012044270833333327,29.604817708333318,0)" xlink:href="#ae"/><use transform="matrix(0.012044270833333327,0,0,0.012044270833333327,44.40722656249998,0)" xlink:href="#aK"/><use transform="matrix(0.012044270833333327,0,0,0.012044270833333327,59.209635416666636,0)" xlink:href="#aU"/><use transform="matrix(0.012044270833333327,0,0,0.012044270833333327,74.0120442708333,0)" xlink:href="#aG"/><use transform="matrix(0.012044270833333327,0,0,0.012044270833333327,88.81445312499996,0)" xlink:href="#aG"/><use transform="matrix(0.012044270833333327,0,0,0.012044270833333327,103.61686197916661,0)" xlink:href="#aH"/><use transform="matrix(0.012044270833333327,0,0,0.012044270833333327,118.41927083333327,0)" xlink:href="#ab"/><use transform="matrix(0.012044270833333327,0,0,0.012044270833333327,133.22167968749994,0)" xlink:href="#V"/><use transform="matrix(0.012044270833333327,0,0,0.012044270833333327,148.0240885416666,0)" xlink:href="#W"/><use transform="matrix(0.012044270833333327,0,0,0.012044270833333327,162.82649739583326,0)" xlink:href="#ad"/><use transform="matrix(0.012044270833333327,0,0,0.012044270833333327,177.62890624999991,0)" xlink:href="#ab"/><use transform="matrix(0.012044270833333327,0,0,0.012044270833333327,192.43131510416657,0)" xlink:href="#ae"/><use transform="matrix(0.012044270833333327,0,0,0.012044270833333327,207.23372395833323,0)" xlink:href="#af"/><use transform="matrix(0.012044270833333327,0,0,0.012044270833333327,222.0361328124999,0)" xlink:href="#aV"/><use transform="matrix(0.012044270833333327,0,0,0.012044270833333327,236.83854166666654,0)" xlink:href="#T"/><use transform="matrix(0.012044270833333327,0,0,0.012044270833333327,251.6409505208332,0)" xlink:href="#aa"/><use transform="matrix(0.012044270833333327,0,0,0.012044270833333327,266.4433593749999,0)" xlink:href="#ab"/><use transform="matrix(0.012044270833333327,0,0,0.012044270833333327,281.2457682291666,0)" xlink:href="#ac"/><use transform="matrix(0.012044270833333327,0,0,0.012044270833333327,296.04817708333326,0)" xlink:href="#ad"/><use transform="matrix(0.012044270833333327,0,0,0.012044270833333327,310.85058593749994,0)" xlink:href="#Z"/><use transform="matrix(0.012044270833333327,0,0,0.012044270833333327,325.65299479166663,0)" xlink:href="#W"/><use transform="matrix(0.012044270833333327,0,0,0.012044270833333327,340.4554036458333,0)" xlink:href="#ad"/><use transform="matrix(0.012044270833333327,0,0,0.012044270833333327,355.2578125,0)" xlink:href="#ab"/><use transform="matrix(0.012044270833333327,0,0,0.012044270833333327,370.0602213541667,0)" xlink:href="#ae"/><use transform="matrix(0.012044270833333327,0,0,0.012044270833333327,384.86263020833337,0)" xlink:href="#af"/></g><path fill="#0c7cba" d="M254 425V234h336v-1528H254v-190h602V425H254" id="aZ"/><use transform="matrix(0.012044270833333327,0,0,0.012044270833333327,0,0)" xlink:href="#aZ" id="w"/><use transform="matrix(0.012044270833333327,0,0,0.012044270833333327,0,0)" xlink:href="#aO" id="x"/><g id="y"><use transform="matrix(0.012044270833333327,0,0,0.012044270833333327,0,0)" xlink:href="#T"/><use transform="matrix(0.012044270833333327,0,0,0.012044270833333327,14.802408854166659,0)" xlink:href="#V"/><use transform="matrix(0.012044270833333327,0,0,0.012044270833333327,29.604817708333318,0)" xlink:href="#ae"/><use transform="matrix(0.012044270833333327,0,0,0.012044270833333327,44.40722656249998,0)" xlink:href="#aK"/><use transform="matrix(0.012044270833333327,0,0,0.012044270833333327,59.209635416666636,0)" xlink:href="#Z"/><use transform="matrix(0.012044270833333327,0,0,0.012044270833333327,74.0120442708333,0)" xlink:href="#T"/><use transform="matrix(0.012044270833333327,0,0,0.012044270833333327,88.81445312499996,0)" xlink:href="#aa"/><use transform="matrix(0.012044270833333327,0,0,0.012044270833333327,103.61686197916661,0)" xlink:href="#ab"/><use transform="matrix(0.012044270833333327,0,0,0.012044270833333327,118.41927083333327,0)" xlink:href="#ac"/><use transform="matrix(0.012044270833333327,0,0,0.012044270833333327,133.22167968749994,0)" xlink:href="#ad"/><use transform="matrix(0.012044270833333327,0,0,0.012044270833333327,148.0240885416666,0)" xlink:href="#T"/><use transform="matrix(0.012044270833333327,0,0,0.012044270833333327,162.82649739583326,0)" xlink:href="#Z"/><use transform="matrix(0.012044270833333327,0,0,0.012044270833333327,177.62890624999991,0)" xlink:href="#T"/><use transform="matrix(0.012044270833333327,0,0,0.012044270833333327,192.43131510416657,0)" xlink:href="#Q"/><use transform="matrix(0.012044270833333327,0,0,0.012044270833333327,207.23372395833323,0)" xlink:href="#aT"/><use transform="matrix(0.012044270833333327,0,0,0.012044270833333327,222.0361328124999,0)" xlink:href="#aQ"/></g><path fill="#0c7cba" d="M157-1349h916v228H762v893h311V0H157v-228h311v-893H157v-228" id="ba"/><g id="z"><use transform="matrix(0.012044270833333327,0,0,0.012044270833333327,0,0)" xlink:href="#ba"/><use transform="matrix(0.012044270833333327,0,0,0.012044270833333327,14.802408854166659,0)" xlink:href="#aV"/><use transform="matrix(0.012044270833333327,0,0,0.012044270833333327,29.604817708333318,0)" xlink:href="#ba"/></g><path fill="#0c7cba" d="M1018 0H770c-49-215-106-420-154-636C567-419 511-214 459 0H211L0-1349h259c35 320 94 617 105 961 37-206 100-393 154-583h195c54 191 118 375 154 583 14-339 68-641 102-961h259" id="bb"/><g id="A"><use transform="matrix(0.012044270833333327,0,0,0.012044270833333327,0,0)" xlink:href="#T"/><use transform="matrix(0.012044270833333327,0,0,0.012044270833333327,14.802408854166659,0)" xlink:href="#V"/><use transform="matrix(0.012044270833333327,0,0,0.012044270833333327,29.604817708333318,0)" xlink:href="#ae"/><use transform="matrix(0.012044270833333327,0,0,0.012044270833333327,44.40722656249998,0)" xlink:href="#aK"/><use transform="matrix(0.012044270833333327,0,0,0.012044270833333327,59.209635416666636,0)" xlink:href="#Z"/><use transform="matrix(0.012044270833333327,0,0,0.012044270833333327,74.0120442708333,0)" xlink:href="#T"/><use transform="matrix(0.012044270833333327,0,0,0.012044270833333327,88.81445312499996,0)" xlink:href="#aa"/><use transform="matrix(0.012044270833333327,0,0,0.012044270833333327,103.61686197916661,0)" xlink:href="#ab"/><use transform="matrix(0.012044270833333327,0,0,0.012044270833333327,118.41927083333327,0)" xlink:href="#ac"/><use transform="matrix(0.012044270833333327,0,0,0.012044270833333327,133.22167968749994,0)" xlink:href="#ad"/><use transform="matrix(0.012044270833333327,0,0,0.012044270833333327,148.0240885416666,0)" xlink:href="#T"/><use transform="matrix(0.012044270833333327,0,0,0.012044270833333327,162.82649739583326,0)" xlink:href="#Z"/><use transform="matrix(0.012044270833333327,0,0,0.012044270833333327,177.62890624999991,0)" xlink:href="#T"/><use transform="matrix(0.012044270833333327,0,0,0.012044270833333327,192.43131510416657,0)" xlink:href="#Q"/><use transform="matrix(0.012044270833333327,0,0,0.012044270833333327,207.23372395833323,0)" xlink:href="#bb"/><use transform="matrix(0.012044270833333327,0,0,0.012044270833333327,222.0361328124999,0)" xlink:href="#ab"/><use transform="matrix(0.012044270833333327,0,0,0.012044270833333327,236.83854166666654,0)" xlink:href="#ad"/><use transform="matrix(0.012044270833333327,0,0,0.012044270833333327,251.6409505208332,0)" xlink:href="#aM"/></g><g id="B"><use transform="matrix(0.012044270833333327,0,0,0.012044270833333327,0,0)" xlink:href="#T"/><use transform="matrix(0.012044270833333327,0,0,0.012044270833333327,14.802408854166659,0)" xlink:href="#V"/><use transform="matrix(0.012044270833333327,0,0,0.012044270833333327,29.604817708333318,0)" xlink:href="#ae"/><use transform="matrix(0.012044270833333327,0,0,0.012044270833333327,44.40722656249998,0)" xlink:href="#aK"/><use transform="matrix(0.012044270833333327,0,0,0.012044270833333327,59.209635416666636,0)" xlink:href="#Z"/><use transform="matrix(0.012044270833333327,0,0,0.012044270833333327,74.0120442708333,0)" xlink:href="#T"/><use transform="matrix(0.012044270833333327,0,0,0.012044270833333327,88.81445312499996,0)" xlink:href="#aa"/><use transform="matrix(0.012044270833333327,0,0,0.012044270833333327,103.61686197916661,0)" xlink:href="#ab"/><use transform="matrix(0.012044270833333327,0,0,0.012044270833333327,118.41927083333327,0)" xlink:href="#ac"/><use transform="matrix(0.012044270833333327,0,0,0.012044270833333327,133.22167968749994,0)" xlink:href="#ad"/><use transform="matrix(0.012044270833333327,0,0,0.012044270833333327,148.0240885416666,0)" xlink:href="#T"/><use transform="matrix(0.012044270833333327,0,0,0.012044270833333327,162.82649739583326,0)" xlink:href="#Z"/><use transform="matrix(0.012044270833333327,0,0,0.012044270833333327,177.62890624999991,0)" xlink:href="#T"/><use transform="matrix(0.012044270833333327,0,0,0.012044270833333327,192.43131510416657,0)" xlink:href="#Q"/><use transform="matrix(0.012044270833333327,0,0,0.012044270833333327,207.23372395833323,0)" xlink:href="#aU"/><use transform="matrix(0.012044270833333327,0,0,0.012044270833333327,222.0361328124999,0)" xlink:href="#ad"/></g><path fill="#0c7cba" d="M934-1102c199 0 220 177 220 381V0H926c-2-260 10-533-4-785-4-72-14-138-83-138-34 0-61 27-81 81s-29 134-29 241V0H501c-2-260 9-533-5-785-4-72-13-138-82-138-46 0-65 47-80 93-21 67-30 155-30 248V0H75c-3-360 6-732-6-1082h209c6 50 3 123 8 175 36-100 83-195 216-195 135 0 166 79 196 196 42-105 93-196 236-196" id="bc"/><g id="C"><use transform="matrix(0.012044270833333327,0,0,0.012044270833333327,0,0)" xlink:href="#aP"/><use transform="matrix(0.012044270833333327,0,0,0.012044270833333327,14.802408854166659,0)" xlink:href="#ac"/><use transform="matrix(0.012044270833333327,0,0,0.012044270833333327,29.604817708333318,0)" xlink:href="#Q"/><use transform="matrix(0.012044270833333327,0,0,0.012044270833333327,44.40722656249998,0)" xlink:href="#aK"/><use transform="matrix(0.012044270833333327,0,0,0.012044270833333327,59.209635416666636,0)" xlink:href="#Q"/><use transform="matrix(0.012044270833333327,0,0,0.012044270833333327,74.0120442708333,0)" xlink:href="#W"/><use transform="matrix(0.012044270833333327,0,0,0.012044270833333327,88.81445312499996,0)" xlink:href="#ad"/><use transform="matrix(0.012044270833333327,0,0,0.012044270833333327,103.61686197916661,0)" xlink:href="#T"/><use transform="matrix(0.012044270833333327,0,0,0.012044270833333327,118.41927083333327,0)" xlink:href="#aN"/><use transform="matrix(0.012044270833333327,0,0,0.012044270833333327,133.22167968749994,0)" xlink:href="#ab"/><use transform="matrix(0.012044270833333327,0,0,0.012044270833333327,148.0240885416666,0)" xlink:href="#bc"/><use transform="matrix(0.012044270833333327,0,0,0.012044270833333327,162.82649739583326,0)" xlink:href="#T"/></g><g id="D"><use transform="matrix(0.012044270833333327,0,0,0.012044270833333327,0,0)" xlink:href="#T"/><use transform="matrix(0.012044270833333327,0,0,0.012044270833333327,14.802408854166659,0)" xlink:href="#V"/><use transform="matrix(0.012044270833333327,0,0,0.012044270833333327,29.604817708333318,0)" xlink:href="#ae"/><use transform="matrix(0.012044270833333327,0,0,0.012044270833333327,44.40722656249998,0)" xlink:href="#aK"/><use transform="matrix(0.012044270833333327,0,0,0.012044270833333327,59.209635416666636,0)" xlink:href="#Z"/><use transform="matrix(0.012044270833333327,0,0,0.012044270833333327,74.0120442708333,0)" xlink:href="#T"/><use transform="matrix(0.012044270833333327,0,0,0.012044270833333327,88.81445312499996,0)" xlink:href="#aa"/><use transform="matrix(0.012044270833333327,0,0,0.012044270833333327,103.61686197916661,0)" xlink:href="#ab"/><use transform="matrix(0.012044270833333327,0,0,0.012044270833333327,118.41927083333327,0)" xlink:href="#ac"/><use transform="matrix(0.012044270833333327,0,0,0.012044270833333327,133.22167968749994,0)" xlink:href="#ad"/><use transform="matrix(0.012044270833333327,0,0,0.012044270833333327,148.0240885416666,0)" xlink:href="#T"/><use transform="matrix(0.012044270833333327,0,0,0.012044270833333327,162.82649739583326,0)" xlink:href="#Z"/><use transform="matrix(0.012044270833333327,0,0,0.012044270833333327,177.62890624999991,0)" xlink:href="#T"/><use transform="matrix(0.012044270833333327,0,0,0.012044270833333327,192.43131510416657,0)" xlink:href="#Q"/><use transform="matrix(0.012044270833333327,0,0,0.012044270833333327,207.23372395833323,0)" xlink:href="#aU"/><use transform="matrix(0.012044270833333327,0,0,0.012044270833333327,222.0361328124999,0)" xlink:href="#aG"/><use transform="matrix(0.012044270833333327,0,0,0.012044270833333327,236.83854166666654,0)" xlink:href="#aG"/><use transform="matrix(0.012044270833333327,0,0,0.012044270833333327,251.6409505208332,0)" xlink:href="#aH"/><use transform="matrix(0.012044270833333327,0,0,0.012044270833333327,266.4433593749999,0)" xlink:href="#ab"/><use transform="matrix(0.012044270833333327,0,0,0.012044270833333327,281.2457682291666,0)" xlink:href="#V"/><use transform="matrix(0.012044270833333327,0,0,0.012044270833333327,296.04817708333326,0)" xlink:href="#W"/><use transform="matrix(0.012044270833333327,0,0,0.012044270833333327,310.85058593749994,0)" xlink:href="#ad"/><use transform="matrix(0.012044270833333327,0,0,0.012044270833333327,325.65299479166663,0)" xlink:href="#ab"/><use transform="matrix(0.012044270833333327,0,0,0.012044270833333327,340.4554036458333,0)" xlink:href="#ae"/><use transform="matrix(0.012044270833333327,0,0,0.012044270833333327,355.2578125,0)" xlink:href="#af"/></g><g id="E"><use transform="matrix(0.012044270833333327,0,0,0.012044270833333327,0,0)" xlink:href="#ba"/><use transform="matrix(0.012044270833333327,0,0,0.012044270833333327,14.802408854166659,0)" xlink:href="#aV"/><use transform="matrix(0.012044270833333327,0,0,0.012044270833333327,29.604817708333318,0)" xlink:href="#ba"/></g><path fill="#0c7cba" d="M806 126c-4 191-105 299-295 299H184V234h188c129-1 171-75 172-209v-301c5-145 89-221 207-252v-4c-119-30-207-108-207-252v-301c-1-133-43-209-172-209H184v-190h327c186 0 295 109 295 299v328c-1 156 79 227 229 231v195c-151 1-229 74-229 229v328" id="bd"/><use transform="matrix(0.012044270833333327,0,0,0.012044270833333327,0,0)" xlink:href="#bd" id="F"/><path d="M1157-949c0 209-118 316-279 368L1227 0H895L605-515H432V0H137v-1349h494c317-2 526 111 526 400zM608-744c158 1 248-51 252-193 5-207-223-184-428-183v376h176" id="be"/><path d="M616-1102c361 0 521 202 521 560 0 354-171 562-527 562C259 20 92-192 92-542c0-351 169-560 524-560zm-9 930c200-2 236-165 236-370 0-199-27-367-223-367-195 0-233 146-233 367 0 129 18 223 55 282s92 88 165 88" id="bf"/><path d="M471 20c-247 0-336-169-336-415v-687h281v607c4 148 31 285 172 285 152 0 207-150 207-312v-580h281c4 359-9 736 8 1082H816c-7-63-11-146-12-215h-5C736-76 644 20 471 20" id="bg"/><path d="M1109-360C1066-122 902 20 624 20c-347 0-514-209-514-555 0-353 168-567 518-567 270 0 425 136 473 361l-283 14c-16-106-75-183-196-182-75 0-130 31-165 93s-52 152-52 270c0 249 74 374 221 374 120 0 188-82 201-201" id="bh"/><g id="G"><use transform="matrix(0.012044270833333327,0,0,0.012044270833333327,0,0)" xlink:href="#be"/><use transform="matrix(0.012044270833333327,0,0,0.012044270833333327,14.802408854166659,0)" xlink:href="#aB"/><use transform="matrix(0.012044270833333327,0,0,0.012044270833333327,29.604817708333318,0)" xlink:href="#aE"/><use transform="matrix(0.012044270833333327,0,0,0.012044270833333327,44.40722656249998,0)" xlink:href="#bf"/><use transform="matrix(0.012044270833333327,0,0,0.012044270833333327,59.209635416666636,0)" xlink:href="#bg"/><use transform="matrix(0.012044270833333327,0,0,0.012044270833333327,74.0120442708333,0)" xlink:href="#aD"/><use transform="matrix(0.012044270833333327,0,0,0.012044270833333327,88.81445312499996,0)" xlink:href="#bh"/><use transform="matrix(0.012044270833333327,0,0,0.012044270833333327,103.61686197916661,0)" xlink:href="#aB"/><use transform="matrix(0.012044270833333327,0,0,0.012044270833333327,118.41927083333327,0)" xlink:href="#aE"/></g><path d="M794-190h353V0H118v-190h395v-702H223v-190h571v892zM513-1277v-207h281v207H513" id="bi"/><path d="M768-1103c247 0 336 167 336 416V0H824v-619c-3-164-24-273-171-273-164 0-229 142-229 312V0H143c-4-359 9-736-8-1082h268c7 63 12 146 13 215h4c67-145 160-236 348-236" id="bj"/><g id="H"><use transform="matrix(0.012044270833333327,0,0,0.012044270833333327,0,0)" xlink:href="#bi"/><use transform="matrix(0.012044270833333327,0,0,0.012044270833333327,14.802408854166659,0)" xlink:href="#bj"/></g><path d="M616-1349c316 3 526 118 526 426 0 301-201 442-514 447H431V0H136v-1349h480zm-25 646c164 1 254-62 254-215 0-157-99-200-262-202H431v417h160" id="bk"/><path d="M802-909c-3-189-2-383-2-575h281v1248c-1 83 4 168 8 236H817c-9-50-14-117-15-176h-4C735-49 651 20 482 20 191 20 97-238 97-539c0-243 66-432 221-519 50-28 108-42 175-42 162 2 253 78 309 191zm-70 658c91-113 93-462 2-584-46-61-145-100-224-53-96 56-119 190-120 349 0 123 17 214 52 275 46 82 130 115 222 74 25-12 46-33 68-61" id="bl"/><g id="I"><use transform="matrix(0.012044270833333327,0,0,0.012044270833333327,0,0)" xlink:href="#bk"/><use transform="matrix(0.012044270833333327,0,0,0.012044270833333327,14.802408854166659,0)" xlink:href="#bf"/><use transform="matrix(0.012044270833333327,0,0,0.012044270833333327,29.604817708333318,0)" xlink:href="#bl"/></g><path fill="#834187" d="M157-1349h916v228H762v893h311V0H157v-228h311v-893H157v-228" id="bm"/><path fill="#834187" d="M1113-274C1038-96 884 20 626 20c-352 0-526-209-526-566 0-358 185-556 530-556 358 0 496 251 499 615H395c5 180 68 319 245 319 102 0 186-45 208-129zM857-663c-6-177-128-307-315-247-94 30-141 121-145 247h460" id="bn"/><g id="J"><use transform="matrix(0.010959201388888883,0,0,0.010959201388888883,0,0)" xlink:href="#bm"/><use transform="matrix(0.010959201388888883,0,0,0.010959201388888883,13.468858506944438,0)" xlink:href="#ai"/><use transform="matrix(0.010959201388888883,0,0,0.010959201388888883,26.937717013888875,0)" xlink:href="#an"/><use transform="matrix(0.010959201388888883,0,0,0.010959201388888883,40.406575520833314,0)" xlink:href="#bn"/><use transform="matrix(0.010959201388888883,0,0,0.010959201388888883,53.87543402777775,0)" xlink:href="#at"/><use transform="matrix(0.010959201388888883,0,0,0.010959201388888883,67.34429253472219,0)" xlink:href="#ai"/><use transform="matrix(0.010959201388888883,0,0,0.010959201388888883,80.81315104166663,0)" xlink:href="#as"/><use transform="matrix(0.010959201388888883,0,0,0.010959201388888883,94.28200954861109,0)" xlink:href="#ao"/></g><path fill="#834187" d="M1229 0H935l-92-330H387L295 0H0l443-1349h344zM615-1167c-46 213-110 412-166 615h332c-56-204-119-401-166-615" id="bo"/><path fill="#834187" d="M427-171c3 195 2 397 2 596H148V-846c1-83-4-168-8-236h272c10 49 14 118 15 176h4c59-114 151-197 316-197 291 0 385 259 385 560 0 243-65 433-220 521-50 28-109 42-176 42-162-2-253-78-309-191zm69-661c-91 113-92 463-1 586 46 62 145 101 225 54 96-57 118-191 119-351 0-123-18-215-53-276-46-82-128-115-220-74-25 12-48 33-70 61" id="bp"/><g id="K"><use transform="matrix(0.010959201388888883,0,0,0.010959201388888883,0,0)" xlink:href="#bo"/><use transform="matrix(0.010959201388888883,0,0,0.010959201388888883,13.468858506944438,0)" xlink:href="#bp"/><use transform="matrix(0.010959201388888883,0,0,0.010959201388888883,26.937717013888875,0)" xlink:href="#bp"/><use transform="matrix(0.010959201388888883,0,0,0.010959201388888883,40.406575520833314,0)" xlink:href="#ao"/><use transform="matrix(0.010959201388888883,0,0,0.010959201388888883,53.87543402777775,0)" xlink:href="#ak"/><use transform="matrix(0.010959201388888883,0,0,0.010959201388888883,67.34429253472219,0)" xlink:href="#ag"/><use transform="matrix(0.010959201388888883,0,0,0.010959201388888883,80.81315104166663,0)" xlink:href="#as"/><use transform="matrix(0.010959201388888883,0,0,0.010959201388888883,94.28200954861109,0)" xlink:href="#an"/><use transform="matrix(0.010959201388888883,0,0,0.010959201388888883,107.75086805555551,0)" xlink:href="#ak"/><use transform="matrix(0.010959201388888883,0,0,0.010959201388888883,121.21972656249996,0)" xlink:href="#ah"/><use transform="matrix(0.010959201388888883,0,0,0.010959201388888883,134.6885850694444,0)" xlink:href="#ai"/></g><path fill="#834187" d="M609-1161c-125 0-218 36-218 153 0 149 166 161 290 196 235 67 484 129 484 421 0 300-239 408-554 411C302 23 93-114 38-367l285-37c32 128 131 205 296 203 143-2 259-31 259-173 0-164-197-172-333-212-218-64-441-131-441-405 0-276 231-379 511-379 299 0 463 114 513 363l-286 29c-28-115-96-183-233-183" id="bq"/><g id="L"><use transform="matrix(0.010959201388888883,0,0,0.010959201388888883,0,0)" xlink:href="#bq"/><use transform="matrix(0.010959201388888883,0,0,0.010959201388888883,13.468858506944438,0)" xlink:href="#bp"/><use transform="matrix(0.010959201388888883,0,0,0.010959201388888883,26.937717013888875,0)" xlink:href="#as"/><use transform="matrix(0.010959201388888883,0,0,0.010959201388888883,40.406575520833314,0)" xlink:href="#ag"/><use transform="matrix(0.010959201388888883,0,0,0.010959201388888883,53.87543402777775,0)" xlink:href="#bn"/></g></defs></g></svg>