<svg xmlns="http://www.w3.org/2000/svg" xmlns:xlink="http://www.w3.org/1999/xlink" xmlns:lucid="lucid" width="2026.08" height="1160"><g transform="translate(-79.99999999999997 -80)" lucid:page-tab-id="3Ol84Y5keBbb"><path d="M100 106c0-3.3 2.7-6 6-6h113.46c3.3 0 6 2.7 6 6v62.67c0 3.3-2.7 6-6 6H106c-3.3 0-6-2.7-6-6z" stroke="#5e5e5e" stroke-width="3" fill="#fff"/><use xlink:href="#a" transform="matrix(1,0,0,1,99.99999999999997,100) translate(38.492654320987654 41.21527777777778)"/><path d="M100 1151.33c0-3.3 2.7-6 6-6h113.46c3.3 0 6 2.7 6 6V1214c0 3.3-2.7 6-6 6H106c-3.3 0-6-2.7-6-6z" stroke="#5e5e5e" stroke-width="3" fill="#fff"/><use xlink:href="#a" transform="matrix(1,0,0,1,99.99999999999997,1145.3333333333335) translate(38.492654320987654 41.21527777777778)"/><path d="M162.73 177.17v10.06m0 10.05v20.12m0 10.06v20.12m0 10.06v20.12m0 10.06v20.1m0 10.07v20.1m0 10.07v20.12m0 10.05v20.12m0 10.05v20.12m0 10.06v20.12m0 10.06V489m0 10.06v20.1m0 10.07v20.12m0 10.06v20.13m0 10.06v20.1m0 10.06v20.12m0 10.06v20.12m0 10.06v20.12m0 10.06v20.1m0 10.07v20.12m0 10.05v20.12m0 10.06v20.1m0 10.07v20.12m0 10.06v20.12m0 10.06v20.12m0 10.05v20.12m0 10.06v20.13m0 10.06v20.1m0 10.07v20.1m0 10.07v20.12m0 10.06v20.12m0 10.06v20.12m0 10.05v10.06" stroke="#5e5e5e" stroke-width="2" fill="none"/><path d="M163.73 177.2h-2v-1.03h2zM163.73 1143.83h-2v-1.02h2z" fill="#5e5e5e"/><path d="M691.95 106c0-3.3 2.68-6 6-6H811.4c3.32 0 6 2.7 6 6v62.67c0 3.3-2.68 6-6 6H697.95c-3.32 0-6-2.7-6-6z" stroke="#5e5e5e" stroke-width="3" fill="#fff"/><use xlink:href="#b" transform="matrix(1,0,0,1,691.9465325684045,100) translate(34.64080246913581 22.787777777777777)"/><use xlink:href="#c" transform="matrix(1,0,0,1,691.9465325684045,100) translate(27.998827160493825 49.45444444444445)"/><path d="M691.95 1151.33c0-3.3 2.68-6 6-6H811.4c3.32 0 6 2.7 6 6V1214c0 3.3-2.68 6-6 6H697.95c-3.32 0-6-2.7-6-6z" stroke="#5e5e5e" stroke-width="3" fill="#fff"/><use xlink:href="#b" transform="matrix(1,0,0,1,691.9465325684045,1145.3333333333335) translate(34.64080246913581 22.787777777777777)"/><use xlink:href="#c" transform="matrix(1,0,0,1,691.9465325684045,1145.3333333333335) translate(27.998827160493825 49.45444444444445)"/><path d="M754.67 177.17v10.06m0 10.05v20.12m0 10.06v20.12m0 10.06v20.12m0 10.06v20.1m0 10.07v20.1m0 10.07v20.12m0 10.05v20.12m0 10.05v20.12m0 10.06v20.12m0 10.06V489m0 10.06v20.1m0 10.07v20.12m0 10.06v20.13m0 10.06v20.1m0 10.06v20.12m0 10.06v20.12m0 10.06v20.12m0 10.06v20.1m0 10.07v20.12m0 10.05v20.12m0 10.06v20.1m0 10.07v20.12m0 10.06v20.12m0 10.06v20.12m0 10.05v20.12m0 10.06v20.13m0 10.06v20.1m0 10.07v20.1m0 10.07v20.12m0 10.06v20.12m0 10.06v20.12m0 10.05v10.06" stroke="#5e5e5e" stroke-width="2" fill="none"/><path d="M755.67 177.2h-2v-1.03h2zM755.67 1143.83h-2v-1.02h2z" fill="#5e5e5e"/><path d="M1140.82 106c0-3.3 2.7-6 6-6h113.46c3.3 0 6 2.7 6 6v62.67c0 3.3-2.7 6-6 6h-113.46c-3.3 0-6-2.7-6-6z" stroke="#5e5e5e" stroke-width="3" fill="#fff"/><use xlink:href="#d" transform="matrix(1,0,0,1,1140.8201527701785,100) translate(15.65314814814815 41.21527777777778)"/><use xlink:href="#e" transform="matrix(1,0,0,1,1140.8201527701785,100) translate(69.85067901234568 41.21527777777778)"/><path d="M1203.55 177.17v10.06m0 10.05v20.12m0 10.06v20.12m0 10.06v20.12m0 10.06v20.1m0 10.07v20.1m0 10.07v20.12m0 10.05v20.12m0 10.05v20.12m0 10.06v20.12m0 10.06V489m0 10.06v20.1m0 10.07v20.12m0 10.06v20.13m0 10.06v20.1m0 10.06v20.12m0 10.06v20.12m0 10.06v20.12m0 10.06v20.1m0 10.07v20.12m0 10.05v20.12m0 10.06v20.1m0 10.07v20.12m0 10.06v20.12m0 10.06v20.12m0 10.05v20.12m0 10.06v20.13m0 10.06v20.1m0 10.07v20.1m0 10.07v20.12m0 10.06v20.12m0 10.06v20.12m0 10.05v10.06" stroke="#5e5e5e" stroke-width="2" fill="none"/><path d="M1204.55 177.2h-2v-1.03h2zM1204.55 1143.83h-2v-1.02h2z" fill="#5e5e5e"/><path d="M1140.82 1151.33c0-3.3 2.7-6 6-6h113.46c3.3 0 6 2.7 6 6V1214c0 3.3-2.7 6-6 6h-113.46c-3.3 0-6-2.7-6-6z" stroke="#5e5e5e" stroke-width="3" fill="#fff"/><use xlink:href="#d" transform="matrix(1,0,0,1,1140.8201527701785,1145.3333333333335) translate(15.65314814814815 41.21527777777778)"/><use xlink:href="#e" transform="matrix(1,0,0,1,1140.8201527701785,1145.3333333333335) translate(69.85067901234568 41.21527777777778)"/><path d="M1709.7 106c0-3.3 2.7-6 6-6h113.47c3.3 0 6 2.7 6 6v62.67c0 3.3-2.7 6-6 6H1715.7c-3.3 0-6-2.7-6-6z" stroke="#5e5e5e" stroke-width="3" fill="#fff"/><use xlink:href="#d" transform="matrix(1,0,0,1,1709.7140165940878,100) translate(18.739567901234572 41.21527777777778)"/><use xlink:href="#f" transform="matrix(1,0,0,1,1709.7140165940878,100) translate(72.9370987654321 41.21527777777778)"/><path d="M1709.7 1151.33c0-3.3 2.7-6 6-6h113.47c3.3 0 6 2.7 6 6V1214c0 3.3-2.7 6-6 6H1715.7c-3.3 0-6-2.7-6-6z" stroke="#5e5e5e" stroke-width="3" fill="#fff"/><use xlink:href="#d" transform="matrix(1,0,0,1,1709.7140165940878,1145.3333333333335) translate(18.739567901234572 41.21527777777778)"/><use xlink:href="#f" transform="matrix(1,0,0,1,1709.7140165940878,1145.3333333333335) translate(72.9370987654321 41.21527777777778)"/><path d="M1772.44 177.17v10.06m0 10.05v20.12m0 10.06v20.12m0 10.06v20.12m0 10.06v20.1m0 10.07v20.1m0 10.07v20.12m0 10.05v20.12m0 10.05v20.12m0 10.06v20.12m0 10.06V489m0 10.06v20.1m0 10.07v20.12m0 10.06v20.13m0 10.06v20.1m0 10.06v20.12m0 10.06v20.12m0 10.06v20.12m0 10.06v20.1m0 10.07v20.12m0 10.05v20.12m0 10.06v20.1m0 10.07v20.12m0 10.06v20.12m0 10.06v20.12m0 10.05v20.12m0 10.06v20.13m0 10.06v20.1m0 10.07v20.1m0 10.07v20.12m0 10.06v20.12m0 10.06v20.12m0 10.05v10.06" stroke="#5e5e5e" stroke-width="2" fill="none"/><path d="M1773.44 177.2h-2v-1.03h2zM1773.44 1143.83h-2v-1.02h2z" fill="#5e5e5e"/><path d="M1960.63 106c0-3.3 2.68-6 6-6h113.45c3.32 0 6 2.7 6 6v62.67c0 3.3-2.68 6-6 6h-113.45c-3.32 0-6-2.7-6-6z" stroke="#5e5e5e" stroke-width="3" fill="#fff"/><use xlink:href="#g" transform="matrix(1,0,0,1,1960.6274178947183,100) translate(34.60993827160493 22.787777777777777)"/><use xlink:href="#h" transform="matrix(1,0,0,1,1960.6274178947183,100) translate(33.492654320987654 49.45444444444445)"/><path d="M1960.63 1151.33c0-3.3 2.68-6 6-6h113.45c3.32 0 6 2.7 6 6V1214c0 3.3-2.68 6-6 6h-113.45c-3.32 0-6-2.7-6-6z" stroke="#5e5e5e" stroke-width="3" fill="#fff"/><use xlink:href="#g" transform="matrix(1,0,0,1,1960.6274178947183,1145.3333333333335) translate(34.60993827160493 22.787777777777777)"/><use xlink:href="#h" transform="matrix(1,0,0,1,1960.6274178947183,1145.3333333333335) translate(33.492654320987654 49.45444444444445)"/><path d="M1771.44 488.8h-10.08m-10.08 0h-20.17m-10.08 0h-20.16m-10.1 0h-20.15m-10.08 0h-20.16m-10.1 0h-20.15m-10.08 0h-20.16m-10.1 0h-20.15m-10.08 0h-20.16m-10.1 0h-20.16m-10.08 0h-20.17m-10.08 0h-20.17m-10.08 0h-20.17m-10.08 0h-20.17m-10.08 0h-20.17m-10.08 0h-20.17m-10.08 0h-20.17m-10.08 0h-20.17m-10.08 0h-20.17m-10.08 0h-20.17m-10.08 0h-20.17m-10.08 0h-20.17m-10.08 0h-20.17m-10.08 0h-20.17m-10.1 0h-20.15m-10.1 0h-20.15m-10.1 0h-20.15m-10.1 0H944.6m-10.1 0h-20.15m-10.1 0H884.1m-10.1 0h-20.16m-10.08 0H823.6m-10.1 0h-20.16m-10.08 0h-10.08M1771.42 488.8h1.02" stroke="#5e5e5e" stroke-width="2" fill="none"/><path d="M757.9 488.8l14.28-4.64v9.27z" stroke="#5e5e5e" stroke-width="2" fill="#5e5e5e"/><use xlink:href="#i" transform="matrix(1,0,0,1,1070.1512174989964,463.4641027897437) translate(0 14.222222222222223)"/><use xlink:href="#j" transform="matrix(1,0,0,1,1070.1512174989964,463.4641027897437) translate(70.02469135802471 14.222222222222223)"/><use xlink:href="#k" transform="matrix(1,0,0,1,1070.1512174989964,463.4641027897437) translate(182.22222222222223 14.222222222222223)"/><use xlink:href="#l" transform="matrix(1,0,0,1,1070.1512174989964,463.4641027897437) translate(249.33333333333334 14.222222222222223)"/><use xlink:href="#m" transform="matrix(1,0,0,1,1070.1512174989964,463.4641027897437) translate(305.1358024691358 14.222222222222223)"/><use xlink:href="#n" transform="matrix(1,0,0,1,1070.1512174989964,463.4641027897437) translate(341.58024691358025 14.222222222222223)"/><path d="M163.73 220.83h572.44M163.75 220.83h-1.02" stroke="#5e5e5e" stroke-width="2" fill="none"/><path d="M751.44 220.83l-14.27 4.63v-9.27z" stroke="#5e5e5e" stroke-width="2" fill="#5e5e5e"/><use xlink:href="#o" transform="matrix(1,0,0,1,396.10902401676725,195.49487211282053) translate(0 14.222222222222223)"/><use xlink:href="#p" transform="matrix(1,0,0,1,396.10902401676725,195.49487211282053) translate(72.98765432098767 14.222222222222223)"/><use xlink:href="#q" transform="matrix(1,0,0,1,396.10902401676725,195.49487211282053) translate(94.6172839506173 14.222222222222223)"/><path d="M163.73 265.5h572.44M163.75 265.5h-1.02" stroke="#5e5e5e" stroke-width="2" fill="none"/><path d="M751.44 265.5l-14.27 4.63v-9.28z" stroke="#5e5e5e" stroke-width="2" fill="#5e5e5e"/><use xlink:href="#r" transform="matrix(1,0,0,1,391.34359191800183,240.15641055897441) translate(0 14.222222222222223)"/><use xlink:href="#s" transform="matrix(1,0,0,1,391.34359191800183,240.15641055897441) translate(79.90123456790124 14.222222222222223)"/><path d="M1202.55 399.47h-10.22m-10.23 0h-20.44m-10.23 0H1131m-10.24 0h-20.44m-10.23 0h-20.45m-10.23 0h-20.44m-10.22 0h-20.45m-10.2 0h-20.46m-10.22 0h-20.45m-10.22 0H916.3m-10.22 0h-20.45m-10.22 0h-20.44m-10.22 0H824.3m-10.23 0h-20.45m-10.22 0h-10.22M1202.52 399.47h1.03" stroke="#5e5e5e" stroke-width="2" fill="none"/><path d="M757.9 399.47l14.28-4.63v9.27z" stroke="#5e5e5e" stroke-width="2" fill="#5e5e5e"/><use xlink:href="#t" transform="matrix(1,0,0,1,933.284532500622,374.14102589743595) translate(0 14.222222222222223)"/><use xlink:href="#u" transform="matrix(1,0,0,1,933.284532500622,374.14102589743595) translate(62.024691358024704 14.222222222222223)"/><path d="M1202.55 578.12h-10.22m-10.23 0h-20.44m-10.23 0H1131m-10.24 0h-20.44m-10.23 0h-20.45m-10.23 0h-20.44m-10.22 0h-20.45m-10.2 0h-20.46m-10.22 0h-20.45m-10.22 0H916.3m-10.22 0h-20.45m-10.22 0h-20.44m-10.22 0H824.3m-10.23 0h-20.45m-10.22 0h-10.22M1202.52 578.12h1.03" stroke="#5e5e5e" stroke-width="2" fill="none"/><path d="M757.9 578.12l14.28-4.63v9.26z" stroke="#5e5e5e" stroke-width="2" fill="#5e5e5e"/><use xlink:href="#v" transform="matrix(1,0,0,1,835.3832979327208,552.7871796820515) translate(0 14.222222222222223)"/><use xlink:href="#w" transform="matrix(1,0,0,1,835.3832979327208,552.7871796820515) translate(28.543209876543212 14.222222222222223)"/><use xlink:href="#x" transform="matrix(1,0,0,1,835.3832979327208,552.7871796820515) translate(129.97530864197532 14.222222222222223)"/><use xlink:href="#y" transform="matrix(1,0,0,1,835.3832979327208,552.7871796820515) translate(238.32098765432102 14.222222222222223)"/><path d="M2023.36 177.17v10.06m0 10.05v20.12m0 10.06v20.12m0 10.06v20.12m0 10.06v20.1m0 10.07v20.1m0 10.07v20.12m0 10.05v20.12m0 10.05v20.12m0 10.06v20.12m0 10.06V489m0 10.06v20.1m0 10.07v20.12m0 10.06v20.13m0 10.06v20.1m0 10.06v20.12m0 10.06v20.12m0 10.06v20.12m0 10.06v20.1m0 10.07v20.12m0 10.05v20.12m0 10.06v20.1m0 10.07v20.12m0 10.06v20.12m0 10.06v20.12m0 10.05v20.12m0 10.06v20.13m0 10.06v20.1m0 10.07v20.1m0 10.07v20.12m0 10.06v20.12m0 10.06v20.12m0 10.05v10.06" stroke="#5e5e5e" stroke-width="2" fill="none"/><path d="M2024.36 177.2h-2v-1.03h2zM2024.36 1143.83h-2v-1.02h2z" fill="#5e5e5e"/><path d="M755.67 444.14h10.1m10.07 0H796m10.1 0h20.16m10.08 0h20.17m10.1 0h20.16m10.08 0H917m10.1 0h20.16m10.08 0h20.17m10.1 0h20.16m10.1 0H1038m10.1 0h20.16m10.1 0h20.15m10.1 0h20.16m10.1 0H1159m10.1 0h20.16m10.1 0h20.16m10.08 0h20.17m10.08 0h20.17m10.08 0h20.17m10.08 0h20.17m10.08 0h20.17m10.08 0h20.17m10.08 0h20.17m10.08 0h20.17m10.08 0h20.17m10.08 0h20.17m10.08 0h20.17m10.08 0h20.17m10.08 0h20.17m10.1 0H1643m10.1 0h20.15m10.1 0h20.15m10.1 0h20.15m10.1 0h10.07M755.7 444.14h-1.03" stroke="#5e5e5e" stroke-width="2" fill="none"/><path d="M1769.2 444.14l-14.26 4.63v-9.27z" stroke="#5e5e5e" stroke-width="2" fill="#5e5e5e"/><use xlink:href="#z" transform="matrix(1,0,0,1,1165.533933548379,418.8025643435898) translate(0 14.222222222222223)"/><use xlink:href="#A" transform="matrix(1,0,0,1,1165.533933548379,418.8025643435898) translate(62.07407407407408 14.222222222222223)"/><use xlink:href="#B" transform="matrix(1,0,0,1,1165.533933548379,418.8025643435898) translate(160.5925925925926 14.222222222222223)"/><path d="M755.67 354.8h10.23m10.22 0h20.45m10.22 0h20.44m10.22 0h20.45m10.23 0h20.45m10.22 0h20.45m10.22 0h20.44m10.24 0h20.44m10.23 0h20.45m10.23 0h20.44m10.23 0h20.44m10.22 0h20.44m10.22 0h20.45m10.22 0h20.45m10.22 0h10.23M755.7 354.8h-1.03" stroke="#5e5e5e" stroke-width="2" fill="none"/><path d="M1200.3 354.8l-14.25 4.65v-9.27z" stroke="#5e5e5e" stroke-width="2" fill="#5e5e5e"/><use xlink:href="#C" transform="matrix(1,0,0,1,833.3339152166714,329.47948745128207) translate(0 14.222222222222223)"/><use xlink:href="#D" transform="matrix(1,0,0,1,833.3339152166714,329.47948745128207) translate(58.17283950617284 14.222222222222223)"/><use xlink:href="#E" transform="matrix(1,0,0,1,833.3339152166714,329.47948745128207) translate(86.71604938271605 14.222222222222223)"/><use xlink:href="#F" transform="matrix(1,0,0,1,833.3339152166714,329.47948745128207) translate(188.14814814814815 14.222222222222223)"/><path d="M755.67 533.46h10.23m10.22 0h20.45m10.22 0h20.44m10.22 0h20.45m10.23 0h20.45m10.22 0h20.45m10.22 0h20.44m10.24 0h20.44m10.23 0h20.45m10.23 0h20.44m10.23 0h20.44m10.22 0h20.44m10.22 0h20.45m10.22 0h20.45m10.22 0h10.23M755.7 533.46h-1.03" stroke="#5e5e5e" stroke-width="2" fill="none"/><path d="M1200.3 533.46l-14.25 4.63v-9.28z" stroke="#5e5e5e" stroke-width="2" fill="#5e5e5e"/><use xlink:href="#C" transform="matrix(1,0,0,1,833.3339152166714,508.1256412358974) translate(0 14.222222222222223)"/><use xlink:href="#D" transform="matrix(1,0,0,1,833.3339152166714,508.1256412358974) translate(58.17283950617284 14.222222222222223)"/><use xlink:href="#E" transform="matrix(1,0,0,1,833.3339152166714,508.1256412358974) translate(86.71604938271605 14.222222222222223)"/><use xlink:href="#F" transform="matrix(1,0,0,1,833.3339152166714,508.1256412358974) translate(188.14814814814815 14.222222222222223)"/><path d="M753.67 310.15h-10.04m-10.04 0h-20.1m-10.04 0h-20.1m-10.03 0h-20.08m-10.05 0h-20.08m-10.05 0H593m-10.05 0h-20.1m-10.03 0h-20.1m-10.03 0h-20.1m-10.04 0h-20.1m-10.03 0h-20.08m-10.05 0h-20.08m-10.05 0H382.1m-10.05 0h-20.1m-10.03 0h-20.1m-10.03 0h-20.1m-10.04 0h-20.1m-10.03 0h-20.1m-10.03 0h-20.08m-10.05 0h-10.04M753.65 310.15h1.02" stroke="#5e5e5e" stroke-width="2" fill="none"/><path d="M165.96 310.15l14.27-4.63v9.27z" stroke="#5e5e5e" stroke-width="2" fill="#5e5e5e"/><use xlink:href="#G" transform="matrix(1,0,0,1,226.57815981923633,284.81794900512824) translate(0 14.222222222222223)"/><use xlink:href="#H" transform="matrix(1,0,0,1,226.57815981923633,284.81794900512824) translate(117.38271604938274 14.222222222222223)"/><use xlink:href="#I" transform="matrix(1,0,0,1,226.57815981923633,284.81794900512824) translate(178.81481481481484 14.222222222222223)"/><use xlink:href="#J" transform="matrix(1,0,0,1,226.57815981923633,284.81794900512824) translate(243.5061728395062 14.222222222222223)"/><use xlink:href="#K" transform="matrix(1,0,0,1,226.57815981923633,284.81794900512824) translate(284.8888888888889 14.222222222222223)"/><use xlink:href="#L" transform="matrix(1,0,0,1,226.57815981923633,284.81794900512824) translate(317.4320987654321 14.222222222222223)"/><use xlink:href="#M" transform="matrix(1,0,0,1,226.57815981923633,284.81794900512824) translate(377.58024691358025 14.222222222222223)"/><path d="M163.73 712.1h1841.12M163.75 712.1h-1.02" stroke="#5e5e5e" stroke-width="2" fill="none"/><path d="M2020.12 712.1l-14.27 4.64v-9.27z" stroke="#5e5e5e" stroke-width="2" fill="#5e5e5e"/><use xlink:href="#N" transform="matrix(1,0,0,1,844.7951456922699,686.7717950205131) translate(0 14.222222222222223)"/><use xlink:href="#O" transform="matrix(1,0,0,1,844.7951456922699,686.7717950205131) translate(50.27160493827161 14.222222222222223)"/><use xlink:href="#P" transform="matrix(1,0,0,1,844.7951456922699,686.7717950205131) translate(169.38271604938274 14.222222222222223)"/><use xlink:href="#Q" transform="matrix(1,0,0,1,844.7951456922699,686.7717950205131) translate(229.43209876543213 14.222222222222223)"/><use xlink:href="#R" transform="matrix(1,0,0,1,844.7951456922699,686.7717950205131) translate(315.11111111111114 14.222222222222223)"/><use xlink:href="#S" transform="matrix(1,0,0,1,844.7951456922699,686.7717950205131) translate(368.3950617283951 14.222222222222223)"/><use xlink:href="#T" transform="matrix(1,0,0,1,844.7951456922699,686.7717950205131) translate(433.4814814814815 14.222222222222223)"/><path d="M753.67 667.44h-10.04m-10.04 0h-20.1m-10.04 0h-20.1m-10.03 0h-20.08m-10.05 0h-20.08m-10.05 0H593m-10.05 0h-20.1m-10.03 0h-20.1m-10.03 0h-20.1m-10.04 0h-20.1m-10.03 0h-20.08m-10.05 0h-20.08m-10.05 0H382.1m-10.05 0h-20.1m-10.03 0h-20.1m-10.03 0h-20.1m-10.04 0h-20.1m-10.03 0h-20.1m-10.03 0h-20.08m-10.05 0h-10.04M753.65 667.44h1.02" stroke="#5e5e5e" stroke-width="2" fill="none"/><path d="M165.96 667.44l14.27-4.63v9.28z" stroke="#5e5e5e" stroke-width="2" fill="#5e5e5e"/><use xlink:href="#U" transform="matrix(1,0,0,1,171.49174006614987,642.1102565743591) translate(0 14.222222222222223)"/><use xlink:href="#V" transform="matrix(1,0,0,1,171.49174006614987,642.1102565743591) translate(75.90123456790124 14.222222222222223)"/><use xlink:href="#W" transform="matrix(1,0,0,1,171.49174006614987,642.1102565743591) translate(123.25925925925927 14.222222222222223)"/><use xlink:href="#X" transform="matrix(1,0,0,1,171.49174006614987,642.1102565743591) translate(144.88888888888889 14.222222222222223)"/><use xlink:href="#P" transform="matrix(1,0,0,1,171.49174006614987,642.1102565743591) translate(264 14.222222222222223)"/><use xlink:href="#Y" transform="matrix(1,0,0,1,171.49174006614987,642.1102565743591) translate(324.04938271604937 14.222222222222223)"/><use xlink:href="#R" transform="matrix(1,0,0,1,171.49174006614987,642.1102565743591) translate(393.03703703703707 14.222222222222223)"/><use xlink:href="#S" transform="matrix(1,0,0,1,171.49174006614987,642.1102565743591) translate(446.320987654321 14.222222222222223)"/><use xlink:href="#T" transform="matrix(1,0,0,1,171.49174006614987,642.1102565743591) translate(511.40740740740745 14.222222222222223)"/><path d="M2022.36 980.07H181.23M2022.33 980.07h1.03" stroke="#5e5e5e" stroke-width="2" fill="none"/><path d="M165.96 980.07l14.27-4.63v9.27z" stroke="#5e5e5e" stroke-width="2" fill="#5e5e5e"/><g><use xlink:href="#U" transform="matrix(1,0,0,1,964.8692197663439,954.7410256974363) translate(0 14.222222222222223)"/><use xlink:href="#Z" transform="matrix(1,0,0,1,964.8692197663439,954.7410256974363) translate(75.90123456790124 14.222222222222223)"/><use xlink:href="#W" transform="matrix(1,0,0,1,964.8692197663439,954.7410256974363) translate(121.28395061728396 14.222222222222223)"/><use xlink:href="#R" transform="matrix(1,0,0,1,964.8692197663439,954.7410256974363) translate(142.9135802469136 14.222222222222223)"/><use xlink:href="#aa" transform="matrix(1,0,0,1,964.8692197663439,954.7410256974363) translate(196.19753086419755 14.222222222222223)"/></g><path d="M163.73 1024.74h572.44M163.75 1024.74h-1.02" stroke="#5e5e5e" stroke-width="2" fill="none"/><path d="M751.44 1024.74l-14.27 4.63v-9.27z" stroke="#5e5e5e" stroke-width="2" fill="#5e5e5e"/><g><use xlink:href="#t" transform="matrix(1,0,0,1,360.1584067328166,999.40256414359) translate(0 14.222222222222223)"/><use xlink:href="#p" transform="matrix(1,0,0,1,360.1584067328166,999.40256414359) translate(62.024691358024704 14.222222222222223)"/><use xlink:href="#R" transform="matrix(1,0,0,1,360.1584067328166,999.40256414359) translate(83.65432098765433 14.222222222222223)"/><use xlink:href="#aa" transform="matrix(1,0,0,1,360.1584067328166,999.40256414359) translate(136.93827160493828 14.222222222222223)"/></g><path d="M753.67 622.78h-10.04m-10.04 0h-20.1m-10.04 0h-20.1m-10.03 0h-20.08m-10.05 0h-20.08m-10.05 0H593m-10.05 0h-20.1m-10.03 0h-20.1m-10.03 0h-20.1m-10.04 0h-20.1m-10.03 0h-20.08m-10.05 0h-20.08m-10.05 0H382.1m-10.05 0h-20.1m-10.03 0h-20.1m-10.03 0h-20.1m-10.04 0h-20.1m-10.03 0h-20.1m-10.03 0h-20.08m-10.05 0h-10.04M753.65 622.78h1.02" stroke="#5e5e5e" stroke-width="2" fill="none"/><path d="M165.96 622.78l14.27-4.63v9.27z" stroke="#5e5e5e" stroke-width="2" fill="#5e5e5e"/><g><use xlink:href="#ab" transform="matrix(1,0,0,1,205.34359191800178,597.4487181282053) translate(0 14.222222222222223)"/><use xlink:href="#H" transform="matrix(1,0,0,1,205.34359191800178,597.4487181282053) translate(79.90123456790124 14.222222222222223)"/><use xlink:href="#X" transform="matrix(1,0,0,1,205.34359191800178,597.4487181282053) translate(141.33333333333334 14.222222222222223)"/><use xlink:href="#ac" transform="matrix(1,0,0,1,205.34359191800178,597.4487181282053) translate(260.44444444444446 14.222222222222223)"/><use xlink:href="#ad" transform="matrix(1,0,0,1,205.34359191800178,597.4487181282053) translate(315.55555555555554 14.222222222222223)"/><use xlink:href="#L" transform="matrix(1,0,0,1,205.34359191800178,597.4487181282053) translate(359.9012345679012 14.222222222222223)"/><use xlink:href="#M" transform="matrix(1,0,0,1,205.34359191800178,597.4487181282053) translate(420.04938271604937 14.222222222222223)"/></g><path d="M2022.36 801.43H181.23M2022.33 801.43h1.03" stroke="#5e5e5e" stroke-width="2" fill="none"/><path d="M165.96 801.43l14.27-4.64v9.26z" stroke="#5e5e5e" stroke-width="2" fill="#5e5e5e"/><g><use xlink:href="#ae" transform="matrix(1,0,0,1,823.3383555688131,776.0948719128207) translate(0 14.222222222222223)"/><use xlink:href="#af" transform="matrix(1,0,0,1,823.3383555688131,776.0948719128207) translate(70.02469135802468 14.222222222222223)"/><use xlink:href="#S" transform="matrix(1,0,0,1,823.3383555688131,776.0948719128207) translate(123.30864197530863 14.222222222222223)"/><use xlink:href="#k" transform="matrix(1,0,0,1,823.3383555688131,776.0948719128207) translate(188.39506172839506 14.222222222222223)"/><use xlink:href="#ag" transform="matrix(1,0,0,1,823.3383555688131,776.0948719128207) translate(255.50617283950618 14.222222222222223)"/><use xlink:href="#ad" transform="matrix(1,0,0,1,823.3383555688131,776.0948719128207) translate(313.67901234567904 14.222222222222223)"/><use xlink:href="#R" transform="matrix(1,0,0,1,823.3383555688131,776.0948719128207) translate(358.0246913580247 14.222222222222223)"/><use xlink:href="#S" transform="matrix(1,0,0,1,823.3383555688131,776.0948719128207) translate(411.30864197530866 14.222222222222223)"/><use xlink:href="#T" transform="matrix(1,0,0,1,823.3383555688131,776.0948719128207) translate(476.3950617283951 14.222222222222223)"/></g><path d="M2022.36 890.75h-800.3M2022.33 890.75h1.03" stroke="#5e5e5e" stroke-width="2" fill="none"/><path d="M1206.78 890.75l14.27-4.63v9.27z" stroke="#5e5e5e" stroke-width="2" fill="#5e5e5e"/><g><use xlink:href="#ah" transform="matrix(1,0,0,1,1422.662012200816,865.4179488051284) translate(0 14.222222222222223)"/><use xlink:href="#ai" transform="matrix(1,0,0,1,1422.662012200816,865.4179488051284) translate(66.02469135802471 14.222222222222223)"/><use xlink:href="#aj" transform="matrix(1,0,0,1,1422.662012200816,865.4179488051284) translate(133.13580246913583 14.222222222222223)"/><use xlink:href="#m" transform="matrix(1,0,0,1,1422.662012200816,865.4179488051284) translate(185.38271604938274 14.222222222222223)"/><use xlink:href="#ak" transform="matrix(1,0,0,1,1422.662012200816,865.4179488051284) translate(221.8271604938272 14.222222222222223)"/><use xlink:href="#al" transform="matrix(1,0,0,1,1422.662012200816,865.4179488051284) translate(276.00000000000006 14.222222222222223)"/></g><path d="M2022.36 935.4h-800.3M2022.33 935.4h1.03" stroke="#5e5e5e" stroke-width="2" fill="none"/><path d="M1206.78 935.4l14.27-4.62v9.27z" stroke="#5e5e5e" stroke-width="2" fill="#5e5e5e"/><g><use xlink:href="#i" transform="matrix(1,0,0,1,1338.4397899785936,910.0794872512821) translate(0 14.222222222222223)"/><use xlink:href="#ai" transform="matrix(1,0,0,1,1338.4397899785936,910.0794872512821) translate(70.02469135802471 14.222222222222223)"/><use xlink:href="#am" transform="matrix(1,0,0,1,1338.4397899785936,910.0794872512821) translate(137.13580246913583 14.222222222222223)"/><use xlink:href="#an" transform="matrix(1,0,0,1,1338.4397899785936,910.0794872512821) translate(206.1234567901235 14.222222222222223)"/><use xlink:href="#R" transform="matrix(1,0,0,1,1338.4397899785936,910.0794872512821) translate(226.81481481481487 14.222222222222223)"/><use xlink:href="#S" transform="matrix(1,0,0,1,1338.4397899785936,910.0794872512821) translate(280.09876543209884 14.222222222222223)"/><use xlink:href="#E" transform="matrix(1,0,0,1,1338.4397899785936,910.0794872512821) translate(345.1851851851853 14.222222222222223)"/><use xlink:href="#F" transform="matrix(1,0,0,1,1338.4397899785936,910.0794872512821) translate(446.6172839506174 14.222222222222223)"/></g><path d="M755.67 1069.4h429.38M755.7 1069.4h-1.03" stroke="#5e5e5e" stroke-width="2" fill="none"/><path d="M1200.3 1069.4l-14.25 4.63v-9.27z" stroke="#5e5e5e" stroke-width="2" fill="#5e5e5e"/><g><use xlink:href="#C" transform="matrix(1,0,0,1,765.2845325006219,1044.0641025897437) translate(0 14.222222222222223)"/><use xlink:href="#w" transform="matrix(1,0,0,1,765.2845325006219,1044.0641025897437) translate(58.17283950617284 14.222222222222223)"/><use xlink:href="#x" transform="matrix(1,0,0,1,765.2845325006219,1044.0641025897437) translate(159.60493827160494 14.222222222222223)"/><use xlink:href="#ao" transform="matrix(1,0,0,1,765.2845325006219,1044.0641025897437) translate(267.95061728395063 14.222222222222223)"/><use xlink:href="#k" transform="matrix(1,0,0,1,765.2845325006219,1044.0641025897437) translate(296.4938271604938 14.222222222222223)"/><use xlink:href="#ap" transform="matrix(1,0,0,1,765.2845325006219,1044.0641025897437) translate(363.60493827160496 14.222222222222223)"/></g><path d="M2022.36 756.77h-800.3M2022.33 756.77h1.03" stroke="#5e5e5e" stroke-width="2" fill="none"/><path d="M1206.78 756.77l14.27-4.64v9.27z" stroke="#5e5e5e" stroke-width="2" fill="#5e5e5e"/><g><use xlink:href="#aq" transform="matrix(1,0,0,1,1419.773123311927,731.4333334666668) translate(0 14.222222222222223)"/><use xlink:href="#af" transform="matrix(1,0,0,1,1419.773123311927,731.4333334666668) translate(75.90123456790124 14.222222222222223)"/><use xlink:href="#S" transform="matrix(1,0,0,1,1419.773123311927,731.4333334666668) translate(129.1851851851852 14.222222222222223)"/><use xlink:href="#an" transform="matrix(1,0,0,1,1419.773123311927,731.4333334666668) translate(194.27160493827162 14.222222222222223)"/><use xlink:href="#E" transform="matrix(1,0,0,1,1419.773123311927,731.4333334666668) translate(214.962962962963 14.222222222222223)"/><use xlink:href="#ar" transform="matrix(1,0,0,1,1419.773123311927,731.4333334666668) translate(316.3950617283951 14.222222222222223)"/></g><path d="M755.67 1114.06h429.38M755.7 1114.06h-1.03" stroke="#5e5e5e" stroke-width="2" fill="none"/><path d="M1200.3 1114.06l-14.25 4.63v-9.28z" stroke="#5e5e5e" stroke-width="2" fill="#5e5e5e"/><g><use xlink:href="#as" transform="matrix(1,0,0,1,863.7536683030911,1088.7256410358978) translate(0 14.222222222222223)"/><use xlink:href="#at" transform="matrix(1,0,0,1,863.7536683030911,1088.7256410358978) translate(67.11111111111111 14.222222222222223)"/><use xlink:href="#au" transform="matrix(1,0,0,1,863.7536683030911,1088.7256410358978) translate(131.1604938271605 14.222222222222223)"/><use xlink:href="#av" transform="matrix(1,0,0,1,863.7536683030911,1088.7256410358978) translate(194.27160493827162 14.222222222222223)"/></g><path d="M163.73 846.1h1841.12M163.75 846.1h-1.02" stroke="#5e5e5e" stroke-width="2" fill="none"/><path d="M2020.12 846.1l-14.27 4.63v-9.28z" stroke="#5e5e5e" stroke-width="2" fill="#5e5e5e"/><g><use xlink:href="#aw" transform="matrix(1,0,0,1,888.4988493959736,820.7564103589744) translate(0 14.222222222222223)"/><use xlink:href="#ax" transform="matrix(1,0,0,1,888.4988493959736,820.7564103589744) translate(69.92592592592592 14.222222222222223)"/><use xlink:href="#ay" transform="matrix(1,0,0,1,888.4988493959736,820.7564103589744) translate(126.12345679012347 14.222222222222223)"/><use xlink:href="#k" transform="matrix(1,0,0,1,888.4988493959736,820.7564103589744) translate(147.7530864197531 14.222222222222223)"/><use xlink:href="#aj" transform="matrix(1,0,0,1,888.4988493959736,820.7564103589744) translate(214.8641975308642 14.222222222222223)"/><use xlink:href="#ao" transform="matrix(1,0,0,1,888.4988493959736,820.7564103589744) translate(267.11111111111114 14.222222222222223)"/><use xlink:href="#R" transform="matrix(1,0,0,1,888.4988493959736,820.7564103589744) translate(295.65432098765433 14.222222222222223)"/><use xlink:href="#aa" transform="matrix(1,0,0,1,888.4988493959736,820.7564103589744) translate(348.9382716049383 14.222222222222223)"/></g><defs><path fill="#333" d="M205 0l-28-72H64L36 0H1l101-248h38L239 0h-34zm-38-99l-47-123c-12 45-31 82-46 123h93" id="az"/><path fill="#333" d="M24 0v-261h32V0H24" id="aA"/><path fill="#333" d="M24-231v-30h32v30H24zM24 0v-190h32V0H24" id="aB"/><path fill="#333" d="M96-169c-40 0-48 33-48 73s9 75 48 75c24 0 41-14 43-38l32 2c-6 37-31 61-74 61-59 0-76-41-82-99-10-93 101-131 147-64 4 7 5 14 7 22l-32 3c-4-21-16-35-41-35" id="aC"/><path fill="#333" d="M100-194c63 0 86 42 84 106H49c0 40 14 67 53 68 26 1 43-12 49-29l28 8c-11 28-37 45-77 45C44 4 14-33 15-96c1-61 26-98 85-98zm52 81c6-60-76-77-97-28-3 7-6 17-6 28h103" id="aD"/><g id="a"><use transform="matrix(0.06172839506172839,0,0,0.06172839506172839,0,0)" xlink:href="#az"/><use transform="matrix(0.06172839506172839,0,0,0.06172839506172839,14.814814814814813,0)" xlink:href="#aA"/><use transform="matrix(0.06172839506172839,0,0,0.06172839506172839,19.691358024691354,0)" xlink:href="#aB"/><use transform="matrix(0.06172839506172839,0,0,0.06172839506172839,24.5679012345679,0)" xlink:href="#aC"/><use transform="matrix(0.06172839506172839,0,0,0.06172839506172839,35.67901234567901,0)" xlink:href="#aD"/></g><path fill="#333" d="M210-169c-67 3-38 105-44 169h-31v-121c0-29-5-50-35-48C34-165 62-65 56 0H25l-1-190h30c1 10-1 24 2 32 10-44 99-50 107 0 11-21 27-35 58-36 85-2 47 119 55 194h-31v-121c0-29-5-49-35-48" id="aE"/><g id="b"><use transform="matrix(0.06172839506172839,0,0,0.06172839506172839,0,0)" xlink:href="#az"/><use transform="matrix(0.06172839506172839,0,0,0.06172839506172839,14.814814814814813,0)" xlink:href="#aC"/><use transform="matrix(0.06172839506172839,0,0,0.06172839506172839,25.925925925925924,0)" xlink:href="#aE"/><use transform="matrix(0.06172839506172839,0,0,0.06172839506172839,44.38271604938271,0)" xlink:href="#aD"/></g><path fill="#333" d="M30-248c87 1 191-15 191 75 0 78-77 80-158 76V0H30v-248zm33 125c57 0 124 11 124-50 0-59-68-47-124-48v98" id="aF"/><path fill="#333" d="M114-163C36-179 61-72 57 0H25l-1-190h30c1 12-1 29 2 39 6-27 23-49 58-41v29" id="aG"/><path fill="#333" d="M100-194c62-1 85 37 85 99 1 63-27 99-86 99S16-35 15-95c0-66 28-99 85-99zM99-20c44 1 53-31 53-75 0-43-8-75-51-75s-53 32-53 75 10 74 51 75" id="aH"/><path fill="#333" d="M24-231v-30h32v30H24zM-9 49c24 4 33-6 33-30v-209h32V24c2 40-23 58-65 49V49" id="aI"/><path fill="#333" d="M59-47c-2 24 18 29 38 22v24C64 9 27 4 27-40v-127H5v-23h24l9-43h21v43h35v23H59v120" id="aJ"/><g id="c"><use transform="matrix(0.06172839506172839,0,0,0.06172839506172839,0,0)" xlink:href="#aF"/><use transform="matrix(0.06172839506172839,0,0,0.06172839506172839,14.814814814814813,0)" xlink:href="#aG"/><use transform="matrix(0.06172839506172839,0,0,0.06172839506172839,22.160493827160494,0)" xlink:href="#aH"/><use transform="matrix(0.06172839506172839,0,0,0.06172839506172839,34.50617283950617,0)" xlink:href="#aI"/><use transform="matrix(0.06172839506172839,0,0,0.06172839506172839,39.382716049382715,0)" xlink:href="#aD"/><use transform="matrix(0.06172839506172839,0,0,0.06172839506172839,51.72839506172839,0)" xlink:href="#aC"/><use transform="matrix(0.06172839506172839,0,0,0.06172839506172839,62.839506172839506,0)" xlink:href="#aJ"/></g><g id="d"><use transform="matrix(0.06172839506172839,0,0,0.06172839506172839,0,0)" xlink:href="#az"/><use transform="matrix(0.06172839506172839,0,0,0.06172839506172839,14.814814814814813,0)" xlink:href="#aA"/><use transform="matrix(0.06172839506172839,0,0,0.06172839506172839,19.691358024691354,0)" xlink:href="#aB"/><use transform="matrix(0.06172839506172839,0,0,0.06172839506172839,24.5679012345679,0)" xlink:href="#aC"/><use transform="matrix(0.06172839506172839,0,0,0.06172839506172839,35.67901234567901,0)" xlink:href="#aD"/></g><path fill="#333" d="M85-194c31 0 48 13 60 33l-1-100h32l1 261h-30c-2-10 0-23-3-31C134-8 116 4 85 4 32 4 16-35 15-94c0-66 23-100 70-100zm9 24c-40 0-46 34-46 75 0 40 6 74 45 74 42 0 51-32 51-76 0-42-9-74-50-73" id="aK"/><g id="e"><use transform="matrix(0.06172839506172839,0,0,0.06172839506172839,0,0)" xlink:href="#aF"/><use transform="matrix(0.06172839506172839,0,0,0.06172839506172839,14.814814814814813,0)" xlink:href="#aH"/><use transform="matrix(0.06172839506172839,0,0,0.06172839506172839,27.160493827160494,0)" xlink:href="#aK"/></g><path fill="#333" d="M33 0v-248h34V0H33" id="aL"/><g id="f"><use transform="matrix(0.06172839506172839,0,0,0.06172839506172839,0,0)" xlink:href="#aL"/><use transform="matrix(0.06172839506172839,0,0,0.06172839506172839,6.172839506172839,0)" xlink:href="#aK"/><use transform="matrix(0.06172839506172839,0,0,0.06172839506172839,18.51851851851852,0)" xlink:href="#aF"/></g><path fill="#333" d="M84 4C-5 8 30-112 23-190h32v120c0 31 7 50 39 49 72-2 45-101 50-169h31l1 190h-30c-1-10 1-25-2-33-11 22-28 36-60 37" id="aM"/><path fill="#333" d="M106-169C34-169 62-67 57 0H25v-261h32l-1 103c12-21 28-36 61-36 89 0 53 116 60 194h-32v-121c2-32-8-49-39-48" id="aN"/><path fill="#333" d="M9 0v-24l116-142H16v-24h144v24L44-24h123V0H9" id="aO"/><g id="g"><use transform="matrix(0.06172839506172839,0,0,0.06172839506172839,0,0)" xlink:href="#az"/><use transform="matrix(0.06172839506172839,0,0,0.06172839506172839,14.814814814814813,0)" xlink:href="#aM"/><use transform="matrix(0.06172839506172839,0,0,0.06172839506172839,27.160493827160494,0)" xlink:href="#aJ"/><use transform="matrix(0.06172839506172839,0,0,0.06172839506172839,33.333333333333336,0)" xlink:href="#aN"/><use transform="matrix(0.06172839506172839,0,0,0.06172839506172839,45.67901234567901,0)" xlink:href="#aO"/></g><path fill="#333" d="M177-190C167-65 218 103 67 71c-23-6-38-20-44-43l32-5c15 47 100 32 89-28v-30C133-14 115 1 83 1 29 1 15-40 15-95c0-56 16-97 71-98 29-1 48 16 59 35 1-10 0-23 2-32h30zM94-22c36 0 50-32 50-73 0-42-14-75-50-75-39 0-46 34-46 75s6 73 46 73" id="aP"/><path fill="#333" d="M117-194c89-4 53 116 60 194h-32v-121c0-31-8-49-39-48C34-167 62-67 57 0H25l-1-190h30c1 10-1 24 2 32 11-22 29-35 61-36" id="aQ"/><g id="h"><use transform="matrix(0.06172839506172839,0,0,0.06172839506172839,0,0)" xlink:href="#az"/><use transform="matrix(0.06172839506172839,0,0,0.06172839506172839,14.814814814814813,0)" xlink:href="#aP"/><use transform="matrix(0.06172839506172839,0,0,0.06172839506172839,27.160493827160494,0)" xlink:href="#aD"/><use transform="matrix(0.06172839506172839,0,0,0.06172839506172839,39.50617283950617,0)" xlink:href="#aQ"/><use transform="matrix(0.06172839506172839,0,0,0.06172839506172839,51.85185185185185,0)" xlink:href="#aJ"/></g><path fill="#333" d="M24-248c93 1 206-16 204 79-1 75-69 88-152 82V0H24v-248zm52 121c47 0 100 7 100-41 0-47-54-39-100-39v80" id="aR"/><path fill="#333" d="M135-150c-39-12-60 13-60 57V0H25l-1-190h47c2 13-1 29 3 40 6-28 27-53 61-41v41" id="aS"/><path fill="#333" d="M110-194c64 0 96 36 96 99 0 64-35 99-97 99-61 0-95-36-95-99 0-62 34-99 96-99zm-1 164c35 0 45-28 45-65 0-40-10-65-43-65-34 0-45 26-45 65 0 36 10 65 43 65" id="aT"/><path fill="#333" d="M128 0H69L1-190h53L99-40l48-150h52" id="aU"/><path fill="#333" d="M25-224v-37h50v37H25zM25 0v-190h50V0H25" id="aV"/><path fill="#333" d="M88-194c31-1 46 15 58 34l-1-101h50l1 261h-48c-2-10 0-23-3-31C134-8 116 4 84 4 32 4 16-41 15-95c0-56 19-97 73-99zm17 164c33 0 40-30 41-66 1-37-9-64-41-64s-38 30-39 65c0 43 13 65 39 65" id="aW"/><path fill="#333" d="M185-48c-13 30-37 53-82 52C43 2 14-33 14-96s30-98 90-98c62 0 83 45 84 108H66c0 31 8 55 39 56 18 0 30-7 34-22zm-45-69c5-46-57-63-70-21-2 6-4 13-4 21h74" id="aX"/><g id="i"><use transform="matrix(0.04938271604938272,0,0,0.04938271604938272,0,0)" xlink:href="#aR"/><use transform="matrix(0.04938271604938272,0,0,0.04938271604938272,11.851851851851853,0)" xlink:href="#aS"/><use transform="matrix(0.04938271604938272,0,0,0.04938271604938272,18.765432098765434,0)" xlink:href="#aT"/><use transform="matrix(0.04938271604938272,0,0,0.04938271604938272,29.58024691358025,0)" xlink:href="#aU"/><use transform="matrix(0.04938271604938272,0,0,0.04938271604938272,39.45679012345679,0)" xlink:href="#aV"/><use transform="matrix(0.04938271604938272,0,0,0.04938271604938272,44.39506172839506,0)" xlink:href="#aW"/><use transform="matrix(0.04938271604938272,0,0,0.04938271604938272,55.20987654320988,0)" xlink:href="#aX"/></g><path fill="#333" d="M24-248c120-7 223 5 221 122C244-46 201 0 124 0H24v-248zM76-40c74 7 117-18 117-86 0-67-45-88-117-82v168" id="aY"/><path fill="#333" d="M14-72v-43h91v43H14" id="aZ"/><path fill="#333" d="M135-194c52 0 70 43 70 98 0 56-19 99-73 100-30 1-46-15-58-35L72 0H24l1-261h50v104c11-23 29-37 60-37zM114-30c31 0 40-27 40-66 0-37-7-63-39-63s-41 28-41 65c0 36 8 64 40 64" id="ba"/><path fill="#333" d="M85 4C-2 5 27-109 22-190h50c7 57-23 150 33 157 60-5 35-97 40-157h50l1 190h-47c-2-12 1-28-3-38-12 25-28 42-61 42" id="bb"/><path fill="#333" d="M135-194c87-1 58 113 63 194h-50c-7-57 23-157-34-157-59 0-34 97-39 157H25l-1-190h47c2 12-1 28 3 38 12-26 28-41 61-42" id="bc"/><g id="j"><use transform="matrix(0.04938271604938272,0,0,0.04938271604938272,0,0)" xlink:href="#aY"/><use transform="matrix(0.04938271604938272,0,0,0.04938271604938272,12.790123456790125,0)" xlink:href="#aR"/><use transform="matrix(0.04938271604938272,0,0,0.04938271604938272,24.641975308641978,0)" xlink:href="#aT"/><use transform="matrix(0.04938271604938272,0,0,0.04938271604938272,35.45679012345679,0)" xlink:href="#aR"/><use transform="matrix(0.04938271604938272,0,0,0.04938271604938272,47.308641975308646,0)" xlink:href="#aZ"/><use transform="matrix(0.04938271604938272,0,0,0.04938271604938272,53.18518518518519,0)" xlink:href="#ba"/><use transform="matrix(0.04938271604938272,0,0,0.04938271604938272,64,0)" xlink:href="#aT"/><use transform="matrix(0.04938271604938272,0,0,0.04938271604938272,74.81481481481481,0)" xlink:href="#bb"/><use transform="matrix(0.04938271604938272,0,0,0.04938271604938272,85.62962962962962,0)" xlink:href="#bc"/><use transform="matrix(0.04938271604938272,0,0,0.04938271604938272,96.44444444444443,0)" xlink:href="#aW"/></g><path fill="#333" d="M199 0l-22-63H83L61 0H9l90-248h61L250 0h-51zm-33-102l-36-108c-10 38-24 72-36 108h72" id="bd"/><path fill="#333" d="M190-63c-7 42-38 67-86 67-59 0-84-38-90-98-12-110 154-137 174-36l-49 2c-2-19-15-32-35-32-30 0-35 28-38 64-6 74 65 87 74 30" id="be"/><path fill="#333" d="M137-138c1-29-70-34-71-4 15 46 118 7 119 86 1 83-164 76-172 9l43-7c4 19 20 25 44 25 33 8 57-30 24-41C81-84 22-81 20-136c-2-80 154-74 161-7" id="bf"/><g id="k"><use transform="matrix(0.04938271604938272,0,0,0.04938271604938272,0,0)" xlink:href="#bd"/><use transform="matrix(0.04938271604938272,0,0,0.04938271604938272,12.790123456790125,0)" xlink:href="#be"/><use transform="matrix(0.04938271604938272,0,0,0.04938271604938272,22.66666666666667,0)" xlink:href="#be"/><use transform="matrix(0.04938271604938272,0,0,0.04938271604938272,32.543209876543216,0)" xlink:href="#aX"/><use transform="matrix(0.04938271604938272,0,0,0.04938271604938272,42.41975308641976,0)" xlink:href="#bf"/><use transform="matrix(0.04938271604938272,0,0,0.04938271604938272,52.2962962962963,0)" xlink:href="#bf"/></g><path fill="#333" d="M136-208V0H84v-208H4v-40h212v40h-80" id="bg"/><path fill="#333" d="M147 0L96-86 75-71V0H25v-261h50v150l67-79h53l-66 74L201 0h-54" id="bh"/><g id="l"><use transform="matrix(0.04938271604938272,0,0,0.04938271604938272,0,0)" xlink:href="#bg"/><use transform="matrix(0.04938271604938272,0,0,0.04938271604938272,9.481481481481481,0)" xlink:href="#aT"/><use transform="matrix(0.04938271604938272,0,0,0.04938271604938272,20.296296296296298,0)" xlink:href="#bh"/><use transform="matrix(0.04938271604938272,0,0,0.04938271604938272,30.172839506172842,0)" xlink:href="#aX"/><use transform="matrix(0.04938271604938272,0,0,0.04938271604938272,40.04938271604939,0)" xlink:href="#bc"/></g><path fill="#333" d="M133-34C117-15 103 5 69 4 32 3 11-16 11-54c-1-60 55-63 116-61 1-26-3-47-28-47-18 1-26 9-28 27l-52-2c7-38 36-58 82-57s74 22 75 68l1 82c-1 14 12 18 25 15v27c-30 8-71 5-69-32zm-48 3c29 0 43-24 42-57-32 0-66-3-65 30 0 17 8 27 23 27" id="bi"/><g id="m"><use transform="matrix(0.04938271604938272,0,0,0.04938271604938272,0,0)" xlink:href="#bi"/><use transform="matrix(0.04938271604938272,0,0,0.04938271604938272,9.876543209876544,0)" xlink:href="#bc"/><use transform="matrix(0.04938271604938272,0,0,0.04938271604938272,20.69135802469136,0)" xlink:href="#aW"/></g><path fill="#333" d="M135-194c53 0 70 44 70 98 0 56-19 98-73 100-31 1-45-17-59-34 3 33 2 69 2 105H25l-1-265h48c2 10 0 23 3 31 11-24 29-35 60-35zM114-30c33 0 39-31 40-66 0-38-9-64-40-64-56 0-55 130 0 130" id="bj"/><path fill="#333" d="M121-226c-27-7-43 5-38 36h38v33H83V0H34v-157H6v-33h28c-9-59 32-81 87-68v32" id="bk"/><g id="n"><use transform="matrix(0.04938271604938272,0,0,0.04938271604938272,0,0)" xlink:href="#bj"/><use transform="matrix(0.04938271604938272,0,0,0.04938271604938272,10.814814814814815,0)" xlink:href="#aS"/><use transform="matrix(0.04938271604938272,0,0,0.04938271604938272,17.728395061728396,0)" xlink:href="#aT"/><use transform="matrix(0.04938271604938272,0,0,0.04938271604938272,28.543209876543205,0)" xlink:href="#aT"/><use transform="matrix(0.04938271604938272,0,0,0.04938271604938272,39.358024691358025,0)" xlink:href="#bk"/></g><g id="o"><use transform="matrix(0.04938271604938272,0,0,0.04938271604938272,0,0)" xlink:href="#aY"/><use transform="matrix(0.04938271604938272,0,0,0.04938271604938272,12.790123456790125,0)" xlink:href="#aX"/><use transform="matrix(0.04938271604938272,0,0,0.04938271604938272,22.66666666666667,0)" xlink:href="#be"/><use transform="matrix(0.04938271604938272,0,0,0.04938271604938272,32.543209876543216,0)" xlink:href="#aV"/><use transform="matrix(0.04938271604938272,0,0,0.04938271604938272,37.48148148148149,0)" xlink:href="#aW"/><use transform="matrix(0.04938271604938272,0,0,0.04938271604938272,48.296296296296305,0)" xlink:href="#aX"/><use transform="matrix(0.04938271604938272,0,0,0.04938271604938272,58.17283950617284,0)" xlink:href="#bf"/></g><path fill="#333" d="M115-3C79 11 28 4 28-45v-112H4v-33h27l15-45h31v45h36v33H77v99c-1 23 16 31 38 25v30" id="bl"/><g id="p"><use transform="matrix(0.04938271604938272,0,0,0.04938271604938272,0,0)" xlink:href="#bl"/><use transform="matrix(0.04938271604938272,0,0,0.04938271604938272,5.8765432098765435,0)" xlink:href="#aT"/></g><g id="q"><use transform="matrix(0.04938271604938272,0,0,0.04938271604938272,0,0)" xlink:href="#bb"/><use transform="matrix(0.04938271604938272,0,0,0.04938271604938272,10.814814814814815,0)" xlink:href="#bf"/><use transform="matrix(0.04938271604938272,0,0,0.04938271604938272,20.69135802469136,0)" xlink:href="#aX"/></g><g id="r"><use transform="matrix(0.04938271604938272,0,0,0.04938271604938272,0,0)" xlink:href="#aR"/><use transform="matrix(0.04938271604938272,0,0,0.04938271604938272,11.851851851851853,0)" xlink:href="#aS"/><use transform="matrix(0.04938271604938272,0,0,0.04938271604938272,18.765432098765434,0)" xlink:href="#aT"/><use transform="matrix(0.04938271604938272,0,0,0.04938271604938272,29.58024691358025,0)" xlink:href="#aU"/><use transform="matrix(0.04938271604938272,0,0,0.04938271604938272,39.45679012345679,0)" xlink:href="#aV"/><use transform="matrix(0.04938271604938272,0,0,0.04938271604938272,44.39506172839506,0)" xlink:href="#aW"/><use transform="matrix(0.04938271604938272,0,0,0.04938271604938272,55.20987654320988,0)" xlink:href="#aX"/><use transform="matrix(0.04938271604938272,0,0,0.04938271604938272,65.08641975308643,0)" xlink:href="#bf"/></g><path fill="#333" d="M275 0h-61l-44-196L126 0H64L0-248h53L97-49l45-199h58l43 199 44-199h52" id="bm"/><path fill="#333" d="M24 0v-248h52V0H24" id="bn"/><g id="s"><use transform="matrix(0.04938271604938272,0,0,0.04938271604938272,0,0)" xlink:href="#bm"/><use transform="matrix(0.04938271604938272,0,0,0.04938271604938272,16.39506172839506,0)" xlink:href="#aX"/><use transform="matrix(0.04938271604938272,0,0,0.04938271604938272,26.271604938271608,0)" xlink:href="#ba"/><use transform="matrix(0.04938271604938272,0,0,0.04938271604938272,37.08641975308642,0)" xlink:href="#bn"/><use transform="matrix(0.04938271604938272,0,0,0.04938271604938272,42.02469135802469,0)" xlink:href="#aY"/></g><path fill="#333" d="M240-174c0 40-23 61-54 70L253 0h-59l-57-94H76V0H24v-248c93 4 217-23 216 74zM76-134c48-2 112 12 112-38 0-48-66-32-112-35v73" id="bo"/><g id="t"><use transform="matrix(0.04938271604938272,0,0,0.04938271604938272,0,0)" xlink:href="#bo"/><use transform="matrix(0.04938271604938272,0,0,0.04938271604938272,12.790123456790125,0)" xlink:href="#aX"/><use transform="matrix(0.04938271604938272,0,0,0.04938271604938272,22.66666666666667,0)" xlink:href="#bl"/><use transform="matrix(0.04938271604938272,0,0,0.04938271604938272,28.54320987654322,0)" xlink:href="#bb"/><use transform="matrix(0.04938271604938272,0,0,0.04938271604938272,39.35802469135803,0)" xlink:href="#aS"/><use transform="matrix(0.04938271604938272,0,0,0.04938271604938272,46.271604938271615,0)" xlink:href="#bc"/></g><path fill="#333" d="M165-50V0h-47v-50H5v-38l105-160h55v161h33v37h-33zm-47-37l2-116L46-87h72" id="bp"/><path fill="#333" d="M101-251c68 0 84 54 84 127C185-50 166 4 99 4S15-52 14-124c-1-75 17-127 87-127zm-1 216c37-5 36-46 36-89s4-89-36-89c-39 0-36 45-36 89 0 43-3 85 36 89" id="bq"/><path fill="#333" d="M23 0v-37h61v-169l-59 37v-38l62-41h46v211h57V0H23" id="br"/><g id="u"><use transform="matrix(0.04938271604938272,0,0,0.04938271604938272,0,0)" xlink:href="#bp"/><use transform="matrix(0.04938271604938272,0,0,0.04938271604938272,9.876543209876544,0)" xlink:href="#bq"/><use transform="matrix(0.04938271604938272,0,0,0.04938271604938272,19.75308641975309,0)" xlink:href="#br"/></g><path fill="#333" d="M175 0L67-191c6 58 2 128 3 191H24v-248h59L193-55c-6-58-2-129-3-193h46V0h-61" id="bs"/><g id="v"><use transform="matrix(0.04938271604938272,0,0,0.04938271604938272,0,0)" xlink:href="#bs"/><use transform="matrix(0.04938271604938272,0,0,0.04938271604938272,12.790123456790125,0)" xlink:href="#aT"/></g><path fill="#333" d="M25 0v-261h50V0H25" id="bt"/><g id="w"><use transform="matrix(0.04938271604938272,0,0,0.04938271604938272,0,0)" xlink:href="#bd"/><use transform="matrix(0.04938271604938272,0,0,0.04938271604938272,12.790123456790125,0)" xlink:href="#bj"/><use transform="matrix(0.04938271604938272,0,0,0.04938271604938272,23.60493827160494,0)" xlink:href="#bj"/><use transform="matrix(0.04938271604938272,0,0,0.04938271604938272,34.41975308641975,0)" xlink:href="#bt"/><use transform="matrix(0.04938271604938272,0,0,0.04938271604938272,39.358024691358025,0)" xlink:href="#aV"/><use transform="matrix(0.04938271604938272,0,0,0.04938271604938272,44.2962962962963,0)" xlink:href="#be"/><use transform="matrix(0.04938271604938272,0,0,0.04938271604938272,54.17283950617284,0)" xlink:href="#bi"/><use transform="matrix(0.04938271604938272,0,0,0.04938271604938272,64.0493827160494,0)" xlink:href="#bl"/><use transform="matrix(0.04938271604938272,0,0,0.04938271604938272,69.92592592592594,0)" xlink:href="#aV"/><use transform="matrix(0.04938271604938272,0,0,0.04938271604938272,74.8641975308642,0)" xlink:href="#aT"/><use transform="matrix(0.04938271604938272,0,0,0.04938271604938272,85.67901234567901,0)" xlink:href="#bc"/></g><path fill="#333" d="M195-6C206 82 75 100 31 46c-4-6-6-13-8-21l49-6c3 16 16 24 34 25 40 0 42-37 40-79-11 22-30 35-61 35-53 0-70-43-70-97 0-56 18-96 73-97 30 0 46 14 59 34l2-30h47zm-90-29c32 0 41-27 41-63 0-35-9-62-40-62-32 0-39 29-40 63 0 36 9 62 39 62" id="bu"/><g id="x"><use transform="matrix(0.04938271604938272,0,0,0.04938271604938272,0,0)" xlink:href="#bo"/><use transform="matrix(0.04938271604938272,0,0,0.04938271604938272,12.790123456790125,0)" xlink:href="#aX"/><use transform="matrix(0.04938271604938272,0,0,0.04938271604938272,22.66666666666667,0)" xlink:href="#bu"/><use transform="matrix(0.04938271604938272,0,0,0.04938271604938272,33.48148148148149,0)" xlink:href="#aV"/><use transform="matrix(0.04938271604938272,0,0,0.04938271604938272,38.41975308641976,0)" xlink:href="#bf"/><use transform="matrix(0.04938271604938272,0,0,0.04938271604938272,48.296296296296305,0)" xlink:href="#bl"/><use transform="matrix(0.04938271604938272,0,0,0.04938271604938272,54.17283950617284,0)" xlink:href="#aS"/><use transform="matrix(0.04938271604938272,0,0,0.04938271604938272,61.08641975308644,0)" xlink:href="#bi"/><use transform="matrix(0.04938271604938272,0,0,0.04938271604938272,70.96296296296298,0)" xlink:href="#bl"/><use transform="matrix(0.04938271604938272,0,0,0.04938271604938272,76.83950617283952,0)" xlink:href="#aV"/><use transform="matrix(0.04938271604938272,0,0,0.04938271604938272,81.7777777777778,0)" xlink:href="#aT"/><use transform="matrix(0.04938271604938272,0,0,0.04938271604938272,92.59259259259261,0)" xlink:href="#bc"/></g><g id="y"><use transform="matrix(0.04938271604938272,0,0,0.04938271604938272,0,0)" xlink:href="#bk"/><use transform="matrix(0.04938271604938272,0,0,0.04938271604938272,5.8765432098765435,0)" xlink:href="#aT"/><use transform="matrix(0.04938271604938272,0,0,0.04938271604938272,16.691358024691358,0)" xlink:href="#bb"/><use transform="matrix(0.04938271604938272,0,0,0.04938271604938272,27.50617283950617,0)" xlink:href="#bc"/><use transform="matrix(0.04938271604938272,0,0,0.04938271604938272,38.32098765432099,0)" xlink:href="#aW"/></g><g id="z"><use transform="matrix(0.04938271604938272,0,0,0.04938271604938272,0,0)" xlink:href="#bn"/><use transform="matrix(0.04938271604938272,0,0,0.04938271604938272,4.938271604938272,0)" xlink:href="#bc"/><use transform="matrix(0.04938271604938272,0,0,0.04938271604938272,15.753086419753087,0)" xlink:href="#aV"/><use transform="matrix(0.04938271604938272,0,0,0.04938271604938272,20.69135802469136,0)" xlink:href="#bl"/><use transform="matrix(0.04938271604938272,0,0,0.04938271604938272,26.567901234567902,0)" xlink:href="#aV"/><use transform="matrix(0.04938271604938272,0,0,0.04938271604938272,31.506172839506174,0)" xlink:href="#bi"/><use transform="matrix(0.04938271604938272,0,0,0.04938271604938272,41.38271604938272,0)" xlink:href="#bl"/><use transform="matrix(0.04938271604938272,0,0,0.04938271604938272,47.25925925925927,0)" xlink:href="#aX"/></g><path fill="#333" d="M169-182c-1-43-94-46-97-3 18 66 151 10 154 114 3 95-165 93-204 36-6-8-10-19-12-30l50-8c3 46 112 56 116 5-17-69-150-10-154-114-4-87 153-88 188-35 5 8 8 18 10 28" id="bv"/><path fill="#333" d="M140-251c80 0 125 45 125 126S219 4 139 4C58 4 15-44 15-125s44-126 125-126zm-1 214c52 0 73-35 73-88 0-50-21-86-72-86-52 0-73 35-73 86s22 88 72 88" id="bw"/><path fill="#333" d="M67-125c0 53 21 87 73 88 37 1 54-22 65-47l45 17C233-25 199 4 140 4 58 4 20-42 15-125 8-235 124-281 211-232c18 10 29 29 36 50l-46 12c-8-25-30-41-62-41-52 0-71 34-72 86" id="bx"/><g id="A"><use transform="matrix(0.04938271604938272,0,0,0.04938271604938272,0,0)" xlink:href="#bv"/><use transform="matrix(0.04938271604938272,0,0,0.04938271604938272,11.851851851851853,0)" xlink:href="#aT"/><use transform="matrix(0.04938271604938272,0,0,0.04938271604938272,22.666666666666668,0)" xlink:href="#bt"/><use transform="matrix(0.04938271604938272,0,0,0.04938271604938272,27.60493827160494,0)" xlink:href="#aV"/><use transform="matrix(0.04938271604938272,0,0,0.04938271604938272,32.543209876543216,0)" xlink:href="#aW"/><use transform="matrix(0.04938271604938272,0,0,0.04938271604938272,43.35802469135803,0)" xlink:href="#aZ"/><use transform="matrix(0.04938271604938272,0,0,0.04938271604938272,49.23456790123458,0)" xlink:href="#bw"/><use transform="matrix(0.04938271604938272,0,0,0.04938271604938272,63.061728395061735,0)" xlink:href="#bn"/><use transform="matrix(0.04938271604938272,0,0,0.04938271604938272,68,0)" xlink:href="#aY"/><use transform="matrix(0.04938271604938272,0,0,0.04938271604938272,80.79012345679013,0)" xlink:href="#bx"/></g><path fill="#333" d="M231 0h-52l-39-155L100 0H48L-1-190h46L77-45c9-52 24-97 36-145h53l37 145 32-145h46" id="by"/><g id="B"><use transform="matrix(0.04938271604938272,0,0,0.04938271604938272,0,0)" xlink:href="#bk"/><use transform="matrix(0.04938271604938272,0,0,0.04938271604938272,5.8765432098765435,0)" xlink:href="#bt"/><use transform="matrix(0.04938271604938272,0,0,0.04938271604938272,10.814814814814817,0)" xlink:href="#aT"/><use transform="matrix(0.04938271604938272,0,0,0.04938271604938272,21.629629629629633,0)" xlink:href="#by"/></g><path fill="#333" d="M114-157C55-157 80-60 75 0H25v-261h50l-1 109c12-26 28-41 61-42 86-1 58 113 63 194h-50c-7-57 23-157-34-157" id="bz"/><g id="C"><use transform="matrix(0.04938271604938272,0,0,0.04938271604938272,0,0)" xlink:href="#bx"/><use transform="matrix(0.04938271604938272,0,0,0.04938271604938272,12.790123456790125,0)" xlink:href="#bz"/><use transform="matrix(0.04938271604938272,0,0,0.04938271604938272,23.60493827160494,0)" xlink:href="#aX"/><use transform="matrix(0.04938271604938272,0,0,0.04938271604938272,33.48148148148148,0)" xlink:href="#be"/><use transform="matrix(0.04938271604938272,0,0,0.04938271604938272,43.358024691358025,0)" xlink:href="#bh"/></g><g id="D"><use transform="matrix(0.04938271604938272,0,0,0.04938271604938272,0,0)" xlink:href="#bk"/><use transform="matrix(0.04938271604938272,0,0,0.04938271604938272,5.8765432098765435,0)" xlink:href="#aT"/><use transform="matrix(0.04938271604938272,0,0,0.04938271604938272,16.691358024691358,0)" xlink:href="#aS"/></g><g id="E"><use transform="matrix(0.04938271604938272,0,0,0.04938271604938272,0,0)" xlink:href="#bd"/><use transform="matrix(0.04938271604938272,0,0,0.04938271604938272,12.790123456790125,0)" xlink:href="#bj"/><use transform="matrix(0.04938271604938272,0,0,0.04938271604938272,23.60493827160494,0)" xlink:href="#bj"/><use transform="matrix(0.04938271604938272,0,0,0.04938271604938272,34.41975308641975,0)" xlink:href="#bt"/><use transform="matrix(0.04938271604938272,0,0,0.04938271604938272,39.358024691358025,0)" xlink:href="#aV"/><use transform="matrix(0.04938271604938272,0,0,0.04938271604938272,44.2962962962963,0)" xlink:href="#be"/><use transform="matrix(0.04938271604938272,0,0,0.04938271604938272,54.17283950617284,0)" xlink:href="#bi"/><use transform="matrix(0.04938271604938272,0,0,0.04938271604938272,64.0493827160494,0)" xlink:href="#bl"/><use transform="matrix(0.04938271604938272,0,0,0.04938271604938272,69.92592592592594,0)" xlink:href="#aV"/><use transform="matrix(0.04938271604938272,0,0,0.04938271604938272,74.8641975308642,0)" xlink:href="#aT"/><use transform="matrix(0.04938271604938272,0,0,0.04938271604938272,85.67901234567901,0)" xlink:href="#bc"/></g><g id="F"><use transform="matrix(0.04938271604938272,0,0,0.04938271604938272,0,0)" xlink:href="#bo"/><use transform="matrix(0.04938271604938272,0,0,0.04938271604938272,12.790123456790125,0)" xlink:href="#aX"/><use transform="matrix(0.04938271604938272,0,0,0.04938271604938272,22.66666666666667,0)" xlink:href="#bu"/><use transform="matrix(0.04938271604938272,0,0,0.04938271604938272,33.48148148148149,0)" xlink:href="#aV"/><use transform="matrix(0.04938271604938272,0,0,0.04938271604938272,38.41975308641976,0)" xlink:href="#bf"/><use transform="matrix(0.04938271604938272,0,0,0.04938271604938272,48.296296296296305,0)" xlink:href="#bl"/><use transform="matrix(0.04938271604938272,0,0,0.04938271604938272,54.17283950617284,0)" xlink:href="#aS"/><use transform="matrix(0.04938271604938272,0,0,0.04938271604938272,61.08641975308644,0)" xlink:href="#bi"/><use transform="matrix(0.04938271604938272,0,0,0.04938271604938272,70.96296296296298,0)" xlink:href="#bl"/><use transform="matrix(0.04938271604938272,0,0,0.04938271604938272,76.83950617283952,0)" xlink:href="#aV"/><use transform="matrix(0.04938271604938272,0,0,0.04938271604938272,81.7777777777778,0)" xlink:href="#aT"/><use transform="matrix(0.04938271604938272,0,0,0.04938271604938272,92.59259259259261,0)" xlink:href="#bc"/></g><g id="G"><use transform="matrix(0.04938271604938272,0,0,0.04938271604938272,0,0)" xlink:href="#aY"/><use transform="matrix(0.04938271604938272,0,0,0.04938271604938272,12.790123456790125,0)" xlink:href="#aX"/><use transform="matrix(0.04938271604938272,0,0,0.04938271604938272,22.66666666666667,0)" xlink:href="#aS"/><use transform="matrix(0.04938271604938272,0,0,0.04938271604938272,29.580246913580254,0)" xlink:href="#aX"/><use transform="matrix(0.04938271604938272,0,0,0.04938271604938272,39.4567901234568,0)" xlink:href="#bk"/><use transform="matrix(0.04938271604938272,0,0,0.04938271604938272,45.33333333333334,0)" xlink:href="#aX"/><use transform="matrix(0.04938271604938272,0,0,0.04938271604938272,55.209876543209894,0)" xlink:href="#aS"/><use transform="matrix(0.04938271604938272,0,0,0.04938271604938272,62.12345679012347,0)" xlink:href="#aX"/><use transform="matrix(0.04938271604938272,0,0,0.04938271604938272,72.00000000000001,0)" xlink:href="#bc"/><use transform="matrix(0.04938271604938272,0,0,0.04938271604938272,82.81481481481482,0)" xlink:href="#be"/><use transform="matrix(0.04938271604938272,0,0,0.04938271604938272,92.69135802469137,0)" xlink:href="#aX"/><use transform="matrix(0.04938271604938272,0,0,0.04938271604938272,102.56790123456791,0)" xlink:href="#bf"/></g><path fill="#333" d="M62-158H24l-5-90h48" id="bA"/><g id="H"><use transform="matrix(0.04938271604938272,0,0,0.04938271604938272,0,0)" xlink:href="#bd"/><use transform="matrix(0.04938271604938272,0,0,0.04938271604938272,12.790123456790125,0)" xlink:href="#bt"/><use transform="matrix(0.04938271604938272,0,0,0.04938271604938272,17.7283950617284,0)" xlink:href="#aV"/><use transform="matrix(0.04938271604938272,0,0,0.04938271604938272,22.66666666666667,0)" xlink:href="#be"/><use transform="matrix(0.04938271604938272,0,0,0.04938271604938272,32.543209876543216,0)" xlink:href="#aX"/><use transform="matrix(0.04938271604938272,0,0,0.04938271604938272,42.41975308641976,0)" xlink:href="#bA"/><use transform="matrix(0.04938271604938272,0,0,0.04938271604938272,46.61728395061729,0)" xlink:href="#bf"/></g><path fill="#333" d="M76-54c-1 42 2 86-19 110H24C36 42 46 24 48 0H25v-54h51" id="bB"/><g id="I"><use transform="matrix(0.04938271604938272,0,0,0.04938271604938272,0,0)" xlink:href="#bm"/><use transform="matrix(0.04938271604938272,0,0,0.04938271604938272,16.39506172839506,0)" xlink:href="#aX"/><use transform="matrix(0.04938271604938272,0,0,0.04938271604938272,26.271604938271608,0)" xlink:href="#ba"/><use transform="matrix(0.04938271604938272,0,0,0.04938271604938272,37.08641975308642,0)" xlink:href="#bn"/><use transform="matrix(0.04938271604938272,0,0,0.04938271604938272,42.02469135802469,0)" xlink:href="#aY"/><use transform="matrix(0.04938271604938272,0,0,0.04938271604938272,54.81481481481482,0)" xlink:href="#bB"/></g><g id="J"><use transform="matrix(0.04938271604938272,0,0,0.04938271604938272,0,0)" xlink:href="#bu"/><use transform="matrix(0.04938271604938272,0,0,0.04938271604938272,10.814814814814815,0)" xlink:href="#aX"/><use transform="matrix(0.04938271604938272,0,0,0.04938271604938272,20.69135802469136,0)" xlink:href="#bl"/><use transform="matrix(0.04938271604938272,0,0,0.04938271604938272,26.567901234567902,0)" xlink:href="#bf"/></g><g id="K"><use transform="matrix(0.04938271604938272,0,0,0.04938271604938272,0,0)" xlink:href="#bz"/><use transform="matrix(0.04938271604938272,0,0,0.04938271604938272,10.814814814814815,0)" xlink:href="#aX"/><use transform="matrix(0.04938271604938272,0,0,0.04938271604938272,20.69135802469136,0)" xlink:href="#aS"/></g><g id="L"><use transform="matrix(0.04938271604938272,0,0,0.04938271604938272,0,0)" xlink:href="#aR"/><use transform="matrix(0.04938271604938272,0,0,0.04938271604938272,11.851851851851853,0)" xlink:href="#aS"/><use transform="matrix(0.04938271604938272,0,0,0.04938271604938272,18.765432098765434,0)" xlink:href="#aT"/><use transform="matrix(0.04938271604938272,0,0,0.04938271604938272,29.58024691358025,0)" xlink:href="#bk"/><use transform="matrix(0.04938271604938272,0,0,0.04938271604938272,35.45679012345679,0)" xlink:href="#aV"/><use transform="matrix(0.04938271604938272,0,0,0.04938271604938272,40.39506172839506,0)" xlink:href="#bt"/><use transform="matrix(0.04938271604938272,0,0,0.04938271604938272,45.333333333333336,0)" xlink:href="#aX"/></g><path fill="#333" d="M220-157c-53 9-28 100-34 157h-49v-107c1-27-5-49-29-50C55-147 81-57 75 0H25l-1-190h47c2 12-1 28 3 38 10-53 101-56 108 0 13-22 24-43 59-42 82 1 51 116 57 194h-49v-107c-1-25-5-48-29-50" id="bC"/><g id="M"><use transform="matrix(0.04938271604938272,0,0,0.04938271604938272,0,0)" xlink:href="#aY"/><use transform="matrix(0.04938271604938272,0,0,0.04938271604938272,12.790123456790125,0)" xlink:href="#aT"/><use transform="matrix(0.04938271604938272,0,0,0.04938271604938272,23.60493827160494,0)" xlink:href="#be"/><use transform="matrix(0.04938271604938272,0,0,0.04938271604938272,33.48148148148148,0)" xlink:href="#bb"/><use transform="matrix(0.04938271604938272,0,0,0.04938271604938272,44.2962962962963,0)" xlink:href="#bC"/><use transform="matrix(0.04938271604938272,0,0,0.04938271604938272,60.09876543209877,0)" xlink:href="#aX"/><use transform="matrix(0.04938271604938272,0,0,0.04938271604938272,69.97530864197532,0)" xlink:href="#bc"/><use transform="matrix(0.04938271604938272,0,0,0.04938271604938272,80.79012345679013,0)" xlink:href="#bl"/></g><g id="N"><use transform="matrix(0.04938271604938272,0,0,0.04938271604938272,0,0)" xlink:href="#bw"/><use transform="matrix(0.04938271604938272,0,0,0.04938271604938272,13.827160493827162,0)" xlink:href="#bj"/><use transform="matrix(0.04938271604938272,0,0,0.04938271604938272,24.641975308641975,0)" xlink:href="#aX"/><use transform="matrix(0.04938271604938272,0,0,0.04938271604938272,34.51851851851852,0)" xlink:href="#bc"/></g><path fill="#333" d="M12 0v-35l95-120H19v-35h142v35L67-36h103V0H12" id="bD"/><g id="O"><use transform="matrix(0.04938271604938272,0,0,0.04938271604938272,0,0)" xlink:href="#bd"/><use transform="matrix(0.04938271604938272,0,0,0.04938271604938272,12.790123456790125,0)" xlink:href="#bb"/><use transform="matrix(0.04938271604938272,0,0,0.04938271604938272,23.60493827160494,0)" xlink:href="#bl"/><use transform="matrix(0.04938271604938272,0,0,0.04938271604938272,29.481481481481485,0)" xlink:href="#bz"/><use transform="matrix(0.04938271604938272,0,0,0.04938271604938272,40.2962962962963,0)" xlink:href="#aT"/><use transform="matrix(0.04938271604938272,0,0,0.04938271604938272,51.111111111111114,0)" xlink:href="#aS"/><use transform="matrix(0.04938271604938272,0,0,0.04938271604938272,58.0246913580247,0)" xlink:href="#aV"/><use transform="matrix(0.04938271604938272,0,0,0.04938271604938272,62.96296296296297,0)" xlink:href="#bD"/><use transform="matrix(0.04938271604938272,0,0,0.04938271604938272,71.85185185185186,0)" xlink:href="#bi"/><use transform="matrix(0.04938271604938272,0,0,0.04938271604938272,81.7283950617284,0)" xlink:href="#bl"/><use transform="matrix(0.04938271604938272,0,0,0.04938271604938272,87.60493827160495,0)" xlink:href="#aV"/><use transform="matrix(0.04938271604938272,0,0,0.04938271604938272,92.54320987654322,0)" xlink:href="#aT"/><use transform="matrix(0.04938271604938272,0,0,0.04938271604938272,103.35802469135804,0)" xlink:href="#bc"/></g><g id="P"><use transform="matrix(0.04938271604938272,0,0,0.04938271604938272,0,0)" xlink:href="#bd"/><use transform="matrix(0.04938271604938272,0,0,0.04938271604938272,12.790123456790125,0)" xlink:href="#bu"/><use transform="matrix(0.04938271604938272,0,0,0.04938271604938272,23.60493827160494,0)" xlink:href="#aX"/><use transform="matrix(0.04938271604938272,0,0,0.04938271604938272,33.48148148148148,0)" xlink:href="#bc"/><use transform="matrix(0.04938271604938272,0,0,0.04938271604938272,44.2962962962963,0)" xlink:href="#bl"/><use transform="matrix(0.04938271604938272,0,0,0.04938271604938272,50.17283950617284,0)" xlink:href="#bB"/></g><g id="Q"><use transform="matrix(0.04938271604938272,0,0,0.04938271604938272,0,0)" xlink:href="#bj"/><use transform="matrix(0.04938271604938272,0,0,0.04938271604938272,10.814814814814815,0)" xlink:href="#aS"/><use transform="matrix(0.04938271604938272,0,0,0.04938271604938272,17.728395061728396,0)" xlink:href="#aT"/><use transform="matrix(0.04938271604938272,0,0,0.04938271604938272,28.543209876543205,0)" xlink:href="#aU"/><use transform="matrix(0.04938271604938272,0,0,0.04938271604938272,38.41975308641975,0)" xlink:href="#aV"/><use transform="matrix(0.04938271604938272,0,0,0.04938271604938272,43.358024691358025,0)" xlink:href="#aW"/><use transform="matrix(0.04938271604938272,0,0,0.04938271604938272,54.17283950617284,0)" xlink:href="#aV"/><use transform="matrix(0.04938271604938272,0,0,0.04938271604938272,59.111111111111114,0)" xlink:href="#bc"/><use transform="matrix(0.04938271604938272,0,0,0.04938271604938272,69.92592592592592,0)" xlink:href="#bu"/></g><g id="R"><use transform="matrix(0.04938271604938272,0,0,0.04938271604938272,0,0)" xlink:href="#bd"/><use transform="matrix(0.04938271604938272,0,0,0.04938271604938272,12.790123456790125,0)" xlink:href="#be"/><use transform="matrix(0.04938271604938272,0,0,0.04938271604938272,22.66666666666667,0)" xlink:href="#bC"/><use transform="matrix(0.04938271604938272,0,0,0.04938271604938272,38.46913580246914,0)" xlink:href="#aX"/></g><path fill="#333" d="M25-224v-37h50v37H25zM75 22c2 45-34 59-81 51V38c22 5 31-5 31-27v-201h50V22" id="bE"/><g id="S"><use transform="matrix(0.04938271604938272,0,0,0.04938271604938272,0,0)" xlink:href="#aR"/><use transform="matrix(0.04938271604938272,0,0,0.04938271604938272,11.851851851851853,0)" xlink:href="#aS"/><use transform="matrix(0.04938271604938272,0,0,0.04938271604938272,18.765432098765434,0)" xlink:href="#aT"/><use transform="matrix(0.04938271604938272,0,0,0.04938271604938272,29.58024691358025,0)" xlink:href="#bE"/><use transform="matrix(0.04938271604938272,0,0,0.04938271604938272,34.51851851851852,0)" xlink:href="#aX"/><use transform="matrix(0.04938271604938272,0,0,0.04938271604938272,44.39506172839506,0)" xlink:href="#be"/><use transform="matrix(0.04938271604938272,0,0,0.04938271604938272,54.27160493827161,0)" xlink:href="#bl"/></g><path fill="#333" d="M123 10C108 53 80 86 19 72V37c35 8 53-11 59-39L3-190h52l48 148c12-52 28-100 44-148h51" id="bF"/><g id="T"><use transform="matrix(0.04938271604938272,0,0,0.04938271604938272,0,0)" xlink:href="#bn"/><use transform="matrix(0.04938271604938272,0,0,0.04938271604938272,4.938271604938272,0)" xlink:href="#aW"/><use transform="matrix(0.04938271604938272,0,0,0.04938271604938272,15.753086419753087,0)" xlink:href="#aX"/><use transform="matrix(0.04938271604938272,0,0,0.04938271604938272,25.629629629629633,0)" xlink:href="#bc"/><use transform="matrix(0.04938271604938272,0,0,0.04938271604938272,36.44444444444445,0)" xlink:href="#bl"/><use transform="matrix(0.04938271604938272,0,0,0.04938271604938272,42.320987654320994,0)" xlink:href="#aV"/><use transform="matrix(0.04938271604938272,0,0,0.04938271604938272,47.25925925925927,0)" xlink:href="#bl"/><use transform="matrix(0.04938271604938272,0,0,0.04938271604938272,53.135802469135804,0)" xlink:href="#bF"/></g><g id="U"><use transform="matrix(0.04938271604938272,0,0,0.04938271604938272,0,0)" xlink:href="#bo"/><use transform="matrix(0.04938271604938272,0,0,0.04938271604938272,12.790123456790125,0)" xlink:href="#aX"/><use transform="matrix(0.04938271604938272,0,0,0.04938271604938272,22.66666666666667,0)" xlink:href="#aW"/><use transform="matrix(0.04938271604938272,0,0,0.04938271604938272,33.48148148148149,0)" xlink:href="#aV"/><use transform="matrix(0.04938271604938272,0,0,0.04938271604938272,38.41975308641976,0)" xlink:href="#aS"/><use transform="matrix(0.04938271604938272,0,0,0.04938271604938272,45.33333333333334,0)" xlink:href="#aX"/><use transform="matrix(0.04938271604938272,0,0,0.04938271604938272,55.209876543209894,0)" xlink:href="#be"/><use transform="matrix(0.04938271604938272,0,0,0.04938271604938272,65.08641975308643,0)" xlink:href="#bl"/></g><g id="V"><use transform="matrix(0.04938271604938272,0,0,0.04938271604938272,0,0)" xlink:href="#bd"/><use transform="matrix(0.04938271604938272,0,0,0.04938271604938272,12.790123456790125,0)" xlink:href="#bt"/><use transform="matrix(0.04938271604938272,0,0,0.04938271604938272,17.7283950617284,0)" xlink:href="#aV"/><use transform="matrix(0.04938271604938272,0,0,0.04938271604938272,22.66666666666667,0)" xlink:href="#be"/><use transform="matrix(0.04938271604938272,0,0,0.04938271604938272,32.543209876543216,0)" xlink:href="#aX"/></g><g id="W"><use transform="matrix(0.04938271604938272,0,0,0.04938271604938272,0,0)" xlink:href="#bl"/><use transform="matrix(0.04938271604938272,0,0,0.04938271604938272,5.8765432098765435,0)" xlink:href="#aT"/></g><g id="X"><use transform="matrix(0.04938271604938272,0,0,0.04938271604938272,0,0)" xlink:href="#bd"/><use transform="matrix(0.04938271604938272,0,0,0.04938271604938272,12.790123456790125,0)" xlink:href="#bb"/><use transform="matrix(0.04938271604938272,0,0,0.04938271604938272,23.60493827160494,0)" xlink:href="#bl"/><use transform="matrix(0.04938271604938272,0,0,0.04938271604938272,29.481481481481485,0)" xlink:href="#bz"/><use transform="matrix(0.04938271604938272,0,0,0.04938271604938272,40.2962962962963,0)" xlink:href="#aT"/><use transform="matrix(0.04938271604938272,0,0,0.04938271604938272,51.111111111111114,0)" xlink:href="#aS"/><use transform="matrix(0.04938271604938272,0,0,0.04938271604938272,58.0246913580247,0)" xlink:href="#aV"/><use transform="matrix(0.04938271604938272,0,0,0.04938271604938272,62.96296296296297,0)" xlink:href="#bD"/><use transform="matrix(0.04938271604938272,0,0,0.04938271604938272,71.85185185185186,0)" xlink:href="#bi"/><use transform="matrix(0.04938271604938272,0,0,0.04938271604938272,81.7283950617284,0)" xlink:href="#bl"/><use transform="matrix(0.04938271604938272,0,0,0.04938271604938272,87.60493827160495,0)" xlink:href="#aV"/><use transform="matrix(0.04938271604938272,0,0,0.04938271604938272,92.54320987654322,0)" xlink:href="#aT"/><use transform="matrix(0.04938271604938272,0,0,0.04938271604938272,103.35802469135804,0)" xlink:href="#bc"/></g><g id="Y"><use transform="matrix(0.04938271604938272,0,0,0.04938271604938272,0,0)" xlink:href="#bj"/><use transform="matrix(0.04938271604938272,0,0,0.04938271604938272,10.814814814814815,0)" xlink:href="#aS"/><use transform="matrix(0.04938271604938272,0,0,0.04938271604938272,17.728395061728396,0)" xlink:href="#aT"/><use transform="matrix(0.04938271604938272,0,0,0.04938271604938272,28.543209876543205,0)" xlink:href="#aU"/><use transform="matrix(0.04938271604938272,0,0,0.04938271604938272,38.41975308641975,0)" xlink:href="#aV"/><use transform="matrix(0.04938271604938272,0,0,0.04938271604938272,43.358024691358025,0)" xlink:href="#aW"/><use transform="matrix(0.04938271604938272,0,0,0.04938271604938272,54.17283950617284,0)" xlink:href="#aX"/></g><g id="Z"><use transform="matrix(0.04938271604938272,0,0,0.04938271604938272,0,0)" xlink:href="#ba"/><use transform="matrix(0.04938271604938272,0,0,0.04938271604938272,10.814814814814815,0)" xlink:href="#bi"/><use transform="matrix(0.04938271604938272,0,0,0.04938271604938272,20.69135802469136,0)" xlink:href="#be"/><use transform="matrix(0.04938271604938272,0,0,0.04938271604938272,30.567901234567906,0)" xlink:href="#bh"/></g><g id="aa"><use transform="matrix(0.04938271604938272,0,0,0.04938271604938272,0,0)" xlink:href="#aR"/><use transform="matrix(0.04938271604938272,0,0,0.04938271604938272,11.851851851851853,0)" xlink:href="#aS"/><use transform="matrix(0.04938271604938272,0,0,0.04938271604938272,18.765432098765434,0)" xlink:href="#aT"/><use transform="matrix(0.04938271604938272,0,0,0.04938271604938272,29.58024691358025,0)" xlink:href="#bE"/><use transform="matrix(0.04938271604938272,0,0,0.04938271604938272,34.51851851851852,0)" xlink:href="#aX"/><use transform="matrix(0.04938271604938272,0,0,0.04938271604938272,44.39506172839506,0)" xlink:href="#be"/><use transform="matrix(0.04938271604938272,0,0,0.04938271604938272,54.27160493827161,0)" xlink:href="#bl"/></g><g id="ab"><use transform="matrix(0.04938271604938272,0,0,0.04938271604938272,0,0)" xlink:href="#aY"/><use transform="matrix(0.04938271604938272,0,0,0.04938271604938272,12.790123456790125,0)" xlink:href="#aV"/><use transform="matrix(0.04938271604938272,0,0,0.04938271604938272,17.7283950617284,0)" xlink:href="#bf"/><use transform="matrix(0.04938271604938272,0,0,0.04938271604938272,27.604938271604947,0)" xlink:href="#be"/><use transform="matrix(0.04938271604938272,0,0,0.04938271604938272,37.48148148148149,0)" xlink:href="#aT"/><use transform="matrix(0.04938271604938272,0,0,0.04938271604938272,48.296296296296305,0)" xlink:href="#aU"/><use transform="matrix(0.04938271604938272,0,0,0.04938271604938272,58.17283950617284,0)" xlink:href="#aX"/><use transform="matrix(0.04938271604938272,0,0,0.04938271604938272,68.0493827160494,0)" xlink:href="#aS"/></g><g id="ac"><use transform="matrix(0.04938271604938272,0,0,0.04938271604938272,0,0)" xlink:href="#bd"/><use transform="matrix(0.04938271604938272,0,0,0.04938271604938272,12.790123456790125,0)" xlink:href="#bu"/><use transform="matrix(0.04938271604938272,0,0,0.04938271604938272,23.60493827160494,0)" xlink:href="#aX"/><use transform="matrix(0.04938271604938272,0,0,0.04938271604938272,33.48148148148148,0)" xlink:href="#bc"/><use transform="matrix(0.04938271604938272,0,0,0.04938271604938272,44.2962962962963,0)" xlink:href="#bl"/></g><g id="ad"><use transform="matrix(0.04938271604938272,0,0,0.04938271604938272,0,0)" xlink:href="#bk"/><use transform="matrix(0.04938271604938272,0,0,0.04938271604938272,5.8765432098765435,0)" xlink:href="#aS"/><use transform="matrix(0.04938271604938272,0,0,0.04938271604938272,12.790123456790125,0)" xlink:href="#aT"/><use transform="matrix(0.04938271604938272,0,0,0.04938271604938272,23.604938271604937,0)" xlink:href="#bC"/></g><g id="ae"><use transform="matrix(0.04938271604938272,0,0,0.04938271604938272,0,0)" xlink:href="#aR"/><use transform="matrix(0.04938271604938272,0,0,0.04938271604938272,11.851851851851853,0)" xlink:href="#aS"/><use transform="matrix(0.04938271604938272,0,0,0.04938271604938272,18.765432098765434,0)" xlink:href="#aX"/><use transform="matrix(0.04938271604938272,0,0,0.04938271604938272,28.641975308641978,0)" xlink:href="#bf"/><use transform="matrix(0.04938271604938272,0,0,0.04938271604938272,38.51851851851852,0)" xlink:href="#aX"/><use transform="matrix(0.04938271604938272,0,0,0.04938271604938272,48.39506172839506,0)" xlink:href="#bc"/><use transform="matrix(0.04938271604938272,0,0,0.04938271604938272,59.20987654320988,0)" xlink:href="#bl"/></g><g id="af"><use transform="matrix(0.04938271604938272,0,0,0.04938271604938272,0,0)" xlink:href="#bd"/><use transform="matrix(0.04938271604938272,0,0,0.04938271604938272,12.790123456790125,0)" xlink:href="#be"/><use transform="matrix(0.04938271604938272,0,0,0.04938271604938272,22.66666666666667,0)" xlink:href="#bC"/><use transform="matrix(0.04938271604938272,0,0,0.04938271604938272,38.46913580246914,0)" xlink:href="#aX"/></g><g id="ag"><use transform="matrix(0.04938271604938272,0,0,0.04938271604938272,0,0)" xlink:href="#bs"/><use transform="matrix(0.04938271604938272,0,0,0.04938271604938272,12.790123456790125,0)" xlink:href="#aX"/><use transform="matrix(0.04938271604938272,0,0,0.04938271604938272,22.66666666666667,0)" xlink:href="#aX"/><use transform="matrix(0.04938271604938272,0,0,0.04938271604938272,32.543209876543216,0)" xlink:href="#aW"/><use transform="matrix(0.04938271604938272,0,0,0.04938271604938272,43.35802469135803,0)" xlink:href="#bf"/></g><g id="ah"><use transform="matrix(0.04938271604938272,0,0,0.04938271604938272,0,0)" xlink:href="#bo"/><use transform="matrix(0.04938271604938272,0,0,0.04938271604938272,12.790123456790125,0)" xlink:href="#aX"/><use transform="matrix(0.04938271604938272,0,0,0.04938271604938272,22.66666666666667,0)" xlink:href="#be"/><use transform="matrix(0.04938271604938272,0,0,0.04938271604938272,32.543209876543216,0)" xlink:href="#aT"/><use transform="matrix(0.04938271604938272,0,0,0.04938271604938272,43.35802469135803,0)" xlink:href="#aS"/><use transform="matrix(0.04938271604938272,0,0,0.04938271604938272,50.271604938271615,0)" xlink:href="#aW"/></g><g id="ai"><use transform="matrix(0.04938271604938272,0,0,0.04938271604938272,0,0)" xlink:href="#bd"/><use transform="matrix(0.04938271604938272,0,0,0.04938271604938272,12.790123456790125,0)" xlink:href="#be"/><use transform="matrix(0.04938271604938272,0,0,0.04938271604938272,22.66666666666667,0)" xlink:href="#be"/><use transform="matrix(0.04938271604938272,0,0,0.04938271604938272,32.543209876543216,0)" xlink:href="#aX"/><use transform="matrix(0.04938271604938272,0,0,0.04938271604938272,42.41975308641976,0)" xlink:href="#bf"/><use transform="matrix(0.04938271604938272,0,0,0.04938271604938272,52.2962962962963,0)" xlink:href="#bf"/></g><path fill="#333" d="M67-125c0 54 23 88 75 88 28 0 53-7 68-21v-34h-60v-39h108v91C232-14 192 4 140 4 58 4 20-42 15-125 8-236 126-280 215-234c19 10 29 26 37 47l-47 15c-11-23-29-39-63-39-53 1-75 33-75 86" id="bG"/><g id="aj"><use transform="matrix(0.04938271604938272,0,0,0.04938271604938272,0,0)" xlink:href="#bG"/><use transform="matrix(0.04938271604938272,0,0,0.04938271604938272,13.827160493827162,0)" xlink:href="#aS"/><use transform="matrix(0.04938271604938272,0,0,0.04938271604938272,20.74074074074074,0)" xlink:href="#bi"/><use transform="matrix(0.04938271604938272,0,0,0.04938271604938272,30.617283950617285,0)" xlink:href="#bc"/><use transform="matrix(0.04938271604938272,0,0,0.04938271604938272,41.4320987654321,0)" xlink:href="#bl"/></g><g id="ak"><use transform="matrix(0.04938271604938272,0,0,0.04938271604938272,0,0)" xlink:href="#bd"/><use transform="matrix(0.04938271604938272,0,0,0.04938271604938272,12.790123456790125,0)" xlink:href="#bj"/><use transform="matrix(0.04938271604938272,0,0,0.04938271604938272,23.60493827160494,0)" xlink:href="#bj"/><use transform="matrix(0.04938271604938272,0,0,0.04938271604938272,34.41975308641975,0)" xlink:href="#bt"/><use transform="matrix(0.04938271604938272,0,0,0.04938271604938272,39.358024691358025,0)" xlink:href="#bF"/></g><g id="al"><use transform="matrix(0.04938271604938272,0,0,0.04938271604938272,0,0)" xlink:href="#aR"/><use transform="matrix(0.04938271604938272,0,0,0.04938271604938272,11.851851851851853,0)" xlink:href="#aX"/><use transform="matrix(0.04938271604938272,0,0,0.04938271604938272,21.7283950617284,0)" xlink:href="#aS"/><use transform="matrix(0.04938271604938272,0,0,0.04938271604938272,28.64197530864198,0)" xlink:href="#bC"/><use transform="matrix(0.04938271604938272,0,0,0.04938271604938272,44.44444444444445,0)" xlink:href="#aV"/><use transform="matrix(0.04938271604938272,0,0,0.04938271604938272,49.38271604938272,0)" xlink:href="#bf"/><use transform="matrix(0.04938271604938272,0,0,0.04938271604938272,59.25925925925927,0)" xlink:href="#bf"/><use transform="matrix(0.04938271604938272,0,0,0.04938271604938272,69.13580246913581,0)" xlink:href="#aV"/><use transform="matrix(0.04938271604938272,0,0,0.04938271604938272,74.07407407407408,0)" xlink:href="#aT"/><use transform="matrix(0.04938271604938272,0,0,0.04938271604938272,84.88888888888889,0)" xlink:href="#bc"/><use transform="matrix(0.04938271604938272,0,0,0.04938271604938272,95.7037037037037,0)" xlink:href="#bf"/></g><g id="am"><use transform="matrix(0.04938271604938272,0,0,0.04938271604938272,0,0)" xlink:href="#bo"/><use transform="matrix(0.04938271604938272,0,0,0.04938271604938272,12.790123456790125,0)" xlink:href="#aX"/><use transform="matrix(0.04938271604938272,0,0,0.04938271604938272,22.66666666666667,0)" xlink:href="#be"/><use transform="matrix(0.04938271604938272,0,0,0.04938271604938272,32.543209876543216,0)" xlink:href="#aX"/><use transform="matrix(0.04938271604938272,0,0,0.04938271604938272,42.41975308641976,0)" xlink:href="#aV"/><use transform="matrix(0.04938271604938272,0,0,0.04938271604938272,47.35802469135803,0)" xlink:href="#bj"/><use transform="matrix(0.04938271604938272,0,0,0.04938271604938272,58.17283950617284,0)" xlink:href="#bl"/></g><g id="an"><use transform="matrix(0.04938271604938272,0,0,0.04938271604938272,0,0)" xlink:href="#aV"/><use transform="matrix(0.04938271604938272,0,0,0.04938271604938272,4.938271604938272,0)" xlink:href="#bc"/></g><g id="ao"><use transform="matrix(0.04938271604938272,0,0,0.04938271604938272,0,0)" xlink:href="#bk"/><use transform="matrix(0.04938271604938272,0,0,0.04938271604938272,5.8765432098765435,0)" xlink:href="#aT"/><use transform="matrix(0.04938271604938272,0,0,0.04938271604938272,16.691358024691358,0)" xlink:href="#aS"/></g><g id="ap"><use transform="matrix(0.04938271604938272,0,0,0.04938271604938272,0,0)" xlink:href="#bo"/><use transform="matrix(0.04938271604938272,0,0,0.04938271604938272,12.790123456790125,0)" xlink:href="#aX"/><use transform="matrix(0.04938271604938272,0,0,0.04938271604938272,22.66666666666667,0)" xlink:href="#be"/><use transform="matrix(0.04938271604938272,0,0,0.04938271604938272,32.543209876543216,0)" xlink:href="#aX"/><use transform="matrix(0.04938271604938272,0,0,0.04938271604938272,42.41975308641976,0)" xlink:href="#aV"/><use transform="matrix(0.04938271604938272,0,0,0.04938271604938272,47.35802469135803,0)" xlink:href="#bj"/><use transform="matrix(0.04938271604938272,0,0,0.04938271604938272,58.17283950617284,0)" xlink:href="#bl"/></g><g id="aq"><use transform="matrix(0.04938271604938272,0,0,0.04938271604938272,0,0)" xlink:href="#bo"/><use transform="matrix(0.04938271604938272,0,0,0.04938271604938272,12.790123456790125,0)" xlink:href="#aX"/><use transform="matrix(0.04938271604938272,0,0,0.04938271604938272,22.66666666666667,0)" xlink:href="#bu"/><use transform="matrix(0.04938271604938272,0,0,0.04938271604938272,33.48148148148149,0)" xlink:href="#aV"/><use transform="matrix(0.04938271604938272,0,0,0.04938271604938272,38.41975308641976,0)" xlink:href="#bf"/><use transform="matrix(0.04938271604938272,0,0,0.04938271604938272,48.296296296296305,0)" xlink:href="#bl"/><use transform="matrix(0.04938271604938272,0,0,0.04938271604938272,54.17283950617284,0)" xlink:href="#aX"/><use transform="matrix(0.04938271604938272,0,0,0.04938271604938272,64.0493827160494,0)" xlink:href="#aS"/></g><g id="ar"><use transform="matrix(0.04938271604938272,0,0,0.04938271604938272,0,0)" xlink:href="#bo"/><use transform="matrix(0.04938271604938272,0,0,0.04938271604938272,12.790123456790125,0)" xlink:href="#aX"/><use transform="matrix(0.04938271604938272,0,0,0.04938271604938272,22.66666666666667,0)" xlink:href="#bu"/><use transform="matrix(0.04938271604938272,0,0,0.04938271604938272,33.48148148148149,0)" xlink:href="#aV"/><use transform="matrix(0.04938271604938272,0,0,0.04938271604938272,38.41975308641976,0)" xlink:href="#bf"/><use transform="matrix(0.04938271604938272,0,0,0.04938271604938272,48.296296296296305,0)" xlink:href="#bl"/><use transform="matrix(0.04938271604938272,0,0,0.04938271604938272,54.17283950617284,0)" xlink:href="#aS"/><use transform="matrix(0.04938271604938272,0,0,0.04938271604938272,61.08641975308644,0)" xlink:href="#bF"/></g><g id="as"><use transform="matrix(0.04938271604938272,0,0,0.04938271604938272,0,0)" xlink:href="#bd"/><use transform="matrix(0.04938271604938272,0,0,0.04938271604938272,12.790123456790125,0)" xlink:href="#be"/><use transform="matrix(0.04938271604938272,0,0,0.04938271604938272,22.66666666666667,0)" xlink:href="#be"/><use transform="matrix(0.04938271604938272,0,0,0.04938271604938272,32.543209876543216,0)" xlink:href="#aX"/><use transform="matrix(0.04938271604938272,0,0,0.04938271604938272,42.41975308641976,0)" xlink:href="#bf"/><use transform="matrix(0.04938271604938272,0,0,0.04938271604938272,52.2962962962963,0)" xlink:href="#bf"/></g><g id="at"><use transform="matrix(0.04938271604938272,0,0,0.04938271604938272,0,0)" xlink:href="#bj"/><use transform="matrix(0.04938271604938272,0,0,0.04938271604938272,10.814814814814815,0)" xlink:href="#aS"/><use transform="matrix(0.04938271604938272,0,0,0.04938271604938272,17.728395061728396,0)" xlink:href="#aT"/><use transform="matrix(0.04938271604938272,0,0,0.04938271604938272,28.543209876543205,0)" xlink:href="#bE"/><use transform="matrix(0.04938271604938272,0,0,0.04938271604938272,33.48148148148148,0)" xlink:href="#aX"/><use transform="matrix(0.04938271604938272,0,0,0.04938271604938272,43.358024691358025,0)" xlink:href="#be"/><use transform="matrix(0.04938271604938272,0,0,0.04938271604938272,53.23456790123457,0)" xlink:href="#bl"/></g><g id="au"><use transform="matrix(0.04938271604938272,0,0,0.04938271604938272,0,0)" xlink:href="#aS"/><use transform="matrix(0.04938271604938272,0,0,0.04938271604938272,6.913580246913581,0)" xlink:href="#aX"/><use transform="matrix(0.04938271604938272,0,0,0.04938271604938272,16.790123456790127,0)" xlink:href="#bt"/><use transform="matrix(0.04938271604938272,0,0,0.04938271604938272,21.7283950617284,0)" xlink:href="#bi"/><use transform="matrix(0.04938271604938272,0,0,0.04938271604938272,31.60493827160494,0)" xlink:href="#bl"/><use transform="matrix(0.04938271604938272,0,0,0.04938271604938272,37.48148148148149,0)" xlink:href="#aX"/><use transform="matrix(0.04938271604938272,0,0,0.04938271604938272,47.35802469135803,0)" xlink:href="#aW"/></g><g id="av"><use transform="matrix(0.04938271604938272,0,0,0.04938271604938272,0,0)" xlink:href="#aW"/><use transform="matrix(0.04938271604938272,0,0,0.04938271604938272,10.814814814814815,0)" xlink:href="#bi"/><use transform="matrix(0.04938271604938272,0,0,0.04938271604938272,20.69135802469136,0)" xlink:href="#bl"/><use transform="matrix(0.04938271604938272,0,0,0.04938271604938272,26.567901234567902,0)" xlink:href="#bi"/></g><g id="aw"><use transform="matrix(0.04938271604938272,0,0,0.04938271604938272,0,0)" xlink:href="#bx"/><use transform="matrix(0.04938271604938272,0,0,0.04938271604938272,12.790123456790125,0)" xlink:href="#bz"/><use transform="matrix(0.04938271604938272,0,0,0.04938271604938272,23.60493827160494,0)" xlink:href="#aT"/><use transform="matrix(0.04938271604938272,0,0,0.04938271604938272,34.41975308641975,0)" xlink:href="#aT"/><use transform="matrix(0.04938271604938272,0,0,0.04938271604938272,45.23456790123457,0)" xlink:href="#bf"/><use transform="matrix(0.04938271604938272,0,0,0.04938271604938272,55.111111111111114,0)" xlink:href="#aX"/></g><g id="ax"><use transform="matrix(0.04938271604938272,0,0,0.04938271604938272,0,0)" xlink:href="#bf"/><use transform="matrix(0.04938271604938272,0,0,0.04938271604938272,9.876543209876544,0)" xlink:href="#be"/><use transform="matrix(0.04938271604938272,0,0,0.04938271604938272,19.75308641975309,0)" xlink:href="#aT"/><use transform="matrix(0.04938271604938272,0,0,0.04938271604938272,30.567901234567906,0)" xlink:href="#bj"/><use transform="matrix(0.04938271604938272,0,0,0.04938271604938272,41.38271604938272,0)" xlink:href="#aX"/></g><g id="ay"><use transform="matrix(0.04938271604938272,0,0,0.04938271604938272,0,0)" xlink:href="#aT"/><use transform="matrix(0.04938271604938272,0,0,0.04938271604938272,10.814814814814815,0)" xlink:href="#bk"/></g></defs></g></svg>