<svg xmlns="http://www.w3.org/2000/svg" xmlns:xlink="http://www.w3.org/1999/xlink" xmlns:lucid="lucid" width="1620" height="281.2"><g transform="translate(-80 -788)" lucid:page-tab-id="4~GA5iOa~PJM"><path d="M240 980c0 38.22-31.34 69.2-70 69.2s-70-30.98-70-69.2 31.34-69.2 70-69.2 70 30.98 70 69.2z" stroke="#000" stroke-width="2" fill="#0c7cba"/><use xlink:href="#a" transform="matrix(1,0,0,1,105,915.8) translate(39.599999999999994 66.80625)"/><path d="M242 980h358.5" stroke="#000" stroke-width="2" fill="none"/><path d="M242.03 981h-1.07l.04-1-.03-1h1.06z"/><path d="M615.76 980l-14.26 4.64v-9.28z" stroke="#000" stroke-width="2"/><path d="M760 980c0 38.22-31.34 69.2-70 69.2s-70-30.98-70-69.2 31.34-69.2 70-69.2 70 30.98 70 69.2z" stroke="#000" stroke-width="2" fill="#0c7cba"/><use xlink:href="#b" transform="matrix(1,0,0,1,625,915.8) translate(7.124999999999993 58.74375)"/><use xlink:href="#c" transform="matrix(1,0,0,1,625,915.8) translate(51.025 58.74375)"/><use xlink:href="#d" transform="matrix(1,0,0,1,625,915.8) translate(51.025 80.34375)"/><path d="M1240 980.2c0 38.1-31.34 69-70 69s-70-30.9-70-69 31.34-69 70-69 70 30.9 70 69z" stroke="#000" stroke-width="2" fill="#0c7cba"/><use xlink:href="#b" transform="matrix(1,0,0,1,1105,916.2) translate(7.124999999999993 66.4)"/><use xlink:href="#e" transform="matrix(1,0,0,1,1105,916.2) translate(51.025 66.4)"/><path d="M762 980h168v.2h150.5" stroke="#000" stroke-width="2" fill="none"/><path d="M762.03 981h-1.07l.04-1-.03-1h1.06z"/><path d="M1095.76 980.2l-14.26 4.64v-9.28z" stroke="#000" stroke-width="2"/><path d="M860 942.6h120v74.8H860z" stroke="#000" stroke-width="2" fill="#7ab648"/><use xlink:href="#f" transform="matrix(1,0,0,1,865,947.6) translate(16.574999999999996 24.55625)"/><use xlink:href="#g" transform="matrix(1,0,0,1,865,947.6) translate(54.525 24.55625)"/><use xlink:href="#h" transform="matrix(1,0,0,1,865,947.6) translate(19.074999999999996 46.15625)"/><path d="M340 943.8h160v74.8H340z" stroke="#000" stroke-width="2" fill="#7ab648"/><use xlink:href="#f" transform="matrix(1,0,0,1,345,948.8000000000001) translate(36.574999999999996 24.55625)"/><use xlink:href="#g" transform="matrix(1,0,0,1,345,948.8000000000001) translate(74.525 24.55625)"/><use xlink:href="#i" transform="matrix(1,0,0,1,345,948.8000000000001) translate(22.599999999999994 46.15625)"/><use xlink:href="#d" transform="matrix(1,0,0,1,345,948.8000000000001) translate(99.45 46.15625)"/><path d="M1680 978.4c0 38.1-31.34 69-70 69s-70-30.9-70-69 31.34-69 70-69 70 30.9 70 69z" stroke="#000" stroke-width="2" fill="#0c7cba"/><use xlink:href="#j" transform="matrix(1,0,0,1,1545,914.4000000000001) translate(45.55 58.4)"/><use xlink:href="#k" transform="matrix(1,0,0,1,1545,914.4000000000001) translate(12.649999999999991 80)"/><path d="M1242 980.2h278.56" stroke="#000" stroke-width="2" fill="none"/><path d="M1242.03 981.2h-1.07l.04-1-.03-1h1.06z"/><path d="M1535.83 980.2l-14.27 4.64v-9.28z" stroke="#000" stroke-width="2"/><path d="M1320 953.4h120v53.2h-120z" stroke="#000" stroke-width="2" fill="#7ab648"/><g><use xlink:href="#l" transform="matrix(1,0,0,1,1325,958.4) translate(38.525 14.4)"/><use xlink:href="#k" transform="matrix(1,0,0,1,1325,958.4) translate(2.6499999999999915 36)"/></g><path d="M1610 907.4V830H170v61.3" stroke="#000" stroke-width="2" fill="none"/><path d="M1611 908.44l-1-.04-1 .03v-1.06h2z"/><path d="M170 906.56l-4.64-14.26h9.28z" stroke="#000" stroke-width="2"/><path d="M840 808h160v40H840z" stroke="#000" stroke-width="2" fill="#7ab648"/><g><use xlink:href="#m" transform="matrix(1,0,0,1,845,813) translate(14.624999999999993 18.15)"/><use xlink:href="#n" transform="matrix(1,0,0,1,845,813) translate(112.42500000000001 18.15)"/></g><defs><path fill="#fff" d="M199 0l-22-63H83L61 0H9l90-248h61L250 0h-51zm-33-102l-36-108c-10 38-24 72-36 108h72" id="o"/><path fill="#fff" d="M195-6C206 82 75 100 31 46c-4-6-6-13-8-21l49-6c3 16 16 24 34 25 40 0 42-37 40-79-11 22-30 35-61 35-53 0-70-43-70-97 0-56 18-96 73-97 30 0 46 14 59 34l2-30h47zm-90-29c32 0 41-27 41-63 0-35-9-62-40-62-32 0-39 29-40 63 0 36 9 62 39 62" id="p"/><path fill="#fff" d="M185-48c-13 30-37 53-82 52C43 2 14-33 14-96s30-98 90-98c62 0 83 45 84 108H66c0 31 8 55 39 56 18 0 30-7 34-22zm-45-69c5-46-57-63-70-21-2 6-4 13-4 21h74" id="q"/><path fill="#fff" d="M135-194c87-1 58 113 63 194h-50c-7-57 23-157-34-157-59 0-34 97-39 157H25l-1-190h47c2 12-1 28 3 38 12-26 28-41 61-42" id="r"/><path fill="#fff" d="M115-3C79 11 28 4 28-45v-112H4v-33h27l15-45h31v45h36v33H77v99c-1 23 16 31 38 25v30" id="s"/><g id="a"><use transform="matrix(0.05,0,0,0.05,0,0)" xlink:href="#o"/><use transform="matrix(0.05,0,0,0.05,12.950000000000001,0)" xlink:href="#p"/><use transform="matrix(0.05,0,0,0.05,23.900000000000002,0)" xlink:href="#q"/><use transform="matrix(0.05,0,0,0.05,33.900000000000006,0)" xlink:href="#r"/><use transform="matrix(0.05,0,0,0.05,44.85000000000001,0)" xlink:href="#s"/></g><path fill="#fff" d="M24-248c120-7 223 5 221 122C244-46 201 0 124 0H24v-248zM76-40c74 7 117-18 117-86 0-67-45-88-117-82v168" id="t"/><path fill="#fff" d="M133-34C117-15 103 5 69 4 32 3 11-16 11-54c-1-60 55-63 116-61 1-26-3-47-28-47-18 1-26 9-28 27l-52-2c7-38 36-58 82-57s74 22 75 68l1 82c-1 14 12 18 25 15v27c-30 8-71 5-69-32zm-48 3c29 0 43-24 42-57-32 0-66-3-65 30 0 17 8 27 23 27" id="u"/><g id="b"><use transform="matrix(0.05,0,0,0.05,0,0)" xlink:href="#t"/><use transform="matrix(0.05,0,0,0.05,12.950000000000001,0)" xlink:href="#u"/><use transform="matrix(0.05,0,0,0.05,22.950000000000003,0)" xlink:href="#s"/><use transform="matrix(0.05,0,0,0.05,28.900000000000002,0)" xlink:href="#u"/></g><path fill="#fff" d="M240-174c0 40-23 61-54 70L253 0h-59l-57-94H76V0H24v-248c93 4 217-23 216 74zM76-134c48-2 112 12 112-38 0-48-66-32-112-35v73" id="v"/><path fill="#fff" d="M25-224v-37h50v37H25zM25 0v-190h50V0H25" id="w"/><path fill="#fff" d="M137-138c1-29-70-34-71-4 15 46 118 7 119 86 1 83-164 76-172 9l43-7c4 19 20 25 44 25 33 8 57-30 24-41C81-84 22-81 20-136c-2-80 154-74 161-7" id="x"/><path fill="#fff" d="M135-150c-39-12-60 13-60 57V0H25l-1-190h47c2 13-1 29 3 40 6-28 27-53 61-41v41" id="y"/><path fill="#fff" d="M123 10C108 53 80 86 19 72V37c35 8 53-11 59-39L3-190h52l48 148c12-52 28-100 44-148h51" id="z"/><g id="c"><use transform="matrix(0.05,0,0,0.05,0,0)" xlink:href="#v"/><use transform="matrix(0.05,0,0,0.05,12.950000000000001,0)" xlink:href="#q"/><use transform="matrix(0.05,0,0,0.05,22.950000000000003,0)" xlink:href="#p"/><use transform="matrix(0.05,0,0,0.05,33.900000000000006,0)" xlink:href="#w"/><use transform="matrix(0.05,0,0,0.05,38.900000000000006,0)" xlink:href="#x"/><use transform="matrix(0.05,0,0,0.05,48.900000000000006,0)" xlink:href="#s"/><use transform="matrix(0.05,0,0,0.05,54.85,0)" xlink:href="#y"/><use transform="matrix(0.05,0,0,0.05,61.85,0)" xlink:href="#z"/></g><path fill="#fff" d="M169-182c-1-43-94-46-97-3 18 66 151 10 154 114 3 95-165 93-204 36-6-8-10-19-12-30l50-8c3 46 112 56 116 5-17-69-150-10-154-114-4-87 153-88 188-35 5 8 8 18 10 28" id="A"/><g id="d"><use transform="matrix(0.05,0,0,0.05,0,0)" xlink:href="#A"/><use transform="matrix(0.05,0,0,0.05,12,0)" xlink:href="#q"/><use transform="matrix(0.05,0,0,0.05,22,0)" xlink:href="#s"/></g><g id="e"><use transform="matrix(0.05,0,0,0.05,0,0)" xlink:href="#v"/><use transform="matrix(0.05,0,0,0.05,12.950000000000001,0)" xlink:href="#q"/><use transform="matrix(0.05,0,0,0.05,22.950000000000003,0)" xlink:href="#p"/><use transform="matrix(0.05,0,0,0.05,33.900000000000006,0)" xlink:href="#w"/><use transform="matrix(0.05,0,0,0.05,38.900000000000006,0)" xlink:href="#x"/><use transform="matrix(0.05,0,0,0.05,48.900000000000006,0)" xlink:href="#s"/><use transform="matrix(0.05,0,0,0.05,54.85,0)" xlink:href="#y"/><use transform="matrix(0.05,0,0,0.05,61.85,0)" xlink:href="#z"/></g><path fill="#fff" d="M186 0v-106H76V0H24v-248h52v99h110v-99h50V0h-50" id="B"/><g id="f"><use transform="matrix(0.05,0,0,0.05,0,0)" xlink:href="#B"/><use transform="matrix(0.05,0,0,0.05,12.950000000000001,0)" xlink:href="#u"/><use transform="matrix(0.05,0,0,0.05,22.950000000000003,0)" xlink:href="#x"/></g><g id="g"><use transform="matrix(0.05,0,0,0.05,0,0)" xlink:href="#t"/><use transform="matrix(0.05,0,0,0.05,12.950000000000001,0)" xlink:href="#u"/><use transform="matrix(0.05,0,0,0.05,22.950000000000003,0)" xlink:href="#s"/><use transform="matrix(0.05,0,0,0.05,28.900000000000002,0)" xlink:href="#u"/></g><g id="h"><use transform="matrix(0.05,0,0,0.05,0,0)" xlink:href="#v"/><use transform="matrix(0.05,0,0,0.05,12.950000000000001,0)" xlink:href="#q"/><use transform="matrix(0.05,0,0,0.05,22.950000000000003,0)" xlink:href="#p"/><use transform="matrix(0.05,0,0,0.05,33.900000000000006,0)" xlink:href="#w"/><use transform="matrix(0.05,0,0,0.05,38.900000000000006,0)" xlink:href="#x"/><use transform="matrix(0.05,0,0,0.05,48.900000000000006,0)" xlink:href="#s"/><use transform="matrix(0.05,0,0,0.05,54.85,0)" xlink:href="#y"/><use transform="matrix(0.05,0,0,0.05,61.85,0)" xlink:href="#z"/></g><g id="i"><use transform="matrix(0.05,0,0,0.05,0,0)" xlink:href="#v"/><use transform="matrix(0.05,0,0,0.05,12.950000000000001,0)" xlink:href="#q"/><use transform="matrix(0.05,0,0,0.05,22.950000000000003,0)" xlink:href="#p"/><use transform="matrix(0.05,0,0,0.05,33.900000000000006,0)" xlink:href="#w"/><use transform="matrix(0.05,0,0,0.05,38.900000000000006,0)" xlink:href="#x"/><use transform="matrix(0.05,0,0,0.05,48.900000000000006,0)" xlink:href="#s"/><use transform="matrix(0.05,0,0,0.05,54.85,0)" xlink:href="#y"/><use transform="matrix(0.05,0,0,0.05,61.85,0)" xlink:href="#z"/></g><g id="j"><use transform="matrix(0.05,0,0,0.05,0,0)" xlink:href="#t"/><use transform="matrix(0.05,0,0,0.05,12.950000000000001,0)" xlink:href="#u"/><use transform="matrix(0.05,0,0,0.05,22.950000000000003,0)" xlink:href="#s"/><use transform="matrix(0.05,0,0,0.05,28.900000000000002,0)" xlink:href="#u"/></g><path fill="#fff" d="M110-194c64 0 96 36 96 99 0 64-35 99-97 99-61 0-95-36-95-99 0-62 34-99 96-99zm-1 164c35 0 45-28 45-65 0-40-10-65-43-65-34 0-45 26-45 65 0 36 10 65 43 65" id="C"/><g id="k"><use transform="matrix(0.05,0,0,0.05,0,0)" xlink:href="#v"/><use transform="matrix(0.05,0,0,0.05,12.950000000000001,0)" xlink:href="#q"/><use transform="matrix(0.05,0,0,0.05,22.950000000000003,0)" xlink:href="#p"/><use transform="matrix(0.05,0,0,0.05,33.900000000000006,0)" xlink:href="#w"/><use transform="matrix(0.05,0,0,0.05,38.900000000000006,0)" xlink:href="#x"/><use transform="matrix(0.05,0,0,0.05,48.900000000000006,0)" xlink:href="#s"/><use transform="matrix(0.05,0,0,0.05,54.85,0)" xlink:href="#y"/><use transform="matrix(0.05,0,0,0.05,61.85,0)" xlink:href="#u"/><use transform="matrix(0.05,0,0,0.05,71.85000000000001,0)" xlink:href="#s"/><use transform="matrix(0.05,0,0,0.05,77.80000000000001,0)" xlink:href="#w"/><use transform="matrix(0.05,0,0,0.05,82.80000000000001,0)" xlink:href="#C"/><use transform="matrix(0.05,0,0,0.05,93.75000000000001,0)" xlink:href="#r"/></g><g id="l"><use transform="matrix(0.05,0,0,0.05,0,0)" xlink:href="#B"/><use transform="matrix(0.05,0,0,0.05,12.950000000000001,0)" xlink:href="#u"/><use transform="matrix(0.05,0,0,0.05,22.950000000000003,0)" xlink:href="#x"/></g><path fill="#fff" d="M88-194c31-1 46 15 58 34l-1-101h50l1 261h-48c-2-10 0-23-3-31C134-8 116 4 84 4 32 4 16-41 15-95c0-56 19-97 73-99zm17 164c33 0 40-30 41-66 1-37-9-64-41-64s-38 30-39 65c0 43 13 65 39 65" id="D"/><g id="m"><use transform="matrix(0.05,0,0,0.05,0,0)" xlink:href="#v"/><use transform="matrix(0.05,0,0,0.05,12.950000000000001,0)" xlink:href="#q"/><use transform="matrix(0.05,0,0,0.05,22.950000000000003,0)" xlink:href="#p"/><use transform="matrix(0.05,0,0,0.05,33.900000000000006,0)" xlink:href="#w"/><use transform="matrix(0.05,0,0,0.05,38.900000000000006,0)" xlink:href="#x"/><use transform="matrix(0.05,0,0,0.05,48.900000000000006,0)" xlink:href="#s"/><use transform="matrix(0.05,0,0,0.05,54.85,0)" xlink:href="#q"/><use transform="matrix(0.05,0,0,0.05,64.85000000000001,0)" xlink:href="#y"/><use transform="matrix(0.05,0,0,0.05,71.85000000000001,0)" xlink:href="#q"/><use transform="matrix(0.05,0,0,0.05,81.85000000000001,0)" xlink:href="#D"/></g><path fill="#fff" d="M182-130c37 4 62 22 62 59C244 23 116-4 24 0v-248c84 5 203-23 205 63 0 31-19 50-47 55zM76-148c40-3 101 13 101-30 0-44-60-28-101-31v61zm0 110c48-3 116 14 116-37 0-48-69-32-116-35v72" id="E"/><g id="n"><use transform="matrix(0.05,0,0,0.05,0,0)" xlink:href="#E"/><use transform="matrix(0.05,0,0,0.05,12.950000000000001,0)" xlink:href="#z"/></g></defs></g></svg>