<svg xmlns="http://www.w3.org/2000/svg" xmlns:xlink="http://www.w3.org/1999/xlink" xmlns:lucid="lucid" width="1300" height="500"><g transform="translate(-280 -180)" lucid:page-tab-id="B6H-QDM.lTeX"><path d="M1015.2 280c0 44.18-35.82 80-80 80s-80-35.82-80-80 35.82-80 80-80 80 35.82 80 80z" stroke="#000" stroke-width="2" fill="#0c7cba"/><use xlink:href="#a" transform="matrix(1,0,0,1,860.1999999999999,205) translate(43.3283950617284 78.89305555555555)"/><path d="M1560 360c0 44.18-35.82 80-80 80s-80-35.82-80-80 35.82-80 80-80 80 35.82 80 80z" stroke="#000" stroke-width="2" fill="#0c7cba"/><use xlink:href="#b" transform="matrix(1,0,0,1,1405,285) translate(9.724074074074082 78.89305555555555)"/><path d="M780 580c0 44.18-35.82 80-80 80s-80-35.82-80-80 35.82-80 80-80 80 35.82 80 80z" stroke="#000" stroke-width="2" fill="#0c7cba"/><use xlink:href="#c" transform="matrix(1,0,0,1,625,505) translate(9.661728395061743 78.89305555555555)"/><use xlink:href="#d" transform="matrix(1,0,0,1,625,505) translate(105.48703703703704 78.89305555555555)"/><path d="M1240 580c0 44.18-35.82 80-80 80s-80-35.82-80-80 35.82-80 80-80 80 35.82 80 80z" stroke="#000" stroke-width="2" fill="#0c7cba"/><use xlink:href="#e" transform="matrix(1,0,0,1,1085,505) translate(30.204629629629636 78.89305555555555)"/><path d="M437.5 419.06l177.54 105.3" stroke="#000" stroke-width="3" fill="none"/><path d="M438.3 417.8l-1.53 2.57-1.7-1 .62-.55 1.6-1.62z"/><path d="M628.6 532.4l-14.63-3.3 4.73-7.98z" stroke="#000" stroke-width="3"/><path d="M782.5 580h51.08" stroke="#000" stroke-width="3" fill="none"/><path d="M782.54 581.5h-1.6l.06-1.5v-.7l-.03-.8h1.57z"/><path d="M849.35 580l-14.27 4.64v-9.28z" stroke="#000" stroke-width="3"/><path d="M1017.7 580h40.68" stroke="#000" stroke-width="3" fill="none"/><path d="M1017.74 581.5h-1.54v-3h1.54z"/><path d="M1074.15 580l-14.27 4.64v-9.28z" stroke="#000" stroke-width="3"/><path d="M1231.9 539.55l169.88-114.92" stroke="#000" stroke-width="3" fill="none"/><path d="M1232.78 540.77l-1.4.95-.57-1.08-.9-1.54 1.2-.8z"/><path d="M1414.84 415.8l-9.22 11.83-5.2-7.68z" stroke="#000" stroke-width="3"/><path d="M1407.28 321.25l-370.57-39.1" stroke="#000" stroke-width="3" fill="none"/><path d="M1409.6 320l-.73 1.22-.82 1.62-.97-.1.32-2.98z"/><path d="M1021.03 280.5l14.67-3.1-.97 9.22z" stroke="#000" stroke-width="3"/><path d="M480 460h160v40H480z" stroke="#000" stroke-width="2" fill="#7ab648"/><use xlink:href="#f" transform="matrix(1,0,0,1,485,465) translate(7.599999999999994 18.15)"/><use xlink:href="#g" transform="matrix(1,0,0,1,485,465) translate(45.55 18.15)"/><use xlink:href="#h" transform="matrix(1,0,0,1,485,465) translate(116.45 18.15)"/><path d="M855.2 560h160v40h-160z" stroke="#000" stroke-width="2" fill="#7ab648"/><use xlink:href="#f" transform="matrix(1,0,0,1,860.1999999999999,565) translate(23.074999999999996 18.15)"/><use xlink:href="#i" transform="matrix(1,0,0,1,860.1999999999999,565) translate(61.025 18.15)"/><path d="M1220 460h160v40h-160z" stroke="#000" stroke-width="2" fill="#7ab648"/><use xlink:href="#f" transform="matrix(1,0,0,1,1225,465) translate(6.6499999999999915 18.15)"/><use xlink:href="#j" transform="matrix(1,0,0,1,1225,465) translate(44.599999999999994 18.15)"/><path d="M1120 280h160v40h-160z" stroke="#000" stroke-width="2" fill="#7ab648"/><use xlink:href="#k" transform="matrix(1,0,0,1,1125,285) translate(14.624999999999993 18.15)"/><use xlink:href="#l" transform="matrix(1,0,0,1,1125,285) translate(112.42500000000001 18.15)"/><path d="M460 360c0 44.18-35.82 80-80 80s-80-35.82-80-80 35.82-80 80-80 80 35.82 80 80z" stroke="#000" stroke-width="2" fill="#0c7cba"/><use xlink:href="#m" transform="matrix(1,0,0,1,305,285) translate(25.84043209876544 78.89305555555555)"/><path d="M852.7 280.2l-376.2 49.28" stroke="#000" stroke-width="3" fill="none"/><path d="M854.2 280v.7l.03.8-1.36.2-.4-3 1.78-.22z"/><path d="M460.86 331.53l13.54-6.45 1.2 9.2z" stroke="#000" stroke-width="3"/><path d="M600 280h160v40H600z" stroke="#000" stroke-width="2" fill="#7ab648"/><g><use xlink:href="#f" transform="matrix(1,0,0,1,605,285) translate(19.574999999999996 18.15)"/><use xlink:href="#n" transform="matrix(1,0,0,1,605,285) translate(57.525 18.15)"/></g><defs><path fill="#fff" d="M199 0l-22-63H83L61 0H9l90-248h61L250 0h-51zm-33-102l-36-108c-10 38-24 72-36 108h72" id="o"/><path fill="#fff" d="M195-6C206 82 75 100 31 46c-4-6-6-13-8-21l49-6c3 16 16 24 34 25 40 0 42-37 40-79-11 22-30 35-61 35-53 0-70-43-70-97 0-56 18-96 73-97 30 0 46 14 59 34l2-30h47zm-90-29c32 0 41-27 41-63 0-35-9-62-40-62-32 0-39 29-40 63 0 36 9 62 39 62" id="p"/><path fill="#fff" d="M185-48c-13 30-37 53-82 52C43 2 14-33 14-96s30-98 90-98c62 0 83 45 84 108H66c0 31 8 55 39 56 18 0 30-7 34-22zm-45-69c5-46-57-63-70-21-2 6-4 13-4 21h74" id="q"/><path fill="#fff" d="M135-194c87-1 58 113 63 194h-50c-7-57 23-157-34-157-59 0-34 97-39 157H25l-1-190h47c2 12-1 28 3 38 12-26 28-41 61-42" id="r"/><path fill="#fff" d="M115-3C79 11 28 4 28-45v-112H4v-33h27l15-45h31v45h36v33H77v99c-1 23 16 31 38 25v30" id="s"/><g id="a"><use transform="matrix(0.06234567901234567,0,0,0.06234567901234567,0,0)" xlink:href="#o"/><use transform="matrix(0.06234567901234567,0,0,0.06234567901234567,16.147530864197527,0)" xlink:href="#p"/><use transform="matrix(0.06234567901234567,0,0,0.06234567901234567,29.80123456790123,0)" xlink:href="#q"/><use transform="matrix(0.06234567901234567,0,0,0.06234567901234567,42.27037037037036,0)" xlink:href="#r"/><use transform="matrix(0.06234567901234567,0,0,0.06234567901234567,55.924074074074056,0)" xlink:href="#s"/></g><path fill="#fff" d="M240-174c0 40-23 61-54 70L253 0h-59l-57-94H76V0H24v-248c93 4 217-23 216 74zM76-134c48-2 112 12 112-38 0-48-66-32-112-35v73" id="t"/><path fill="#fff" d="M25-224v-37h50v37H25zM25 0v-190h50V0H25" id="u"/><path fill="#fff" d="M137-138c1-29-70-34-71-4 15 46 118 7 119 86 1 83-164 76-172 9l43-7c4 19 20 25 44 25 33 8 57-30 24-41C81-84 22-81 20-136c-2-80 154-74 161-7" id="v"/><path fill="#fff" d="M135-150c-39-12-60 13-60 57V0H25l-1-190h47c2 13-1 29 3 40 6-28 27-53 61-41v41" id="w"/><path fill="#fff" d="M133-34C117-15 103 5 69 4 32 3 11-16 11-54c-1-60 55-63 116-61 1-26-3-47-28-47-18 1-26 9-28 27l-52-2c7-38 36-58 82-57s74 22 75 68l1 82c-1 14 12 18 25 15v27c-30 8-71 5-69-32zm-48 3c29 0 43-24 42-57-32 0-66-3-65 30 0 17 8 27 23 27" id="x"/><path fill="#fff" d="M110-194c64 0 96 36 96 99 0 64-35 99-97 99-61 0-95-36-95-99 0-62 34-99 96-99zm-1 164c35 0 45-28 45-65 0-40-10-65-43-65-34 0-45 26-45 65 0 36 10 65 43 65" id="y"/><g id="b"><use transform="matrix(0.06234567901234567,0,0,0.06234567901234567,0,0)" xlink:href="#t"/><use transform="matrix(0.06234567901234567,0,0,0.06234567901234567,16.147530864197527,0)" xlink:href="#q"/><use transform="matrix(0.06234567901234567,0,0,0.06234567901234567,28.61666666666666,0)" xlink:href="#p"/><use transform="matrix(0.06234567901234567,0,0,0.06234567901234567,42.27037037037036,0)" xlink:href="#u"/><use transform="matrix(0.06234567901234567,0,0,0.06234567901234567,48.50493827160493,0)" xlink:href="#v"/><use transform="matrix(0.06234567901234567,0,0,0.06234567901234567,60.97407407407406,0)" xlink:href="#s"/><use transform="matrix(0.06234567901234567,0,0,0.06234567901234567,68.3932098765432,0)" xlink:href="#w"/><use transform="matrix(0.06234567901234567,0,0,0.06234567901234567,77.12160493827159,0)" xlink:href="#x"/><use transform="matrix(0.06234567901234567,0,0,0.06234567901234567,89.59074074074073,0)" xlink:href="#s"/><use transform="matrix(0.06234567901234567,0,0,0.06234567901234567,97.00987654320986,0)" xlink:href="#u"/><use transform="matrix(0.06234567901234567,0,0,0.06234567901234567,103.24444444444443,0)" xlink:href="#y"/><use transform="matrix(0.06234567901234567,0,0,0.06234567901234567,116.89814814814812,0)" xlink:href="#r"/></g><path fill="#fff" d="M123 10C108 53 80 86 19 72V37c35 8 53-11 59-39L3-190h52l48 148c12-52 28-100 44-148h51" id="z"/><g id="c"><use transform="matrix(0.06234567901234567,0,0,0.06234567901234567,0,0)" xlink:href="#t"/><use transform="matrix(0.06234567901234567,0,0,0.06234567901234567,16.147530864197527,0)" xlink:href="#q"/><use transform="matrix(0.06234567901234567,0,0,0.06234567901234567,28.61666666666666,0)" xlink:href="#p"/><use transform="matrix(0.06234567901234567,0,0,0.06234567901234567,42.27037037037036,0)" xlink:href="#u"/><use transform="matrix(0.06234567901234567,0,0,0.06234567901234567,48.50493827160493,0)" xlink:href="#v"/><use transform="matrix(0.06234567901234567,0,0,0.06234567901234567,60.97407407407406,0)" xlink:href="#s"/><use transform="matrix(0.06234567901234567,0,0,0.06234567901234567,68.3932098765432,0)" xlink:href="#w"/><use transform="matrix(0.06234567901234567,0,0,0.06234567901234567,77.12160493827159,0)" xlink:href="#z"/></g><path fill="#fff" d="M169-182c-1-43-94-46-97-3 18 66 151 10 154 114 3 95-165 93-204 36-6-8-10-19-12-30l50-8c3 46 112 56 116 5-17-69-150-10-154-114-4-87 153-88 188-35 5 8 8 18 10 28" id="A"/><g id="d"><use transform="matrix(0.06234567901234567,0,0,0.06234567901234567,0,0)" xlink:href="#A"/><use transform="matrix(0.06234567901234567,0,0,0.06234567901234567,14.96296296296296,0)" xlink:href="#q"/><use transform="matrix(0.06234567901234567,0,0,0.06234567901234567,27.432098765432094,0)" xlink:href="#s"/></g><g id="e"><use transform="matrix(0.06234567901234567,0,0,0.06234567901234567,0,0)" xlink:href="#t"/><use transform="matrix(0.06234567901234567,0,0,0.06234567901234567,16.147530864197527,0)" xlink:href="#q"/><use transform="matrix(0.06234567901234567,0,0,0.06234567901234567,28.61666666666666,0)" xlink:href="#p"/><use transform="matrix(0.06234567901234567,0,0,0.06234567901234567,42.27037037037036,0)" xlink:href="#u"/><use transform="matrix(0.06234567901234567,0,0,0.06234567901234567,48.50493827160493,0)" xlink:href="#v"/><use transform="matrix(0.06234567901234567,0,0,0.06234567901234567,60.97407407407406,0)" xlink:href="#s"/><use transform="matrix(0.06234567901234567,0,0,0.06234567901234567,68.3932098765432,0)" xlink:href="#w"/><use transform="matrix(0.06234567901234567,0,0,0.06234567901234567,77.12160493827159,0)" xlink:href="#z"/></g><path fill="#fff" d="M186 0v-106H76V0H24v-248h52v99h110v-99h50V0h-50" id="B"/><g id="f"><use transform="matrix(0.05,0,0,0.05,0,0)" xlink:href="#B"/><use transform="matrix(0.05,0,0,0.05,12.950000000000001,0)" xlink:href="#x"/><use transform="matrix(0.05,0,0,0.05,22.950000000000003,0)" xlink:href="#v"/></g><g id="g"><use transform="matrix(0.05,0,0,0.05,0,0)" xlink:href="#w"/><use transform="matrix(0.05,0,0,0.05,7,0)" xlink:href="#q"/><use transform="matrix(0.05,0,0,0.05,17,0)" xlink:href="#p"/><use transform="matrix(0.05,0,0,0.05,27.950000000000003,0)" xlink:href="#u"/><use transform="matrix(0.05,0,0,0.05,32.95,0)" xlink:href="#v"/><use transform="matrix(0.05,0,0,0.05,42.95,0)" xlink:href="#s"/><use transform="matrix(0.05,0,0,0.05,48.900000000000006,0)" xlink:href="#w"/><use transform="matrix(0.05,0,0,0.05,55.900000000000006,0)" xlink:href="#z"/></g><g id="h"><use transform="matrix(0.05,0,0,0.05,0,0)" xlink:href="#v"/><use transform="matrix(0.05,0,0,0.05,10,0)" xlink:href="#q"/><use transform="matrix(0.05,0,0,0.05,20,0)" xlink:href="#s"/></g><g id="i"><use transform="matrix(0.05,0,0,0.05,0,0)" xlink:href="#w"/><use transform="matrix(0.05,0,0,0.05,7,0)" xlink:href="#q"/><use transform="matrix(0.05,0,0,0.05,17,0)" xlink:href="#p"/><use transform="matrix(0.05,0,0,0.05,27.950000000000003,0)" xlink:href="#u"/><use transform="matrix(0.05,0,0,0.05,32.95,0)" xlink:href="#v"/><use transform="matrix(0.05,0,0,0.05,42.95,0)" xlink:href="#s"/><use transform="matrix(0.05,0,0,0.05,48.900000000000006,0)" xlink:href="#w"/><use transform="matrix(0.05,0,0,0.05,55.900000000000006,0)" xlink:href="#z"/></g><g id="j"><use transform="matrix(0.05,0,0,0.05,0,0)" xlink:href="#w"/><use transform="matrix(0.05,0,0,0.05,7,0)" xlink:href="#q"/><use transform="matrix(0.05,0,0,0.05,17,0)" xlink:href="#p"/><use transform="matrix(0.05,0,0,0.05,27.950000000000003,0)" xlink:href="#u"/><use transform="matrix(0.05,0,0,0.05,32.95,0)" xlink:href="#v"/><use transform="matrix(0.05,0,0,0.05,42.95,0)" xlink:href="#s"/><use transform="matrix(0.05,0,0,0.05,48.900000000000006,0)" xlink:href="#w"/><use transform="matrix(0.05,0,0,0.05,55.900000000000006,0)" xlink:href="#x"/><use transform="matrix(0.05,0,0,0.05,65.9,0)" xlink:href="#s"/><use transform="matrix(0.05,0,0,0.05,71.85000000000001,0)" xlink:href="#u"/><use transform="matrix(0.05,0,0,0.05,76.85000000000001,0)" xlink:href="#y"/><use transform="matrix(0.05,0,0,0.05,87.80000000000001,0)" xlink:href="#r"/></g><path fill="#fff" d="M88-194c31-1 46 15 58 34l-1-101h50l1 261h-48c-2-10 0-23-3-31C134-8 116 4 84 4 32 4 16-41 15-95c0-56 19-97 73-99zm17 164c33 0 40-30 41-66 1-37-9-64-41-64s-38 30-39 65c0 43 13 65 39 65" id="C"/><g id="k"><use transform="matrix(0.05,0,0,0.05,0,0)" xlink:href="#t"/><use transform="matrix(0.05,0,0,0.05,12.950000000000001,0)" xlink:href="#q"/><use transform="matrix(0.05,0,0,0.05,22.950000000000003,0)" xlink:href="#p"/><use transform="matrix(0.05,0,0,0.05,33.900000000000006,0)" xlink:href="#u"/><use transform="matrix(0.05,0,0,0.05,38.900000000000006,0)" xlink:href="#v"/><use transform="matrix(0.05,0,0,0.05,48.900000000000006,0)" xlink:href="#s"/><use transform="matrix(0.05,0,0,0.05,54.85,0)" xlink:href="#q"/><use transform="matrix(0.05,0,0,0.05,64.85000000000001,0)" xlink:href="#w"/><use transform="matrix(0.05,0,0,0.05,71.85000000000001,0)" xlink:href="#q"/><use transform="matrix(0.05,0,0,0.05,81.85000000000001,0)" xlink:href="#C"/></g><path fill="#fff" d="M182-130c37 4 62 22 62 59C244 23 116-4 24 0v-248c84 5 203-23 205 63 0 31-19 50-47 55zM76-148c40-3 101 13 101-30 0-44-60-28-101-31v61zm0 110c48-3 116 14 116-37 0-48-69-32-116-35v72" id="D"/><g id="l"><use transform="matrix(0.05,0,0,0.05,0,0)" xlink:href="#D"/><use transform="matrix(0.05,0,0,0.05,12.950000000000001,0)" xlink:href="#z"/></g><g id="m"><use transform="matrix(0.06234567901234567,0,0,0.06234567901234567,0,0)" xlink:href="#t"/><use transform="matrix(0.06234567901234567,0,0,0.06234567901234567,16.147530864197527,0)" xlink:href="#q"/><use transform="matrix(0.06234567901234567,0,0,0.06234567901234567,28.61666666666666,0)" xlink:href="#p"/><use transform="matrix(0.06234567901234567,0,0,0.06234567901234567,42.27037037037036,0)" xlink:href="#u"/><use transform="matrix(0.06234567901234567,0,0,0.06234567901234567,48.50493827160493,0)" xlink:href="#v"/><use transform="matrix(0.06234567901234567,0,0,0.06234567901234567,60.97407407407406,0)" xlink:href="#s"/><use transform="matrix(0.06234567901234567,0,0,0.06234567901234567,68.3932098765432,0)" xlink:href="#w"/><use transform="matrix(0.06234567901234567,0,0,0.06234567901234567,77.12160493827159,0)" xlink:href="#x"/><use transform="matrix(0.06234567901234567,0,0,0.06234567901234567,89.59074074074073,0)" xlink:href="#w"/></g><g id="n"><use transform="matrix(0.05,0,0,0.05,0,0)" xlink:href="#w"/><use transform="matrix(0.05,0,0,0.05,7,0)" xlink:href="#q"/><use transform="matrix(0.05,0,0,0.05,17,0)" xlink:href="#p"/><use transform="matrix(0.05,0,0,0.05,27.950000000000003,0)" xlink:href="#u"/><use transform="matrix(0.05,0,0,0.05,32.95,0)" xlink:href="#v"/><use transform="matrix(0.05,0,0,0.05,42.95,0)" xlink:href="#s"/><use transform="matrix(0.05,0,0,0.05,48.900000000000006,0)" xlink:href="#w"/><use transform="matrix(0.05,0,0,0.05,55.900000000000006,0)" xlink:href="#x"/><use transform="matrix(0.05,0,0,0.05,65.9,0)" xlink:href="#w"/></g></defs></g></svg>